SplineFontDB: 3.2
FontName: RoutedGothic-Italic
FullName: Routed Gothic Italic
FamilyName: Routed Gothic
Weight: Regular

StartChar: exclam
Encoding: 33 33 0
Width: 288
Flags: HW
LayerCount: 2
Back
SplineSet
44.1103515625 72 m 0
 34.65234375 59.068359375 16.759765625 48 3.451171875 48 c 0
 -4.548828125 48 -9.234375 56 -5.9208984375 64 c 0
 -4.8056640625 66.6923828125 -3.2373046875 69.3837890625 -1.32421875 72 c 1024
-1.32421875 72 m 0
 8.1328125 84.931640625 26.0263671875 96 39.333984375 96 c 0
 47.333984375 96 52.0205078125 88 48.7060546875 80 c 0
 47.591796875 77.3076171875 46.0234375 74.6162109375 44.1103515625 72 c 1024
276.548828125 688 m 1
 110.86328125 288 l 1025
EndSplineSet
Fore
SplineSet
101.986188609 40.9512317826 m 0
 85.8133023915 19.0023147728 67.0856007302 4.29232389558 45.2361003549 -7.20741314405 c 0
 28.2040407502 -16.2911782666 7.36082787314 -24 -16 -24 c 0
 -41.8303547316 -24 -60.1671799544 -11.2752144432 -70.0026028865 1.328711146 c 0
 -78.4351921753 12.3113048246 -83.0942719959 25.5594208948 -83.0942719959 40.4147173054 c 0
 -83.0942719959 50.6727947904 -80.872653626 61.6972341978 -76.13782393 73.2712623435 c 0
 -72.2042354357 82.4496354969 -67.7192284074 90.1877726945 -62.9692070641 97.3128047094 c 0
 -62.8827516093 97.4424878916 -60.3241218684 101.124719848 -58.9861886092 103.048768217 c 0
 -42.8133023915 124.997685227 -24.0856007302 139.707676104 -2.2361003549 151.207413144 c 0
 14.7959592498 160.291178267 35.6391721269 168 59 168 c 0
 90.0333767927 168 111.599019314 150.762353646 120.219776856 130.072535545 c 0
 123.354807473 122.234959003 125.519244133 113.051343961 125.519244133 102.600126786 c 0
 125.519244133 93.0737902697 123.720940697 82.4942775102 119.220217631 70.9209896252 c 0
 115.098450506 61.3035329993 110.791056857 53.9199699795 105.969207064 46.6871952906 c 0
 105.882751609 46.5575121084 103.324121868 42.8752801517 101.986188609 40.9512317826 c 0
-21.5890227075 72.8882323797 m 0
 -25.3042328403 67.2299769475 -29.8985011387 59.3106458294 -31.86217607 54.7287376565 c 0
 -38.1148624053 39.4443932813 -34.5847067379 33.899628847 -32.0249450952 30.6999267936 c 0
 -29.5174637882 27.3566183843 -26.3930154779 24 -16 24 c 0
 -3.36082787314 24 9.79595924979 28.2911782666 22.7638996451 35.2074131441 c 0
 38.6787306 43.5836399624 52.7166250398 55.2269661999 64.5890227075 71.1117676203 c 0
 68.3738592932 76.8760639603 72.295011893 83.4501787191 74.7886530453 89.0996520187 c 0
 79.1268902188 100.805338952 78.0148630261 106.123648148 75.7918672542 111.89906324 c 0
 74.3121266573 115.25643693 72.0293788599 120 59 120 c 0
 46.3608278731 120 33.2040407502 115.708821733 20.2361003549 108.792586856 c 0
 4.32126939998 100.416360038 -9.7166250398 88.7730338001 -21.5890227075 72.8882323797 c 0
206.86466161 697.275429465 m 2
 221.463384493 731.781501734 257.898864137 760 296 760 c 0
 304.27046357 760 312.352517179 758.525643046 319.783839145 755.45921093 c 0
 341.412460315 746.534459874 352.499942955 726.353011757 352.499942955 704.738763913 c 0
 352.499942955 696.086916336 350.723421658 687.205494624 347.13533839 678.724570535 c 2
 181.13533839 278.724570535 l 2
 166.361863707 243.805448558 128.841218921 216 91 216 c 0
 82.7314480488 216 74.6388174398 217.474430824 67.2007419605 220.594250743 c 0
 45.7073200738 229.609432951 35.3771404467 249.539576325 35.3771404467 270.62452885 c 0
 35.3771404467 279.547935625 37.2273631253 288.6781785 40.8646616102 297.275429465 c 2
 206.86466161 697.275429465 l 2
251.13533839 678.724570535 m 2
 85.1353383898 278.724570535 l 2
 79.9717932325 266.519827436 84.6079931887 265.344297325 85.766795489 264.858250295 c 0
 86.7327347505 264.45309757 88.384831021 264 91 264 c 0
 105.158781079 264 129.638136293 280.194551442 136.86466161 297.275429465 c 2
 302.86466161 697.275429465 l 2
 307.708093691 708.723541657 303.460495746 710.268914945 301.47479217 711.088288032 c 0
 300.363545557 711.54682856 298.61325736 712 296 712 c 0
 282.101135863 712 258.536615507 696.218498266 251.13533839 678.724570535 c 2
EndSplineSet
EndChar

StartChar: quotedbl
Encoding: 34 34 1
Width: 384
Flags: HW
LayerCount: 2
Back
SplineSet
404.548828125 688 m 1
 318.391601562 480 l 1025
244.548828125 688 m 1
 158.391601562 480 l 1025
EndSplineSet
Fore
SplineSet
174.877686655 697.306215933 m 2
 189.452010014 731.754616601 225.903053979 760 264 760 c 0
 272.27046357 760 280.352517179 758.525643046 287.783839145 755.45921093 c 0
 309.407166779 746.536644178 320.499169874 726.373785551 320.499169874 704.752719765 c 0
 320.499169874 696.09078659 318.718901636 687.194810936 315.122313345 678.693784067 c 2
 228.122313345 470.693784067 l 2
 213.547989986 436.245383399 177.096946021 408 139 408 c 0
 130.72953643 408 122.647482821 409.474356954 115.216160855 412.54078907 c 0
 93.5928332207 421.463355822 82.5008301257 441.626214449 82.5008301257 463.247280235 c 0
 82.5008301257 471.90921341 84.2810983635 480.805189064 87.8776866546 489.306215933 c 2
 174.877686655 697.306215933 l 2
219.122313345 678.693784067 m 2
 132.141228102 470.739005554 l 2
 127.287479257 459.266508285 131.539727514 457.73099293 133.52520783 456.911711968 c 0
 134.636454443 456.45317144 136.38674264 456 139 456 c 0
 152.90919777 456 176.435331006 471.715193491 183.896785974 489.35135978 c 2
 270.858771898 697.260994446 l 2
 275.712520743 708.733491715 271.460272486 710.26900707 269.47479217 711.088288032 c 0
 268.363545557 711.54682856 266.61325736 712 264 712 c 0
 250.09080223 712 226.583768314 696.329950355 219.122313345 678.693784067 c 2
334.877686655 697.306215933 m 2
 349.452010014 731.754616601 385.903053979 760 424 760 c 0
 432.27046357 760 440.352517179 758.525643046 447.783839145 755.45921093 c 0
 469.407166779 746.536644178 480.499169874 726.373785551 480.499169874 704.752719765 c 0
 480.499169874 696.09078659 478.718901636 687.194810936 475.122313345 678.693784067 c 2
 388.122313345 470.693784067 l 2
 373.547989986 436.245383399 337.096946021 408 299 408 c 0
 290.72953643 408 282.647482821 409.474356954 275.216160855 412.54078907 c 0
 253.592833221 421.463355822 242.500830126 441.626214449 242.500830126 463.247280235 c 0
 242.500830126 471.90921341 244.281098364 480.805189064 247.877686655 489.306215933 c 2
 334.877686655 697.306215933 l 2
379.122313345 678.693784067 m 2
 292.141228102 470.739005554 l 2
 287.287479257 459.266508285 291.539727514 457.73099293 293.52520783 456.911711968 c 0
 294.636454443 456.45317144 296.38674264 456 299 456 c 0
 312.90919777 456 336.435331006 471.715193491 343.896785974 489.35135978 c 2
 430.858771898 697.260994446 l 2
 435.712520743 708.733491715 431.460272486 710.26900707 429.47479217 711.088288032 c 0
 428.363545557 711.54682856 426.61325736 712 424 712 c 0
 410.09080223 712 386.583768314 696.329950355 379.122313345 678.693784067 c 2
EndSplineSet
EndChar

StartChar: numbersign
Encoding: 35 35 2
Width: 672
Flags: HW
LayerCount: 2
Back
SplineSet
203.451171875 48 m 1
 644.548828125 688 l 1025
27.451171875 48 m 1
 468.548828125 688 l 1025
145.13671875 448 m 1
 593.13671875 448 l 1025
78.86328125 288 m 1
 526.86328125 288 l 1025
EndSplineSet
Fore
SplineSet
332.624731758 376 m 1
 321.624731758 360 l 1
 339.375268242 360 l 1
 350.375268242 376 l 1
 332.624731758 376 l 1
300.222993819 413.596691749 m 2
 304.249373997 419.453244734 311.973990434 424 320 424 c 2
 396 424 l 2
 399.711231137 424 404.361950459 422.8857703 408.003133574 420.782800206 c 0
 415.663654758 416.358456128 419.909957819 408.146094242 419.909957819 399.82556099 c 0
 419.909957819 395.170541408 418.580876083 390.481664472 415.777006181 386.403308251 c 2
 371.777006181 322.403308251 l 2
 367.750626003 316.546755266 360.026009566 312 352 312 c 2
 276 312 l 2
 272.288768863 312 267.638049541 313.1142297 263.996866426 315.217199794 c 0
 256.336345242 319.641543872 252.090042181 327.853905758 252.090042181 336.17443901 c 0
 252.090042181 340.829458592 253.419123917 345.518335528 256.222993819 349.596691749 c 2
 300.222993819 413.596691749 l 2
133.533747416 58.733126292 m 0
 134.737494689 61.1406208383 137.558007729 68.4106769716 142.528772727 75.0383636359 c 2
 240.178174454 216 l 1
 222.570992113 216 l 1
 87.6954762749 21.2853468531 l 2
 69.9999639919 -3.99395640833 40.314392164 -24 8 -24 c 0
 -0.270463570194 -24 -8.35251717921 -22.5256430459 -15.7838391455 -19.4592109303 c 0
 -37.3994216766 -10.5398400876 -48.4980433547 9.59580615131 -48.4980433547 31.2268345207 c 0
 -48.4980433547 39.9035336793 -46.7122804658 48.8208391032 -43.1032140256 57.3513597801 c 0
 -42.9147836121 57.7967407575 -42.6267096055 58.4122122491 -42.466252584 58.733126292 c 0
 -41.2625053108 61.1406208383 -38.4419922713 68.4106769716 -33.4712272731 75.0383636359 c 2
 64.178174454 216 l 1
 59 216 l 2
 50.7314480488 216 42.6388174398 217.474430824 35.2007419605 220.594250743 c 0
 13.7201488712 229.604052052 3.37840101529 249.489693436 3.37840101529 270.589801682 c 0
 3.37840101529 279.537510862 5.23812417121 288.7036137 8.89678597435 297.35135978 c 0
 23.6100842857 332.128246698 61.1691223292 360 99 360 c 2
 163.375268242 360 l 1
 174.375268242 376 l 1
 125 376 l 2
 116.731448049 376 108.63881744 377.474430824 101.200741961 380.594250743 c 0
 79.7201488712 389.604052052 69.3784010153 409.489693436 69.3784010153 430.589801682 c 0
 69.3784010153 439.537510862 71.2381241712 448.7036137 74.8967859744 457.35135978 c 0
 89.6100842857 492.128246698 127.169122329 520 165 520 c 2
 273.429007887 520 l 1
 408.304523725 714.714653147 l 2
 426.000036008 739.993956408 455.685607836 760 488 760 c 0
 496.27046357 760 504.352517179 758.525643046 511.783839145 755.45921093 c 0
 533.399421677 746.539840088 544.498043355 726.404193849 544.498043355 704.773165479 c 0
 544.498043355 696.096466321 542.712280466 687.179160897 539.103214026 678.64864022 c 0
 538.914783612 678.203259243 538.626709605 677.587787751 538.466252584 677.266873708 c 0
 537.262505311 674.859379162 534.441992271 667.589323028 529.471227273 660.961636364 c 2
 431.821825546 520 l 1
 449.429007887 520 l 1
 584.304523725 714.714653147 l 2
 602.000036008 739.993956408 631.685607836 760 664 760 c 0
 672.27046357 760 680.352517179 758.525643046 687.783839145 755.45921093 c 0
 709.399421677 746.539840088 720.498043355 726.404193849 720.498043355 704.773165479 c 0
 720.498043355 696.096466321 718.712280466 687.179160897 715.103214026 678.64864022 c 0
 714.914783612 678.203259243 714.626709605 677.587787751 714.466252584 677.266873708 c 0
 713.262505311 674.859379162 710.441992271 667.589323028 705.471227273 660.961636364 c 2
 607.821825546 520 l 1
 613 520 l 2
 621.268551951 520 629.36118256 518.525569176 636.799258039 515.405749257 c 0
 658.279851129 506.395947948 668.621598985 486.510306564 668.621598985 465.410198318 c 0
 668.621598985 456.462489138 666.761875829 447.2963863 663.103214026 438.64864022 c 0
 648.389915714 403.871753302 610.830877671 376 573 376 c 2
 508.624731758 376 l 1
 497.624731758 360 l 1
 547 360 l 2
 555.268551951 360 563.36118256 358.525569176 570.799258039 355.405749257 c 0
 592.279851129 346.395947948 602.621598985 326.510306564 602.621598985 305.410198318 c 0
 602.621598985 296.462489138 600.761875829 287.2963863 597.103214026 278.64864022 c 0
 582.389915714 243.871753302 544.830877671 216 507 216 c 2
 398.570992113 216 l 1
 263.695476275 21.2853468531 l 2
 245.999963992 -3.99395640833 216.314392164 -24 184 -24 c 0
 175.72953643 -24 167.647482821 -22.5256430459 160.216160855 -19.4592109303 c 0
 138.600578323 -10.5398400876 127.501956645 9.59580615131 127.501956645 31.2268345207 c 0
 127.501956645 39.9035336793 129.287719534 48.8208391032 132.896785974 57.3513597801 c 0
 133.085216388 57.7967407575 133.373290395 58.4122122491 133.533747416 58.733126292 c 0
176.852199899 38.0460842681 m 0
 172.652749681 27.0382736523 176.33184407 25.6880722565 178.921287539 24.7592573622 c 0
 180.033614462 24.3602736324 181.678185793 24 184 24 c 0
 195.685607836 24 214.000036008 33.9939564083 224.304523725 48.7146531469 c 2
 366.270852666 253.666043519 l 2
 370.278302358 259.451446244 377.994362114 264 386 264 c 2
 507 264 l 2
 521.169122329 264 545.610084286 280.128246698 552.896785974 297.35135978 c 0
 558.005771936 309.427144781 553.39205402 310.655682873 552.233204511 311.141749705 c 0
 551.267265249 311.54690243 549.615168979 312 547 312 c 2
 452 312 l 2
 448.288768863 312 443.638049541 313.1142297 439.996866426 315.217199794 c 0
 432.336345242 319.641543872 428.090042181 327.853905758 428.090042181 336.17443901 c 0
 428.090042181 340.829458592 429.419123917 345.518335528 432.222993819 349.596691749 c 2
 476.222993819 413.596691749 l 2
 480.249373997 419.453244734 487.973990434 424 496 424 c 2
 573 424 l 2
 587.169122329 424 611.610084286 440.128246698 618.896785974 457.35135978 c 0
 624.005771936 469.427144781 619.39205402 470.655682873 618.233204511 471.141749705 c 0
 617.267265249 471.54690243 615.615168979 472 613 472 c 2
 562 472 l 2
 558.063434753 472 553.579456803 473.130910506 549.923209695 475.259914756 c 0
 542.305012145 479.695931929 538.090657591 487.881620354 538.090657591 496.17248353 c 0
 538.090657591 500.856012495 539.435520434 505.573104278 542.271356005 509.666770142 c 2
 666.528772727 689.038363636 l 2
 667.643533575 690.524711433 668.370845169 692.230420835 671.147800101 697.953915732 c 0
 675.347250319 708.961726348 671.66815593 710.311927743 669.078712461 711.240742638 c 0
 667.966385538 711.639726368 666.321814207 712 664 712 c 0
 652.314392164 712 633.999963992 702.006043592 623.695476275 687.285346853 c 2
 481.729147334 482.333956481 l 2
 477.721697642 476.548553756 470.005637886 472 462 472 c 2
 386 472 l 2
 382.063434753 472 377.579456803 473.130910506 373.923209695 475.259914756 c 0
 366.305012145 479.695931929 362.090657591 487.881620354 362.090657591 496.17248353 c 0
 362.090657591 500.856012495 363.435520434 505.573104278 366.271356005 509.666770142 c 2
 490.528772727 689.038363636 l 2
 491.643533575 690.524711433 492.370845169 692.230420835 495.147800101 697.953915732 c 0
 499.347250319 708.961726348 495.66815593 710.311927743 493.078712461 711.240742638 c 0
 491.966385538 711.639726368 490.321814207 712 488 712 c 0
 476.314392164 712 457.999963992 702.006043592 447.695476275 687.285346853 c 2
 305.729147334 482.333956481 l 2
 301.721697642 476.548553756 294.005637886 472 286 472 c 2
 165 472 l 2
 150.830877671 472 126.389915714 455.871753302 119.103214026 438.64864022 c 0
 113.994228064 426.572855219 118.60794598 425.344317127 119.766795489 424.858250295 c 0
 120.732734751 424.45309757 122.384831021 424 125 424 c 2
 220 424 l 2
 223.711231137 424 228.361950459 422.8857703 232.003133574 420.782800206 c 0
 239.663654758 416.358456128 243.909957819 408.146094242 243.909957819 399.82556099 c 0
 243.909957819 395.170541408 242.580876083 390.481664472 239.777006181 386.403308251 c 2
 195.777006181 322.403308251 l 2
 191.750626003 316.546755266 184.026009566 312 176 312 c 2
 99 312 l 2
 84.8308776708 312 60.3899157143 295.871753302 53.1032140256 278.64864022 c 0
 47.9942280636 266.572855219 52.6079459795 265.344317127 53.766795489 264.858250295 c 0
 54.7327347505 264.45309757 56.384831021 264 59 264 c 2
 110 264 l 2
 113.936565247 264 118.420543197 262.869089494 122.076790305 260.740085244 c 0
 129.694987855 256.304068071 133.909342409 248.118379646 133.909342409 239.82751647 c 0
 133.909342409 235.143987505 132.564479566 230.426895722 129.728643995 226.333229858 c 2
 5.47122727311 46.9616363641 l 2
 4.3564664249 45.4752885665 3.62915483055 43.769579165 0.852199899106 38.0460842681 c 0
 -3.34725031949 27.0382736523 0.331844069972 25.6880722565 2.92128753902 24.7592573622 c 0
 4.03361446194 24.3602736324 5.67818579252 24 8 24 c 0
 19.685607836 24 38.0000360081 33.9939564083 48.3045237251 48.7146531469 c 2
 190.270852666 253.666043519 l 2
 194.278302358 259.451446244 201.994362114 264 210 264 c 2
 286 264 l 2
 289.936565247 264 294.420543197 262.869089494 298.076790305 260.740085244 c 0
 305.694987855 256.304068071 309.909342409 248.118379646 309.909342409 239.82751647 c 0
 309.909342409 235.143987505 308.564479566 230.426895722 305.728643995 226.333229858 c 2
 181.471227273 46.9616363641 l 2
 180.356466425 45.4752885665 179.629154831 43.769579165 176.852199899 38.0460842681 c 0
EndSplineSet
EndChar

StartChar: dollar
Encoding: 36 36 3
Width: 504
Flags: HW
LayerCount: 2
Back
SplineSet
453.587890625 536 m 0
 453.587890625 536 432.784179688 592 344.784179688 592 c 0
 269.784179688 592 193.315429688 545 171.362304688 492 c 0
 154.139648438 450.420898438 153.379882812 390.134765625 256.970703125 380 c 0
 370.556640625 368.887695312 370.53125 316.170898438 348.921875 264 c 0
 322.412109375 200 250.715820312 144 159.215820312 144 c 0
 75.2158203125 144 49.0390625 216 49.0390625 216 c 1024
388.548828125 688 m 1
 123.451171875 48 l 1025
EndSplineSet
Fore
SplineSet
244.454063166 179.94051928 m 0
 239.787490648 177.940559629 233.193306256 177.364835348 227.631313784 179.159193021 c 0
 217.49699523 182.428631509 211.04614168 192.103657294 211.04614168 202.21420629 c 0
 211.04614168 205.202128073 211.609527815 208.228086332 212.807725637 211.137995326 c 2
 261.807725637 330.137995326 l 2
 265.247445199 338.491599977 274.498714745 344.913566212 284.449477314 344.913566212 c 0
 287.253361748 344.913566212 290.112784265 344.403677368 292.913376232 343.283440581 c 0
 307.422354585 337.47984924 315.456235511 330.044957297 322.185198624 321.437057874 c 0
 329.205776162 312.187909506 331.940373204 302.139229818 331.940373204 291.774264594 c 0
 331.940373204 279.661973886 328.206064535 267.117770247 323.213126949 254.912811703 c 0
 312.133014294 227.828091881 292.139659483 205.660128227 266.278839075 190.37873435 c 0
 259.139844854 186.095337817 251.467458127 182.946259977 244.454063166 179.94051928 c 0
269.012317174 558.631768006 m 0
 273.265805071 560.132999028 279.344054634 560.464686094 284.380525974 558.836983959 c 0
 294.509031669 555.563622665 300.95374725 545.891786681 300.95374725 535.785698693 c 0
 300.95374725 532.793773882 300.388889676 529.763788349 299.187534215 526.850501355 c 2
 259.187534215 429.850501355 l 2
 255.428420718 420.734651124 246.244308567 415.070390998 236.739871266 415.070390998 c 0
 233.205677429 415.070390998 229.627192239 415.853588151 226.266873708 417.533747416 c 0
 208.680119896 426.327124322 196.982358477 439.200426658 192.9668004 453.25487993 c 0
 191.231133616 459.040435877 190.518704713 464.896631713 190.518704713 470.576054921 c 0
 190.518704713 481.298590987 193.058087069 491.391038503 196.045276939 499.188446223 c 0
 201.617312582 513.936189096 209.674106263 521.710124444 220.055267868 530.937823648 c 0
 220.274254276 531.132478233 220.698391931 531.493709885 221.007318859 531.740851427 c 0
 232.656393775 541.060111359 248.806844463 551.500424696 269.012317174 558.631768006 c 0
523.979830468 526.357006356 m 0
 509.497658125 492.126417182 471.7911589 464 434 464 c 0
 411.859799622 464 390.85551342 476.269969106 382.668385211 494.750982542 c 1
 358.189139512 435.89662586 l 1
 381.268969482 426.701545904 399.955294368 413.455192799 413.815961683 395.898347533 c 0
 430.269142385 375.17952739 436.097689748 351.892462943 436.097689748 329.139256652 c 0
 436.097689748 301.81547526 427.692321883 275.26157252 419.18738775 254.849730601 c 0
 397.060303111 200.638373235 352.416659319 148.784927715 293.152546639 114.303989428 c 0
 268.004456971 99.4014177726 238.057953994 87.0024413121 211.166027168 80.2690949833 c 1
 193.060213587 38.5470028196 l 2
 178.602220313 4.37356417197 142.076970027 -24 104 -24 c 0
 95.7295364298 -24 87.6474828208 -22.5256430459 80.2161608545 -19.4592109303 c 0
 58.5876927449 -10.5345230321 47.5000794342 9.64638768397 47.5000794342 31.2608327662 c 0
 47.5000794342 39.9129718904 49.2767089755 48.7948141465 52.8650378966 57.276318869 c 2
 65.0811755943 86.7061051408 l 1
 44.5907583861 95.837783711 31.4585131651 105.465712333 19.6951898952 116.388798227 c 0
 -10.4746019029 144.23783681 -21.6061646733 173.128413106 -23.8004271886 179.481294583 c 0
 -25.9532679339 185.72093802 -27.0128950171 192.180198782 -27.0128950171 198.690677544 c 0
 -27.0128950171 207.72618243 -24.9719465126 216.860338346 -20.9798304677 225.642993644 c 0
 -6.49765812503 259.873582818 31.2088410998 288 69 288 c 0
 93.1531013968 288 113.468747767 273.489303511 121.179875689 254.208841097 c 0
 121.960445865 252.59761068 125.324137729 246.540687839 129.364325985 241.318314171 c 1
 163.865625624 324.242490496 l 1
 127.559917119 339.220483099 102.869907101 363.495614852 92.2316008468 395.410533616 c 0
 87.895520799 408.418773759 86.1062313899 421.383426844 86.1062313899 433.991742552 c 0
 86.1062313899 458.47302326 92.8520507718 481.610872565 100.79852396 501.11585221 c 0
 114.785260086 534.91713118 139.247271385 564.41732754 167.497386205 588.321270849 c 0
 206.170135559 621.044366456 253.533713242 645.571645496 301.792902728 656.92399938 c 1
 318.896785974 697.35135978 l 2
 333.435331006 731.715193491 369.90919777 760 408 760 c 0
 416.27046357 760 424.352517179 758.525643046 431.783839145 755.45921093 c 0
 453.382058192 746.547004889 464.49553779 726.472424369 464.49553779 704.819116961 c 0
 464.49553779 696.109273462 462.697402864 687.143995656 459.060213587 678.54700282 c 2
 446.607972594 649.852708356 l 1
 504.593609897 625.996662051 522.704992795 582.768059224 525.572562661 576.518719567 c 0
 526.002846395 575.62327048 526.27400769 574.954676122 526.471900262 574.426962598 c 0
 528.890438394 567.977527578 530.144265185 561.047836139 530.144265185 553.901930267 c 0
 530.144265185 544.887672842 528.149081543 535.529358722 523.979830468 526.357006356 c 0
480.020169532 545.642993644 m 0
 482.28440322 550.624307758 482.266487497 554.779200289 481.696542302 557.047079032 c 0
 479.24166675 562.43400312 464.026256876 598.762914022 408.578628432 611.620335111 c 0
 400.670201509 613.454173238 390.083989704 623.376385599 390.083989704 635.648174121 c 0
 390.083989704 638.513141913 390.660974463 641.506169644 391.983719734 644.554234833 c 2
 414.939786413 697.45299718 l 2
 419.655627644 708.599530998 415.460814153 710.268783559 413.47479217 711.088288032 c 0
 412.363545557 711.54682856 410.61325736 712 408 712 c 0
 394.09080223 712 370.564668994 696.284806509 363.103214026 678.64864022 c 2
 341.103214026 626.64864022 l 2
 338.174284019 619.725714749 331.340916082 613.865225487 323.335636488 612.39486801 c 0
 279.012211373 604.253830744 234.523822148 582.158213142 198.502613795 551.678729151 c 0
 174.752728615 531.58267246 155.214739914 507.08286882 145.20147604 482.88414779 c 0
 138.569416427 466.605456012 134.262083054 449.590206183 134.262083054 433.620730185 c 0
 134.262083054 425.605036825 135.347281952 417.852817988 137.768399153 410.589466384 c 0
 144.538353365 390.279603748 163.051771252 371.975690941 201.820855001 362.283420003 c 0
 210.689743215 360.06619795 219.916119217 350.079689995 219.916119217 338.438171074 c 0
 219.916119217 335.620411637 219.375589371 332.705692914 218.158628438 329.780716635 c 2
 161.158628438 192.780716635 l 2
 157.801328085 184.711415788 148.435488788 178.144733596 138.380330637 178.144733596 c 0
 134.816769796 178.144733596 131.166630326 178.969510598 127.6666861 180.844480719 c 0
 91.9954472508 199.95407296 78.198327968 232.653192681 77.0014627497 235.404841259 c 0
 76.7834762415 235.910297279 76.6186946456 236.32039026 76.4449578363 236.798166486 c 0
 76.1823919195 237.520222757 75.2335998699 240 69 240 c 0
 54.7911589002 240 30.497658125 224.126417182 22.9798304677 206.357006356 c 0
 20.095615061 200.011732461 21.0138225177 196.648503249 21.2668323946 195.973810244 c 0
 22.7788450702 191.820525874 30.6562734027 171.594466421 52.2787224656 151.635282671 c 0
 63.8854853845 140.857574246 80.2651904881 130.132122195 103.023091811 124.231925556 c 0
 111.554447346 122.020092639 120.910797953 112.088370716 120.910797953 100.402410656 c 0
 120.910797953 97.6077165723 120.37568404 94.7126930684 119.166199924 91.7989358806 c 2
 97.1349621034 38.723681131 l 2
 92.2921691013 27.2770794897 96.5395026592 25.7310857127 98.52520783 24.911711968 c 0
 99.6364544426 24.4531714396 101.38674264 24 104 24 c 0
 117.923029973 24 141.397779687 39.626435828 148.939786413 57.4529971804 c 2
 171.983719734 110.554234833 l 2
 174.777314344 116.991648499 181.448972676 122.9650882 189.293212757 124.533936217 c 0
 216.34108808 129.943511281 243.829049952 140.870290034 268.847453361 155.696010572 c 0
 319.583340681 185.215072285 356.939696889 229.361626765 374.81261225 273.150269399 c 0
 382.691354062 292.05924975 387.676505196 311.387866781 387.676505196 328.677598762 c 0
 387.676505196 343.011710253 384.250063365 355.944435739 376.20533966 366.074828554 c 0
 365.129314729 380.104460133 348.873134635 390.543082588 320.179144999 397.716579997 c 0
 311.313373571 399.933022853 302.08388466 409.919075672 302.08388466 421.562053333 c 0
 302.08388466 424.378854841 302.624093906 427.292637464 303.840356357 430.216842931 c 2
 350.840356357 543.216842931 l 2
 354.266849837 551.455008106 363.50651914 557.909729916 373.47073108 557.909729916 c 0
 376.265374187 557.909729916 379.117011503 557.401986473 381.913376232 556.283440581 c 0
 388.803364806 553.527445152 395.44577208 549.16567094 399.035574373 546.47331922 c 0
 415.066808368 535.374772608 422.931191265 524.419008061 426.690495847 513.930548276 c 1
 426.690495847 513.930548276 427.568245996 512 434 512 c 0
 448.2088411 512 472.502341875 527.873582818 480.020169532 545.642993644 c 0
EndSplineSet
EndChar

StartChar: percent
Encoding: 37 37 5
Width: 864
Flags: HW
LayerCount: 2
Back
SplineSet
669.157226562 168 m 0
 641.705078125 101.725585938 562.143554688 48 491.451171875 48 c 0
 420.758789062 48 385.705078125 101.725585938 413.157226562 168 c 0
 440.609375 234.274414062 520.170898438 288 590.86328125 288 c 0
 661.555664062 288 696.609375 234.274414062 669.157226562 168 c 0
450.842773438 568 m 0
 423.390625 501.725585938 343.829101562 448 273.13671875 448 c 0
 202.444335938 448 167.390625 501.725585938 194.842773438 568 c 0
 222.294921875 634.274414062 301.856445312 688 372.548828125 688 c 0
 443.241210938 688 478.294921875 634.274414062 450.842773438 568 c 0
123.451171875 48 m 1
 740.548828125 688 l 1025
EndSplineSet
Fore
SplineSet
104 -24 m 0
 96.1884238891 -24 88.5475129383 -22.6862368098 81.4594941596 -19.9551617545 c 0
 58.2962397222 -11.0301591031 47.56384556 11.1738253832 47.56384556 32.4098766196 c 0
 47.56384556 40.0651056507 48.9584963028 47.5945539095 51.6682349703 54.3308399817 c 0
 59.5465995721 73.9516598459 64.614758809 78.555884306 73.8741905217 87.8153160187 c 2
 389.589116937 415.29919431 l 1
 349.966754868 392.555894696 258.085016974 375.568230601 252.324409636 375.568230601 c 0
 251.799422759 375.568230601 251.989705982 375.70931988 253 376 c 1
 228.860555013 376 206.536653247 380.170645791 186.860158078 388.352902302 c 0
 137.371358612 408.932281311 109.636752836 453.198100666 109.636752836 506.381938262 c 0
 109.636752836 528.809062719 114.56860262 552.822015606 124.880750997 577.313368001 c 0
 168.794748151 681.609111244 286.098926093 760 392 760 c 0
 416.406142077 760 438.992621516 755.736586007 458.883500362 747.390968491 c 0
 508.275195102 726.667691456 536.234037361 682.339314656 536.234037361 629.066984873 c 0
 536.234037361 606.811525057 531.354384288 582.995078299 521.119249003 558.686631999 c 0
 519.247123771 554.240334572 517.240128399 549.841421999 515.104971704 545.493922107 c 2
 690.58710303 727.517526725 l 2
 708.496413189 746.706073324 734.714198749 760 761 760 c 0
 768.810014577 760 776.459572544 758.686389711 783.555029256 755.910002605 c 0
 806.334634143 746.996552233 816.504909887 725.838948594 816.504909887 704.761106673 c 0
 816.504909887 696.394985585 814.902665592 688.041430308 811.85069297 680.471065146 c 0
 805.020418928 663.46048194 798.922909104 656.981783607 790.125809478 648.184683981 c 2
 474.410883063 320.70080569 l 1
 517.644187333 345.51679194 565.478235317 360 611 360 c 0
 635.139444987 360 657.463346753 355.829354209 677.139841922 347.647097698 c 0
 726.628641388 327.067718689 754.363247164 282.801899334 754.363247164 229.618061738 c 0
 754.363247164 207.190937281 749.43139738 183.177984394 739.119249003 158.686631999 c 0
 695.205251849 54.3908887559 577.901073907 -24 472 -24 c 0
 447.593857923 -24 425.007378484 -19.736586007 405.116499638 -11.3909684906 c 0
 355.724804898 9.33230854374 327.765962639 53.6606853445 327.765962639 106.933015127 c 0
 327.765962639 129.188474943 332.645615712 153.004921701 342.880750997 177.313368001 c 0
 344.752876229 181.759665428 346.759871601 186.158578001 348.895028296 190.506077893 c 2
 173.41289697 8.48247327546 l 2
 155.852514832 -10.332221872 130.49396143 -24 104 -24 c 0
104 24 m 0
 113.50603857 24 128.147485168 30.332221872 138.58710303 41.5175267245 c 2
 755.874190522 681.815316019 l 2
 761.831107242 687.772232739 765.095547843 692.606824211 766.702857798 696.89298409 c 0
 772.141206396 709.747262594 767.391769029 710.65580241 766.233204511 711.141749705 c 0
 765.267265249 711.54690243 763.615168979 712 761 712 c 0
 751.285801251 712 735.503586811 705.293926676 725.41289697 694.482473275 c 2
 108.125809478 54.1846839813 l 2
 102.168892758 48.227767261 98.9044521569 43.3931757891 97.2971422021 39.1070159097 c 0
 92.178904926 27.0093641663 96.5401900393 25.7308020748 98.52520783 24.911711968 c 0
 99.6364544426 24.4531714396 101.38674264 24 104 24 c 0
476.880750997 577.313368001 m 0
 485.197465555 597.065565076 488.970167102 614.873178747 488.970167102 630.584425766 c 0
 488.970167102 665.99297383 469.807878618 690.753665959 440.312518264 703.129036496 c 0
 427.028191272 708.70274256 410.83103741 712 392 712 c 0
 307.901073907 712 205.205251849 644.390888756 169.119249003 558.686631999 c 0
 160.701146251 538.693637962 156.88454747 520.706595411 156.88454747 504.874084724 c 0
 156.88454747 469.498657399 175.938291076 444.879377123 205.2904403 432.673605108 c 0
 218.390983978 427.225886503 234.374171675 424 253 424 c 0
 337.169605926 424 440.841696165 491.720612777 476.880750997 577.313368001 c 0
380.758257563 577.01692261 m 0
 383.193702246 583.024352829 384.161711259 588.321195929 384.161711259 592.911738423 c 0
 384.161711259 605.266362363 378.618880718 616 353 616 c 0
 316.729569291 616 276.236744695 586.104082959 265.241742437 558.98307739 c 0
 262.806297754 552.975647171 261.838288741 547.678804071 261.838288741 543.088261577 c 0
 261.838288741 530.733637637 267.381119282 520 293 520 c 0
 329.270430709 520 369.763255305 549.895917041 380.758257563 577.01692261 c 0
425.241742437 558.98307739 m 0
 406.236744695 512.104082959 350.729569291 472 293 472 c 0
 246.321027131 472 213.83844844 502.693913093 213.83844844 543.154877521 c 0
 213.83844844 554.618971788 216.269589777 565.944875405 220.758257563 577.01692261 c 0
 239.763255305 623.895917041 295.270430709 664 353 664 c 0
 399.678972869 664 432.16155156 633.306086907 432.16155156 592.845122479 c 0
 432.16155156 581.381028212 429.730410223 570.055124595 425.241742437 558.98307739 c 0
694.880750997 177.313368001 m 0
 703.298853749 197.306362038 707.11545253 215.293404589 707.11545253 231.125915276 c 0
 707.11545253 266.501342601 688.061708924 291.120622877 658.7095597 303.326394892 c 0
 645.609016022 308.774113497 629.625828325 312 611 312 c 0
 526.830394074 312 423.158303835 244.279387223 387.119249003 158.686631999 c 0
 378.802534445 138.934434924 375.029832898 121.126821253 375.029832898 105.415574234 c 0
 375.029832898 70.0070261697 394.192121382 45.2463340409 423.687481736 32.8709635043 c 0
 436.971808728 27.2972574403 453.16896259 24 472 24 c 0
 556.098926093 24 658.794748151 91.6091112441 694.880750997 177.313368001 c 0
598.758257563 177.01692261 m 0
 601.19595151 183.029901014 602.150736358 188.31703206 602.161711259 192.911738423 c 0
 602.161711259 205.266362363 596.618880718 216 571 216 c 0
 534.729569291 216 494.236744695 186.104082959 483.241742437 158.98307739 c 0
 480.806297754 152.975647171 479.838288741 147.678804071 479.838288741 143.088261577 c 0
 479.838288741 130.733637637 485.381119282 120 511 120 c 0
 547.270430709 120 587.763255305 149.895917041 598.758257563 177.01692261 c 0
643.241742437 158.98307739 m 0
 624.236744695 112.104082959 568.729569291 72 511 72 c 0
 464.321027131 72 431.83844844 102.693913093 431.83844844 143.154877521 c 0
 431.83844844 154.618971788 434.269589777 165.944875405 438.758257563 177.01692261 c 0
 457.763255305 223.895917041 513.270430709 264 571 264 c 0
 617.678972869 264 650.16155156 233.306086907 650.16155156 192.845122479 c 0
 650.16155156 181.381028212 647.730410223 170.055124595 643.241742437 158.98307739 c 0
EndSplineSet
EndChar

StartChar: ampersand
Encoding: 38 38 6
Width: 784
Flags: HW
LayerCount: 2
Back
SplineSet
543.451171875 48 m 0
 642.86328125 288 535.053710938 414 319.053710938 414 c 0
 215.053710938 414 171.764648438 464 208.21484375 552 c 0
 234.724609375 616 323.862304688 696 475.862304688 696 c 0
 619.862304688 696 658.0390625 624 628.21484375 552 c 0
 598.391601562 480 512.475585938 414.848632812 404.05078125 406.75 c 1024
669.657226562 372 m 0
 669.657226562 372 568.118164062 320 475.098632812 192 c 0
 382.079101562 64 273.309570312 40 180.137695312 40 c 0
 44.1376953125 40 8.5888671875 128 48.353515625 224 c 0
 98.05859375 344 238.578125 409.096679688 319.053710938 414 c 1024
EndSplineSet
Fore
SplineSet
340 486 m 2
 369.659938988 486 399.117281176 483.890758049 425.810365186 479.241137534 c 1
 459.959676653 483.470918643 485.174188343 493.740907092 505.704987853 505.612170955 c 0
 534.356213379 523.370890828 550.147191074 541.989955371 557.716559419 560.913376232 c 0
 562.328249495 572.442601423 562.512756153 581.682036695 559.789935811 588.906892448 c 0
 557.024679536 595.254103615 552.251639047 601.541364746 538.266873708 608.533747416 c 0
 522.280765487 616.526801527 496.051541128 624 456 624 c 0
 399.793852844 624 359.750965553 610.933848295 333.353352066 596.855121102 c 0
 300.617178394 579.15989209 283.853572265 557.011952976 278.141242054 542.73112745 c 0
 272.052530438 528.814072328 271 519.944029276 271 513 c 0
 271 506.944734903 271.453446455 505.818966472 277.113147554 500.788121051 c 0
 283.723777923 494.68600071 302.172169137 486 338 486 c 2
 339 486 l 1
 340 486 l 2
340 438 m 2
 339 438 l 1
 338 438 l 2
 295.827830863 438 264.276222077 447.31399929 244.886852446 465.211878949 c 0
 232.546553545 476.181033528 223 493.055265097 223 513 c 0
 223 526.055970724 225.947469562 543.185927672 233.858757946 561.26887255 c 0
 244.146427735 586.988047024 269.382821606 616.84010791 310.646647934 639.144878898 c 0
 344.249034447 657.066151705 392.206147156 672 456 672 c 0
 501.948458872 672 535.719234513 663.473198473 559.733126292 651.466252584 c 0
 581.597870747 640.533880357 596.57095175 625.4297158 604.219776856 607.072535545 c 0
 608.051042258 597.494372041 609.634802528 587.963799702 609.634802528 578.756171833 c 0
 609.634802528 566.002882859 606.596448842 553.869144419 602.283440581 543.086623768 c 0
 589.794237063 511.863614971 564.902285332 485.597412616 530.318657669 464.400995662 c 0
 503.242163478 448.60637405 469.277407533 435.528182046 427.512434828 431.13186913 c 0
 425.679078904 430.938884296 422.848461978 430.990379247 420.629857756 431.40123188 c 0
 395.431899496 436.067520447 368.940903694 438 340 438 c 2
470.254272177 288.006623108 m 1
 438.841196309 320.929155627 382.999402274 341.5971801 302.193825714 341.999857052 c 0
 284.323144942 340.101902297 255.863830398 332.718408281 229.267702967 320.306882146 c 0
 205.566124733 308.930124594 183.691233391 296.033412339 165.90288 280.023894287 c 0
 144.705813056 261.591662162 128.789514493 241.351808548 118.18822307 214.848579989 c 0
 111.438658097 198.967250641 108.490317137 185.178403517 108.490317137 173.367218676 c 0
 108.490317137 158.8084298 112.969938118 147.254441785 120.331886187 138.490217893 c 0
 131.619357317 125.210840093 153.583228378 112 200 112 c 0
 236.466914845 112 271.250300293 115.878443839 301.648911014 127.501442056 c 0
 346.585227087 143.678515842 380.295899287 172.422319789 415.676947043 220.234546487 c 0
 433.28039053 244.23924215 453.150736396 268.887012267 470.254272177 288.006623108 c 1
520.740851427 301.992681141 m 2
 523.875935961 298.073825473 525.713896683 292.559578629 525.713896683 286.876540407 c 0
 525.713896683 281.053590369 523.784323745 275.053435632 519.343404572 270.410656497 c 0
 498.26091652 248.369873534 475.885074655 221.168210375 454.323052957 191.765453513 c 0
 415.704100713 139.577680211 373.414772913 102.321484158 318.351088985 82.4985579441 c 0
 280.749699707 68.121556161 239.533085155 64 200 64 c 0
 144.416771622 64 106.380642683 80.7891599073 83.6681138131 107.509782107 c 0
 67.8169964519 126.380159918 60.6938728535 149.178996206 60.6938728535 173.323062566 c 0
 60.6938728535 192.841621084 65.3491455927 213.239346276 73.8117769302 233.151420011 c 0
 87.2104855067 266.648191452 109.294186944 294.408337838 134.09712 315.976105713 c 0
 156.308766609 335.966587661 182.433875267 351.069875406 208.732297033 363.693117854 c 0
 241.571020791 379.017855608 274.125811855 387.54915135 298.724581777 389.891891342 c 0
 299.264183098 389.943281944 300.274256004 390 301 390 c 0
 391.71683406 390 464.280670749 366.322589766 507.817434821 318.079148497 c 0
 508.042502482 317.829749198 508.457804175 317.346490206 508.740851427 316.992681141 c 2
 520.740851427 301.992681141 l 2
698.160292697 542.78411077 m 0
 676.677709382 490.478690526 634.899130359 441.833881391 585.692819423 406.141258839 c 1
 588.339639076 403.73837883 592.290232477 399.857847636 593.588822607 398.520880642 c 0
 624.302616488 420.278129819 642.598841857 429.655670056 647.126705272 432.255451207 c 0
 647.902086579 432.745034737 648.761930037 433.213780749 649.266873708 433.466252584 c 0
 661.491030054 439.578330757 675.134853073 444 690 444 c 0
 698.268551951 444 706.36118256 442.525569176 713.799258039 439.405749257 c 0
 735.297855925 430.388396032 745.623372739 410.440311481 745.623372739 389.361484695 c 0
 745.623372739 380.4478745 743.776970986 371.332065762 740.148258066 362.755107952 c 0
 730.608452936 339.587009778 710.934250724 322.238573778 691.905311869 311.691104813 c 0
 686.780078847 308.288639192 683.000896158 306.553141605 674.100390373 300.889183378 c 0
 668.772547209 297.337287935 658.499332787 290.189869704 650.750943188 284.373751721 c 1
 654.251062588 265.944055357 655.99552576 246.856823461 655.99552576 227.075925468 c 0
 655.99552576 170.299838091 641.624071408 107.809104047 613.145834125 38.7493786369 c 0
 598.527449816 4.19683390722 562.104512088 -24 524 -24 c 0
 515.72953643 -24 507.647482821 -22.5256430459 500.216160855 -19.4592109303 c 0
 478.585579963 -10.533651222 467.499770198 9.65467699741 467.499770198 31.2663989511 c 0
 467.499770198 39.914514074 469.274906083 48.7905527631 472.859845513 57.264045963 c 0
 480.787345625 76.4221712324 487.608053777 95.8636068933 492.31423623 111.971438886 c 1
 476.245251068 94.4689780877 460.820996421 79.830133498 444.264378324 66.4780221292 c 0
 404.311053873 32.8331173291 360.601000918 9.32863394063 320.249417779 -5.53773879451 c 0
 261.756054551 -26.8080526956 206.796326933 -32 160 -32 c 0
 85.5140658925 -32 27.4123366935 -9.42449411383 -7.42484729319 32.6203831115 c 0
 -32.0151642198 61.8629221594 -43.0815874342 97.8967048271 -43.0815874342 136.335451359 c 0
 -43.0815874342 167.821337313 -35.6565153053 200.920845827 -22.1569762418 233.2233143 c 0
 10.6814527008 312.42187822 73.9419110438 373.538912072 135.17748251 413.678342238 c 1
 124.405364512 432.888646998 118.965544538 454.322980779 118.965544538 477.926354441 c 0
 118.965544538 503.215561166 125.210175486 530.994713078 137.831682763 561.196176919 c 0
 161.270234818 618.118374767 213.19512188 676.728516794 287.52866056 717.08100922 c 0
 346.134321418 749.047733325 417.16369185 768 496 768 c 0
 598.54898063 768 675.663684371 735.708613579 703.180018218 668.168521408 c 0
 710.223256936 651.373106005 713.551905576 633.292672589 713.551905576 614.699842239 c 0
 713.551905576 591.027008951 708.155837485 566.523529643 698.160292697 542.78411077 c 0
653.839707303 561.21588923 m 0
 661.777597603 580.068378691 665.519637214 598.132820006 665.519637214 614.563476652 c 0
 665.519637214 627.462878538 663.213220975 639.355292822 658.819981782 649.831478592 c 0
 642.336315629 690.291386421 591.45101937 720 496 720 c 0
 424.847226369 720 361.841741913 702.93921031 310.492451136 674.93050625 c 0
 244.783107624 639.259719772 200.73286665 587.88915737 182.168317237 542.803823081 c 0
 171.292631912 516.779861769 166.813956699 495.345506727 166.813956699 477.654252639 c 0
 166.813956699 453.311001743 175.293832266 436.054898006 187.255721025 423.680530324 c 0
 187.296502587 423.638342502 189.019891354 421.690220263 189.730712434 420.663783768 c 0
 192.565181077 416.570767759 193.909368523 411.85487998 193.909368523 407.172567727 c 0
 193.909368523 398.880438806 189.693654126 390.693611289 182.073650853 386.258086996 c 0
 118.175714256 349.063765693 53.4027887379 290.134233485 22.1698107257 214.807639455 c 0
 10.470725219 186.813399136 4.84007410994 160.435986411 4.84007410994 136.716645927 c 0
 4.84007410994 107.63576158 13.303936971 82.5504291635 29.4248472932 63.3796168885 c 0
 52.5876633065 35.4244941138 94.4859341075 16 160 16 c 0
 203.203673067 16 252.243945449 20.8080526956 303.750582221 39.5377387945 c 0
 339.398999082 52.6713660594 377.688946127 73.1668826709 413.735621676 103.521977871 c 0
 443.093873029 127.197987026 470.458284172 157.318122659 495.543698518 192.051773292 c 0
 495.773453563 192.369895662 496.224435955 192.95852159 496.56268929 193.364425592 c 0
 500.519492567 198.112589524 504.519492567 204.112589524 510.56268929 211.364425592 c 0
 514.129562056 215.644672912 520.247989291 219.223702458 526.534201814 219.872993933 c 0
 527.341048954 219.956331708 528.143322778 219.997039827 528.938840109 219.997039827 c 0
 541.673211807 219.997039827 552.676264876 209.565779509 552.992864575 196.585191819 c 0
 553.040153305 194.646353893 553.063782461 192.696560297 553.063782461 190.735650592 c 0
 553.063782461 146.376712447 540.971861631 96.3292463017 517.140154487 38.7359540369 c 0
 512.288542818 27.2685082743 516.539524666 25.7310766317 518.52520783 24.911711968 c 0
 519.636454443 24.4531714396 521.38674264 24 524 24 c 0
 537.895487912 24 561.472550184 39.8031660928 568.854165875 57.2506213631 c 0
 595.615977411 122.148014339 607.88658546 179.436890808 607.88658546 228.109979091 c 0
 607.88658546 249.822083969 605.444886409 269.81975369 600.758598243 288.013578335 c 0
 598.752404117 295.802331999 601.346735283 306.612384566 609.007318859 312.740851427 c 0
 624.846477738 325.41217853 638.044801318 334.540944416 647.899609627 341.110816622 c 0
 656.692481638 346.706280629 662.287454939 349.821301342 664.618753167 351.215146315 c 0
 665.394815209 351.785690185 666.702533996 352.645413144 667.77069471 353.210909992 c 0
 681.126385504 360.281569824 691.578730951 370.867579661 695.851741934 381.244892048 c 0
 701.037229538 393.501499112 696.391987825 394.655710638 695.233204511 395.141749705 c 0
 694.267265249 395.54690243 692.615168979 396 690 396 c 0
 684.869857508 396 680.030837609 394.958336937 671.611621116 390.96950315 c 0
 666.230948705 387.801496636 640.900306503 374.874907525 604.63305826 346.977024261 c 0
 600.856124575 344.071690657 595.536396972 342.383279347 590.024523133 342.383279347 c 0
 582.994961576 342.383279347 575.65287138 345.129504827 570.8 351.6 c 0
 568.199156782 355.067790958 564.655587356 359.403287147 562.029437252 362.029437252 c 0
 561.83964274 362.219231763 561.485372729 362.587525005 561.241438238 362.855852944 c 0
 553.286969232 371.605768852 542.621175631 379.784118277 530.6 388.8 c 0
 529.16426191 389.876803568 526.859382033 392.100347017 525.452387374 394.075530867 c 0
 522.497001766 398.224395177 521.092871936 403.045939919 521.092871936 407.835070783 c 0
 521.092871936 416.016244128 525.190429342 424.1028267 532.65210187 428.579830217 c 0
 588.926300833 462.344349595 633.18901785 510.935949691 653.839707303 561.21588923 c 0
EndSplineSet
EndChar

StartChar: quotesingle
Encoding: 39 39 7
Width: 224
Flags: HW
LayerCount: 2
Back
SplineSet
244.548828125 688 m 1
 158.391601562 480 l 1025
EndSplineSet
Fore
SplineSet
174.877686655 697.306215933 m 2
 189.452010014 731.754616601 225.903053979 760 264 760 c 0
 272.27046357 760 280.352517179 758.525643046 287.783839145 755.45921093 c 0
 309.407166779 746.536644178 320.499169874 726.373785551 320.499169874 704.752719765 c 0
 320.499169874 696.09078659 318.718901636 687.194810936 315.122313345 678.693784067 c 2
 228.122313345 470.693784067 l 2
 213.547989986 436.245383399 177.096946021 408 139 408 c 0
 130.72953643 408 122.647482821 409.474356954 115.216160855 412.54078907 c 0
 93.5928332207 421.463355822 82.5008301257 441.626214449 82.5008301257 463.247280235 c 0
 82.5008301257 471.90921341 84.2810983635 480.805189064 87.8776866546 489.306215933 c 2
 174.877686655 697.306215933 l 2
219.122313345 678.693784067 m 2
 132.141228102 470.739005554 l 2
 127.287479257 459.266508285 131.539727514 457.73099293 133.52520783 456.911711968 c 0
 134.636454443 456.45317144 136.38674264 456 139 456 c 0
 152.90919777 456 176.435331006 471.715193491 183.896785974 489.35135978 c 2
 270.858771898 697.260994446 l 2
 275.712520743 708.733491715 271.460272486 710.26900707 269.47479217 711.088288032 c 0
 268.363545557 711.54682856 266.61325736 712 264 712 c 0
 250.09080223 712 226.583768314 696.329950355 219.122313345 678.693784067 c 2
EndSplineSet
EndChar

StartChar: parenleft
Encoding: 40 40 8
Width: 344
Flags: HW
LayerCount: 2
Back
SplineSet
397.685546875 768 m 0
 397.685546875 768 208.09765625 600 112 368 c 0
 15.90234375 136 66.314453125 -32 66.314453125 -32 c 1024
EndSplineSet
Fore
SplineSet
418 840 m 0
 426.268551951 840 434.36118256 838.525569176 441.799258039 835.405749257 c 0
 463.316859135 826.380425342 473.625279311 806.366539599 473.625279311 785.310256684 c 0
 473.625279311 776.432571114 471.792845839 767.369588142 468.195488196 758.866742805 c 0
 462.364055681 744.288161516 452.063050769 731.945126251 440.819633927 721.950977947 c 0
 440.218165416 721.4311739 390.956781675 678.763548713 326.762931911 598.034919464 c 0
 275.752721219 534.2721561 221.018255411 452.043812987 182.153846154 358.769230769 c 0
 143.349817838 265.639562812 130.912181832 184.776766137 128.986665527 122.197486212 c 0
 128.723262403 114.909999778 128.603914727 107.946773249 128.603914727 101.311092713 c 0
 128.603914727 37.4449714991 139.659560326 3.92072664977 139.742154392 3.66813489479 c 0
 139.983890089 2.94355736453 140.167442432 2.2847652886 140.283420003 1.82085500087 c 0
 141.506569406 -3.07174261034 142.079332886 -7.97102172881 142.079332886 -12.8639580192 c 0
 142.079332886 -22.3424202472 139.929959019 -31.7970801389 136.195488196 -41.1332571955 c 0
 121.309339001 -76.3187007474 83.8605819253 -104 46 -104 c 0
 20.6391328075 -104 0.814866833082 -88.5411630681 -6.59818526799 -68.1180084171 c 0
 -9.74332475374 -59.7520115611 -23.3705229769 -11.7508017577 -23.3705229769 66.7751266402 c 0
 -23.3705229769 74.1575023984 -23.2500824332 81.8096631588 -22.9891689438 89.7240390041 c 0
 -20.9186801697 165.296879258 -5.31167279597 263.436998825 41.8284659887 377.188203284 c 0
 89.0436930016 491.120598902 155.294611967 587.778911907 214.244028492 661.973867188 c 0
 287.642408551 753.470477946 347.167485913 808.617804197 354.945917496 814.704945824 c 0
 373.096512552 829.910084315 394.51855394 840 418 840 c 0
418 792 m 0
 409.719656001 792 396.17833401 786.828705298 385.618992963 777.777841543 c 0
 385.454549375 777.636889897 384.995122463 777.254631267 384.544399306 776.909003465 c 0
 377.87743104 771.187703028 319.498369053 716.472135231 251.755971508 632.026132812 c 0
 194.705388033 560.221088093 130.956306998 466.879401098 86.1715340113 358.811796716 c 0
 41.311672796 250.563001175 26.9186801697 158.703120742 24.9891689438 88.2759609959 c 0
 24.7576692652 81.2538040796 24.6512038127 74.449188115 24.6512038127 67.8728807382 c 0
 24.6512038127 -1.16055055741 36.3829705029 -45.0359327211 38.3674431076 -51.2980159412 c 0
 38.504373345 -51.6572436067 38.6440899459 -52.0376059936 38.7683991532 -52.4105336156 c 0
 39.5940603846 -54.8875173099 39.0031014437 -56 46 -56 c 0
 60.0056913616 -56 84.0073671367 -40.5486045113 91.81514594 -22.8439995862 c 0
 93.7880107389 -17.6440474768 94.2131654458 -12.6947714963 93.8234876267 -10.3237835244 c 0
 91.4445284988 -2.65459949685 80.6039436231 35.760469986 80.6039436231 101.420361725 c 0
 80.6039436231 108.560409177 80.7321337525 116.022627189 81.0133344729 123.802513788 c 0
 83.0878181675 191.223233863 96.6501821616 278.360437188 137.846153846 377.230769231 c 0
 178.989693371 475.975264091 236.219557437 561.69319222 289.259148573 627.992681141 c 0
 355.920196983 711.823999595 407.931419539 756.969653916 409.252958368 758.111760641 c 0
 415.819565865 764.070393339 421.633524862 771.70578984 423.804511804 777.133257195 c 0
 429.070213848 789.579462026 424.391918417 790.655739751 423.233204511 791.141749705 c 0
 422.267265249 791.54690243 420.615168979 792 418 792 c 0
EndSplineSet
EndChar

StartChar: parenright
Encoding: 41 41 9
Width: 344
Flags: HW
LayerCount: 2
Back
SplineSet
245.685546875 768 m 0
 245.685546875 768 296.09765625 600 200 368 c 0
 103.90234375 136 -85.685546875 -32 -85.685546875 -32 c 1024
EndSplineSet
Fore
SplineSet
220.18485406 758.843999586 m 0
 218.211989261 753.644047477 217.786834554 748.694771496 218.176512373 746.323783524 c 0
 220.555471501 738.654599497 231.396056377 700.239530014 231.396056377 634.579638275 c 0
 231.396056377 627.439590823 231.267866248 619.977372811 230.986665527 612.197486212 c 0
 228.912181832 544.776766137 215.349817838 457.639562812 174.153846154 358.769230769 c 0
 133.010306629 260.024735909 75.7804425634 174.30680778 22.7408514266 108.007318859 c 0
 -43.9201969826 24.1760004047 -95.9314195392 -20.9696539158 -97.2529583681 -22.1117606413 c 0
 -103.819565865 -28.0703933389 -109.633524862 -35.7057898397 -111.804511804 -41.1332571955 c 0
 -117.070213848 -53.5794620263 -112.391918417 -54.6557397507 -111.233204511 -55.141749705 c 0
 -110.267265249 -55.5469024299 -108.615168979 -56 -106 -56 c 0
 -97.7196560014 -56 -84.1783340097 -50.8287052976 -73.6189929629 -41.7778415432 c 0
 -73.4545493753 -41.6368898967 -72.9951224627 -41.2546312671 -72.5443993061 -40.9090034654 c 0
 -65.8774310401 -35.1877030276 -7.49836905286 19.5278647691 60.2440284919 103.973867188 c 0
 117.294611967 175.778911907 181.043693002 269.120598902 225.828465989 377.188203284 c 0
 270.688327204 485.436998825 285.08131983 577.296879258 287.010831056 647.724039004 c 0
 287.242330735 654.74619592 287.348796187 661.550811885 287.348796187 668.127119262 c 0
 287.348796187 737.160550557 275.617029497 781.035932721 273.632556892 787.298015941 c 0
 273.495626655 787.657243607 273.355910054 788.037605994 273.231600847 788.410533616 c 0
 272.405939615 790.88751731 272.996898556 792 266 792 c 0
 251.994308638 792 227.992632863 776.548604511 220.18485406 758.843999586 c 0
175.804511804 777.133257195 m 0
 190.690660999 812.318700747 228.139418075 840 266 840 c 0
 291.360867193 840 311.185133167 824.541163068 318.598185268 804.118008417 c 0
 321.743324754 795.752011561 335.370522977 747.750801758 335.370522977 669.22487336 c 0
 335.370522977 661.842497602 335.250082433 654.190336841 334.989168944 646.275960996 c 0
 332.91868017 570.703120742 317.311672796 472.563001175 270.171534011 358.811796716 c 0
 222.956306998 244.879401098 156.705388033 148.221088093 97.7559715081 74.0261328121 c 0
 24.3575914493 -17.4704779462 -35.1674859133 -72.6178041973 -42.9459174961 -78.7049458245 c 0
 -61.0965125518 -93.9100843152 -82.5185539401 -104 -106 -104 c 0
 -114.268551951 -104 -122.36118256 -102.525569176 -129.799258039 -99.4057492574 c 0
 -151.316859135 -90.380425342 -161.625279311 -70.3665395987 -161.625279311 -49.310256684 c 0
 -161.625279311 -40.4325711137 -159.792845839 -31.3695881422 -156.195488196 -22.8667428045 c 0
 -150.364055681 -8.28816151649 -140.063050769 4.05487374872 -128.819633927 14.0490220528 c 0
 -128.218165416 14.5688261003 -78.956781675 57.2364512872 -14.7629319106 137.965080536 c 0
 36.2472787806 201.7278439 90.9817445887 283.956187013 129.846153846 377.230769231 c 0
 168.650182162 470.360437188 181.087818168 551.223233863 183.013334473 613.802513788 c 0
 183.276737597 621.090000222 183.396085273 628.053226751 183.396085273 634.688907287 c 0
 183.396085273 698.555028501 172.340439674 732.07927335 172.257845608 732.331865105 c 0
 172.016109911 733.056442635 171.832557568 733.715234711 171.716579997 734.179144999 c 0
 170.518937635 738.969714445 169.964587802 743.828663145 169.964587802 748.69093653 c 0
 169.964587802 758.32746165 172.142027265 767.977045848 175.804511804 777.133257195 c 0
EndSplineSet
EndChar

StartChar: asterisk
Encoding: 42 42 10
Width: 512
Flags: HW
LayerCount: 2
Back
SplineSet
459.184570312 684.708007812 m 1
 211.873046875 435.291992188 l 1025
315.184570312 684.708007812 m 1
 355.873046875 435.291992188 l 1025
191.529296875 560 m 1
 479.529296875 560 l 1025
EndSplineSet
Fore
SplineSet
479 757 m 0
 487.268551951 757 495.36118256 755.525569176 502.799258039 752.405749257 c 0
 524.246545611 743.409917586 534.618402736 723.640041313 534.618402736 702.500766212 c 0
 534.618402736 693.489821835 532.733812389 684.230054534 529.019125863 675.449886382 c 0
 523.987630399 664.129021587 517.417124171 653.475998674 508.05137312 644.110247623 c 2
 496.169620735 632 l 1
 499 632 l 2
 507.27046357 632 515.352517179 630.525643046 522.783839145 627.45921093 c 0
 544.399421677 618.539840088 555.498043355 598.404193849 555.498043355 576.773165479 c 0
 555.498043355 568.096466321 553.712280466 559.179160897 550.103214026 550.64864022 c 0
 535.389915714 515.871753302 497.830877671 488 460 488 c 2
 426.894508589 488 l 1
 430.745354895 462.488143219 l 2
 431.188058317 459.389219267 431.485565015 455.876733876 431.485565015 452.084158108 c 0
 431.485565015 444.041385234 430.147615196 434.738987381 426.019125863 425.449886382 c 0
 411.463344147 391.045311417 373.803808599 363 336 363 c 0
 308.819797093 363 284.150744165 380.239163362 280.254645105 407.511856781 c 2
 279.362623751 413.421498254 l 1
 259.970562748 394.029437252 l 2
 242.683516935 376.742391438 218.708341811 363 192 363 c 0
 183.731448049 363 175.63881744 364.474430824 168.200741961 367.594250743 c 0
 146.753454389 376.590082414 136.381597264 396.359958687 136.381597264 417.499233788 c 0
 136.381597264 426.510178165 138.266187611 435.769945466 141.980874137 444.550113618 c 0
 147.036925722 455.926229685 153.485885427 466.427010924 163.029437252 475.970562748 c 2
 175.058874503 488 l 1
 172 488 l 2
 163.731448049 488 155.63881744 489.474430824 148.200741961 492.594250743 c 0
 126.720148871 501.604052052 116.378401015 521.489693436 116.378401015 542.589801682 c 0
 116.378401015 551.537510862 118.238124171 560.7036137 121.896785974 569.35135978 c 0
 136.435331006 603.715193491 172.90919777 632 211 632 c 2
 244.105491411 632 l 1
 240.254645105 657.511856781 l 2
 239.811941683 660.610780733 239.514434985 664.123266124 239.514434985 667.915841892 c 0
 239.514434985 675.958614766 240.852384804 685.261012619 244.980874137 694.550113618 c 0
 259.536655853 728.954688583 297.196191401 757 335 757 c 0
 362.180202907 757 386.849255835 739.760836638 390.745354895 712.488143219 c 2
 391.637376249 706.578501746 l 1
 411.029437252 725.970562748 l 2
 428.316483065 743.257608562 452.291658189 757 479 757 c 0
479 709 m 0
 469.708341811 709 455.683516935 702.742391438 444.970562748 692.029437252 c 2
 391.970562748 639.029437252 l 2
 388.993839007 636.05271351 384.79087146 633.63582069 380.432901939 632.623011817 c 0
 378.665430665 632.212244697 376.893978263 632.016004011 375.145485329 632.016004011 c 0
 363.60079353 632.016004011 353.057020246 640.571121472 351.26882192 652.417935384 c 2
 343.254645105 705.511856781 l 2
 343.150744165 706.239163362 343.819797093 709 335 709 c 0
 320.803808599 709 296.463344147 693.045311417 289.019125863 675.449886382 c 0
 287.094407534 671.11927014 287.126882823 668.817447724 287.745354895 664.488143219 c 2
 295.73117808 611.582064616 l 2
 297.429404458 600.331314867 288.251736388 584 272 584 c 2
 211 584 l 2
 197.09080223 584 173.564668994 568.284806509 166.103214026 550.64864022 c 0
 160.994228064 538.572855219 165.60794598 537.344317127 166.766795489 536.858250295 c 0
 167.732734751 536.45309757 169.384831021 536 172 536 c 2
 233 536 l 2
 238.66438821 536 244.266904129 533.939257862 248.586789961 530.249711744 c 0
 254.094981366 525.545252642 256.889736501 518.760239914 256.889736501 511.964430055 c 0
 256.889736501 505.817769819 254.60340216 499.662276663 249.970562748 495.029437252 c 2
 196.970562748 442.029437252 l 2
 192.373039294 437.431913797 189.589788512 433.289039791 186.022217823 425.460812084 c 0
 181.1925455 413.480893645 185.450280763 412.371053704 186.935615243 411.789855952 c 0
 187.917387579 411.405697445 189.530944809 411 192 411 c 0
 201.291658189 411 215.316483065 417.257608562 226.029437252 427.970562748 c 2
 279.029437252 480.970562748 l 2
 282.006160993 483.94728649 286.20912854 486.36417931 290.567098061 487.376988183 c 0
 292.334569335 487.787755303 294.106021737 487.983995989 295.854514671 487.983995989 c 0
 307.39920647 487.983995989 317.942979754 479.428878528 319.73117808 467.582064616 c 2
 327.745354895 414.488143219 l 2
 327.849255835 413.760836638 327.180202907 411 336 411 c 0
 350.196191401 411 374.536655853 426.954688583 381.980874137 444.550113618 c 0
 383.905592466 448.88072986 383.873117177 451.182552276 383.254645105 455.511856781 c 2
 375.26882192 508.417935384 l 2
 373.570595542 519.668685133 382.748263612 536 399 536 c 2
 460 536 l 2
 474.169122329 536 498.610084286 552.128246698 505.896785974 569.35135978 c 0
 510.685658512 580.670513051 506.460631901 582.268858763 504.47479217 583.088288032 c 0
 503.363545557 583.54682856 501.61325736 584 499 584 c 2
 439 584 l 2
 434.030355406 584 427.935042102 585.960721616 423.587715772 589.602676964 c 0
 417.970686625 594.3083208 415.109884138 601.169317392 415.109884138 608.044087683 c 0
 415.109884138 614.112322226 417.338813002 620.191288233 421.868589761 624.808176083 c 2
 473.94862688 677.889752377 l 2
 478.724333429 682.665458926 481.384890908 686.655399916 484.977782177 694.539187916 c 0
 489.8074545 706.519106355 485.549719237 707.628946296 484.064384757 708.210144048 c 0
 483.082612421 708.594302555 481.469055191 709 479 709 c 0
EndSplineSet
EndChar

StartChar: plus
Encoding: 43 43 11
Width: 640
Flags: HW
LayerCount: 2
Back
SplineSet
536 368 m 1
 104 368 l 1025
409.469726562 584 m 1
 230.530273438 152 l 1025
EndSplineSet
Fore
SplineSet
556 440 m 2
 564.268551951 440 572.36118256 438.525569176 579.799258039 435.405749257 c 0
 601.279851129 426.395947948 611.621598985 406.510306564 611.621598985 385.410198318 c 0
 611.621598985 376.462489138 609.761875829 367.2963863 606.103214026 358.64864022 c 0
 591.389915714 323.871753302 553.830877671 296 516 296 c 2
 364.088247202 296 l 1
 301.152459142 142.765037768 l 2
 286.346913327 107.770111295 248.846730314 80 211 80 c 0
 202.731448049 80 194.63881744 81.4744308236 187.200741961 84.5942507426 c 0
 165.700458948 93.6123107763 155.376459619 113.566234639 155.376459619 134.643065742 c 0
 155.376459619 143.553487579 157.22161892 152.664601287 160.847540858 161.234962232 c 2
 216.197467084 296 l 1
 84 296 l 2
 75.7314480488 296 67.6388174398 297.474430824 60.2007419605 300.594250743 c 0
 38.7201488712 309.604052052 28.3784010153 329.489693436 28.3784010153 350.589801682 c 0
 28.3784010153 359.537510862 30.2381241712 368.7036137 33.8967859744 377.35135978 c 0
 48.6100842857 412.128246698 86.1691223292 440 124 440 c 2
 275.911752798 440 l 1
 338.847540858 593.234962232 l 2
 353.653086673 628.229888705 391.153269686 656 429 656 c 0
 437.268551951 656 445.36118256 654.525569176 452.799258039 651.405749257 c 0
 474.299541052 642.387689224 484.623540381 622.433765361 484.623540381 601.356934258 c 0
 484.623540381 592.446512421 482.77838108 583.335398713 479.152459142 574.765037768 c 2
 423.802532916 440 l 1
 556 440 l 2
556 392 m 2
 388 392 l 2
 386.046260972 392 382.990947906 392.400279929 380.651838589 393.15258168 c 0
 370.507449666 396.415208826 364.045949296 406.095757497 364.045949296 416.214039454 c 0
 364.045949296 419.195024204 364.606789745 422.214003 365.799524359 425.118052495 c 2
 434.847540858 593.234962232 l 2
 440.040163461 605.50843384 435.391981651 606.655713228 434.233204511 607.141749705 c 0
 433.267265249 607.54690243 431.615168979 608 429 608 c 0
 414.846730314 608 390.346913327 591.770111295 383.152459142 574.765037768 c 2
 314.200475641 406.881947505 l 2
 310.826775137 398.66772019 301.910199948 392 292 392 c 2
 124 392 l 2
 109.830877671 392 85.3899157143 375.871753302 78.1032140256 358.64864022 c 0
 72.9942280636 346.572855219 77.6079459795 345.344317127 78.766795489 344.858250295 c 0
 79.7327347505 344.45309757 81.384831021 344 84 344 c 2
 252 344 l 2
 253.953739028 344 257.009052094 343.599720071 259.348161411 342.84741832 c 0
 269.492550334 339.584791174 275.954050704 329.904242503 275.954050704 319.785960546 c 0
 275.954050704 316.804975796 275.393210255 313.785997 274.200475641 310.881947505 c 2
 205.152459142 142.765037768 l 2
 199.959836539 130.49156616 204.608018349 129.344286772 205.766795489 128.858250295 c 0
 206.732734751 128.45309757 208.384831021 128 211 128 c 0
 225.153269686 128 249.653086673 144.229888705 256.847540858 161.234962232 c 2
 325.799524359 329.118052495 l 2
 329.173224863 337.33227981 338.089800052 344 348 344 c 2
 516 344 l 2
 530.169122329 344 554.610084286 360.128246698 561.896785974 377.35135978 c 0
 567.005771936 389.427144781 562.39205402 390.655682873 561.233204511 391.141749705 c 0
 560.267265249 391.54690243 558.615168979 392 556 392 c 2
EndSplineSet
EndChar

StartChar: comma
Encoding: 44 44 12
Width: 296
Flags: HW
LayerCount: 2
Back
SplineSet
39.333984375 96 m 0
 47.333984375 96 52.0205078125 88.0009765625 48.7060546875 79.9990234375 c 0
 42.0791015625 64 19.451171875 48 3.451171875 48 c 0
 -4.5478515625 48 -9.234375 56 -5.9208984375 64 c 0
 0.7060546875 80 23.333984375 96 39.333984375 96 c 0
 47.333984375 96 60.0205078125 88 50.0791015625 64 c 0
 33.5107421875 24 -33.626953125 -56 -33.626953125 -56 c 1024
EndSplineSet
Fore
SplineSet
120.304904649 55.1364883561 m 0
 114.718945527 40.6129946392 105.945078359 25.7212629304 98.2849982897 14.1609695683 c 0
 87.9363288875 -2.94498714379 77.5885053463 -16.867253797 67.4035619432 -31.1261745614 c 0
 43.9759509189 -62.702519855 23.7606673914 -87.7580308938 21.2443246022 -90.6036275111 c 0
 1.92808380808 -113.426773003 -25.2470593637 -128 -54 -128 c 0
 -62.2685519512 -128 -70.3611825602 -126.525569176 -77.7992580395 -123.405749257 c 0
 -99.2711995515 -114.399576758 -109.620758068 -94.543974802 -109.620758068 -73.4336674707 c 0
 -109.620758068 -64.4695518268 -107.754603493 -55.2791971436 -104.081466795 -46.5972376746 c 0
 -99.9310293284 -36.9128835859 -94.4435771615 -28.8430967223 -88.4430017797 -21.6424062642 c 2
 -88.4430017797 -21.6424062642 -80.1760827834 -11.684514009 -69.9442959173 1.0685465024 c 1
 -74.2311123146 7.1653520452 -75.0032752224 8.74812400527 -77.1747570322 13.8149148949 c 0
 -80.3486289421 21.7495946696 -82.5073204453 31.0206994722 -82.5073204453 41.4863321903 c 0
 -82.5073204453 50.9987292389 -80.7239583071 61.4979629218 -76.2985886787 72.8774848233 c 0
 -62.5056977041 106.73276267 -36.2357734068 129.794819972 -12.8365539837 144.280051043 c 0
 6.09175759233 156.527782063 31.2889554539 168 59 168 c 0
 71.1315622981 168 80.665904061 165.58242945 89.2434288545 162.151419532 c 0
 115.636126737 150.676333496 129.267037108 126.485205994 129.267037108 97.6475583446 c 0
 129.267037108 84.2136291597 126.308947613 69.7713430814 120.304904649 55.1364883561 c 0
75.6950953513 72.8635116439 m 0
 80.2284268136 83.9135070832 81.9662878289 92.2737060126 81.9662878289 98.6362081124 c 0
 81.9662878289 110.448188442 75.9765944088 115.374927979 70.7644174222 117.84488929 c 0
 68.3686292796 118.701297812 62.8642558474 120 59 120 c 0
 44.7110445461 120 27.9082424077 113.472217937 12.8365539837 103.719948957 c 0
 -5.76422659317 92.2051800285 -23.4943022959 75.26723733 -31.7014113213 55.1225151767 c 0
 -36.3563124158 43.1527695051 -34.9430007404 37.6896513042 -32.838258248 32.2214620659 c 0
 -31.7479773207 29.8301775458 -28.9232571677 26.6739573238 -27.2526768147 25.9314771669 c 0
 -26.9940351261 25.8165253053 -24.8157511825 24.7176080232 -23.7370446562 24.0023502506 c 0
 -16.8121086139 19.4106339604 -13.0996622301 11.6694442785 -13.0996622301 3.86461771322 c 0
 -13.0996622301 -1.28913777532 -14.7184178795 -6.47064115672 -18.0998799758 -10.7913982798 c 0
 -36.3348561072 -34.0916455588 -51.4695588715 -52.2525874377 -51.5569982203 -52.3575937358 c 0
 -55.5564228385 -57.1569032777 -58.0689706716 -61.0871164141 -59.9185332051 -65.4027623254 c 0
 -64.9905842288 -77.3912465634 -60.3920859796 -78.6556694683 -59.233204511 -79.141749705 c 0
 -58.2672652495 -79.5469024299 -56.615168979 -80 -54 -80 c 0
 -42.9272659449 -80 -25.3041531506 -71.6161021762 -15.5263256548 -59.7430259313 c 0
 -15.43465597 -59.6317127426 -15.0744706167 -59.2066196461 -14.8315324115 -58.9364735376 c 0
 -12.2899627973 -55.9017242514 7.88564776582 -30.7883688743 28.5964380568 -2.87382543863 c 0
 38.4269409704 10.8888786403 49.2796003365 25.7802823863 57.4201697829 39.3478981303 c 0
 57.558265574 39.5780577821 57.829639402 40.0110744085 58.0307929359 40.3128047094 c 0
 65.6192676217 51.6955167381 71.4005309505 61.6976442017 75.6950953513 72.8635116439 c 0
EndSplineSet
EndChar

StartChar: hyphen
Encoding: 45 45 13
Width: 416
Flags: HW
LayerCount: 2
Back
SplineSet
36.921875 264 m 1
 292.921875 264 l 1025
EndSplineSet
Fore
SplineSet
17 192 m 2
 8.73144804881 192 0.638817439834 193.474430824 -6.79925803948 196.594250743 c 0
 -28.2798511288 205.604052052 -38.6215989847 225.489693436 -38.6215989847 246.589801682 c 0
 -38.6215989847 255.537510862 -36.7618758288 264.7036137 -33.1032140256 273.35135978 c 0
 -18.3899157143 308.128246698 19.1691223292 336 57 336 c 2
 313 336 l 2
 321.268551951 336 329.36118256 334.525569176 336.799258039 331.405749257 c 0
 358.279851129 322.395947948 368.621598985 302.510306564 368.621598985 281.410198318 c 0
 368.621598985 272.462489138 366.761875829 263.2963863 363.103214026 254.64864022 c 0
 348.389915714 219.871753302 310.830877671 192 273 192 c 2
 17 192 l 2
17 240 m 2
 273 240 l 2
 287.169122329 240 311.610084286 256.128246698 318.896785974 273.35135978 c 0
 324.005771936 285.427144781 319.39205402 286.655682873 318.233204511 287.141749705 c 0
 317.267265249 287.54690243 315.615168979 288 313 288 c 2
 57 288 l 2
 42.8308776708 288 18.3899157143 271.871753302 11.1032140256 254.64864022 c 0
 5.99422806363 242.572855219 10.6079459795 241.344317127 11.766795489 240.858250295 c 0
 12.7327347505 240.45309757 14.384831021 240 17 240 c 2
EndSplineSet
EndChar

StartChar: period
Encoding: 46 46 14
Width: 288
Flags: HW
LayerCount: 2
Back
SplineSet
44.1103515625 72 m 0
 34.65234375 59.068359375 16.759765625 48 3.451171875 48 c 0
 -4.548828125 48 -9.234375 56 -5.9208984375 64 c 0
 -4.8056640625 66.6923828125 -3.2373046875 69.3837890625 -1.32421875 72 c 1024
-1.32421875 72 m 0
 8.1328125 84.931640625 26.0263671875 96 39.333984375 96 c 0
 47.333984375 96 52.0205078125 88 48.7060546875 80 c 0
 47.591796875 77.3076171875 46.0234375 74.6162109375 44.1103515625 72 c 1024
EndSplineSet
Fore
SplineSet
101.986188609 40.9512317826 m 0
 85.8133023915 19.0023147728 67.0856007302 4.29232389558 45.2361003549 -7.20741314405 c 0
 28.2040407502 -16.2911782666 7.36082787314 -24 -16 -24 c 0
 -41.8303547316 -24 -60.1671799544 -11.2752144432 -70.0026028865 1.328711146 c 0
 -78.4351921753 12.3113048246 -83.0942719959 25.5594208948 -83.0942719959 40.4147173054 c 0
 -83.0942719959 50.6727947904 -80.872653626 61.6972341978 -76.13782393 73.2712623435 c 0
 -72.2042354357 82.4496354969 -67.7192284074 90.1877726945 -62.9692070641 97.3128047094 c 0
 -62.8827516093 97.4424878916 -60.3241218684 101.124719848 -58.9861886092 103.048768217 c 0
 -42.8133023915 124.997685227 -24.0856007302 139.707676104 -2.2361003549 151.207413144 c 0
 14.7959592498 160.291178267 35.6391721269 168 59 168 c 0
 90.0333767927 168 111.599019314 150.762353646 120.219776856 130.072535545 c 0
 123.354807473 122.234959003 125.519244133 113.051343961 125.519244133 102.600126786 c 0
 125.519244133 93.0737902697 123.720940697 82.4942775102 119.220217631 70.9209896252 c 0
 115.098450506 61.3035329993 110.791056857 53.9199699795 105.969207064 46.6871952906 c 0
 105.882751609 46.5575121084 103.324121868 42.8752801517 101.986188609 40.9512317826 c 0
-21.5890227075 72.8882323797 m 0
 -25.3042328403 67.2299769475 -29.8985011387 59.3106458294 -31.86217607 54.7287376565 c 0
 -38.1148624053 39.4443932813 -34.5847067379 33.899628847 -32.0249450952 30.6999267936 c 0
 -29.5174637882 27.3566183843 -26.3930154779 24 -16 24 c 0
 -3.36082787314 24 9.79595924979 28.2911782666 22.7638996451 35.2074131441 c 0
 38.6787306 43.5836399624 52.7166250398 55.2269661999 64.5890227075 71.1117676203 c 0
 68.3738592932 76.8760639603 72.295011893 83.4501787191 74.7886530453 89.0996520187 c 0
 79.1268902188 100.805338952 78.0148630261 106.123648148 75.7918672542 111.89906324 c 0
 74.3121266573 115.25643693 72.0293788599 120 59 120 c 0
 46.3608278731 120 33.2040407502 115.708821733 20.2361003549 108.792586856 c 0
 4.32126939998 100.416360038 -9.7166250398 88.7730338001 -21.5890227075 72.8882323797 c 0
EndSplineSet
EndChar

StartChar: slash
Encoding: 47 47 15
Width: 576
Flags: HW
LayerCount: 2
Back
SplineSet
-20.548828125 48 m 1
 596.548828125 688 l 1025
EndSplineSet
Fore
SplineSet
-40 -24 m 0
 -47.8115761109 -24 -55.4524870617 -22.6862368098 -62.5405058404 -19.9551617545 c 0
 -85.7037602778 -11.0301591031 -96.43615444 11.1738253832 -96.43615444 32.4098766196 c 0
 -96.43615444 40.0651056507 -95.0415036972 47.5945539095 -92.3317650297 54.3308399817 c 0
 -84.4534004279 73.9516598459 -79.385241191 78.555884306 -70.1258094783 87.8153160187 c 2
 546.58710303 727.517526725 l 2
 564.496413189 746.706073324 590.714198749 760 617 760 c 0
 624.810014577 760 632.459572544 758.686389711 639.555029256 755.910002605 c 0
 662.334634143 746.996552233 672.504909887 725.838948594 672.504909887 704.761106673 c 0
 672.504909887 696.394985585 670.902665592 688.041430308 667.85069297 680.471065146 c 0
 661.020418928 663.46048194 654.922909103 656.981783607 646.125809478 648.184683981 c 2
 29.4128969697 8.48247327546 l 2
 11.852514832 -10.332221872 -13.5060385703 -24 -40 -24 c 0
-40 24 m 0
 -30.4939614297 24 -15.852514832 30.332221872 -5.41289696966 41.5175267245 c 2
 611.874190522 681.815316019 l 2
 617.831107242 687.772232739 621.095547843 692.606824211 622.702857798 696.89298409 c 0
 628.141206396 709.747262594 623.391769029 710.65580241 622.233204511 711.141749705 c 0
 621.267265249 711.54690243 619.615168979 712 617 712 c 0
 607.285801251 712 591.503586811 705.293926676 581.41289697 694.482473275 c 2
 -35.8741905217 54.1846839813 l 2
 -41.831107242 48.227767261 -45.0955478431 43.3931757891 -46.7028577979 39.1070159097 c 0
 -51.821095074 27.0093641663 -47.4598099607 25.7308020748 -45.47479217 24.911711968 c 0
 -44.3635455574 24.4531714396 -42.61325736 24 -40 24 c 0
EndSplineSet
EndChar

StartChar: zero
Encoding: 48 48 16
Width: 672
Flags: HW
LayerCount: 2
Back
SplineSet
584 368 m 0
 508.965820312 186.850585938 337.104492188 40 200.137695312 40 c 0
 63.1708984375 40 12.9658203125 186.850585938 88 368 c 0
 163.034179688 549.149414062 334.895507812 696 471.862304688 696 c 0
 608.829101562 696 659.034179688 549.149414062 584 368 c 0
EndSplineSet
Fore
SplineSet
654.178434969 358.828466742 m 0
 597.120555155 220.852139191 490.161243252 97.2403376625 369.137267993 26.2952487177 c 0
 308.534527519 -9.23049569839 242.839778666 -32 180 -32 c 0
 116.980208216 -32 64.821713999 -8.33911815483 30.0038914712 31.1210807099 c 0
 -6.27085401859 72.2324589317 -23.3949899289 127.600995459 -23.3949899289 190.618966927 c 0
 -23.3949899289 248.109159036 -9.14326776047 311.965664873 17.8215650305 377.171533258 c 0
 74.8794448446 515.147860809 181.838756748 638.759662337 302.862732007 709.704751282 c 0
 363.465472481 745.230495698 429.160221334 768 492 768 c 0
 555.019791784 768 607.178286001 744.339118155 641.996108529 704.87891929 c 0
 678.270854019 663.767541068 695.394989929 608.399004541 695.394989929 545.381033073 c 0
 695.394989929 487.890840964 681.14326776 424.034335127 654.178434969 358.828466742 c 0
609.821565031 377.171533258 m 0
 635.21972716 438.588907134 647.052655305 495.479060684 647.052655305 544.436172752 c 0
 647.052655305 598.56170995 632.589432242 642.990801169 606.003891471 673.12108071 c 0
 580.821713999 701.660881845 542.980208216 720 492 720 c 0
 440.839778666 720 382.534527519 700.769504302 327.137267993 668.295248718 c 0
 216.161243252 603.240337663 115.120555155 486.852139191 62.1784349695 358.828466742 c 0
 36.7802728404 297.411092866 24.9473446955 240.520939316 24.9473446955 191.563827248 c 0
 24.9473446955 137.43829005 39.4105677576 93.0091988308 65.9961085288 62.8789192901 c 0
 91.178286001 34.3391181548 129.019791784 16 180 16 c 0
 231.160221334 16 289.465472481 35.2304956984 344.862732007 67.7047512823 c 0
 455.838756748 132.759662337 556.879444845 249.147860809 609.821565031 377.171533258 c 0
513.846153846 377.230769231 m 0
 533.994961934 425.587908643 542.296586875 468.932069668 542.296586875 505.028705512 c 0
 542.296586875 546.425104844 531.378292796 578.289561715 514.889467468 597.251710842 c 0
 499.517650261 614.92930063 480.09768513 624 452 624 c 0
 423.694604314 624 390.724419571 613.872190604 354.191640479 592.327218319 c 0
 281.307373348 549.344188986 201.042029733 461.700871358 158.153846154 358.769230769 c 0
 138.005038066 310.412091357 129.703413125 267.067930332 129.703413125 230.971294488 c 0
 129.703413125 189.574895156 140.621707204 157.710438285 157.110532532 138.748289158 c 0
 172.482349739 121.07069937 191.90231487 112 220 112 c 0
 248.305395686 112 281.275580429 122.127809396 317.808359521 143.672781681 c 0
 390.692626652 186.655811014 470.957970267 274.299128642 513.846153846 377.230769231 c 0
558.153846154 358.769230769 m 0
 511.042029733 245.700871358 425.307373348 151.344188986 342.191640479 102.327218319 c 0
 300.724419571 77.8721906038 259.694604314 64 220 64 c 0
 180.09768513 64 145.517650261 78.9293006303 120.889467468 107.251710842 c 0
 94.8274757067 137.223001367 81.280176206 179.795451534 81.280176206 229.911125274 c 0
 81.280176206 274.275942847 91.8967158492 324.552118038 113.846153846 377.230769231 c 0
 160.957970267 490.299128642 246.692626652 584.655811014 329.808359521 633.672781681 c 0
 371.275580429 658.127809396 412.305395686 672 452 672 c 0
 491.90231487 672 526.482349739 657.07069937 551.110532532 628.748289158 c 0
 577.172524293 598.776998633 590.719823794 556.204548466 590.719823794 506.088874726 c 0
 590.719823794 461.724057153 580.103284151 411.447881962 558.153846154 358.769230769 c 0
EndSplineSet
Substitution2: "(ss01) Slashed Zero subtable" zero.ss01
Substitution2: "(ss02) Dotted Zero subtable" zero.ss02
EndChar

StartChar: one
Encoding: 49 49 17
Width: 352
Flags: HW
LayerCount: 2
Back
SplineSet
308.548828125 688 m 1
 43.451171875 48 l 1025
EndSplineSet
Fore
SplineSet
238.867154037 697.281320656 m 2
 253.461207913 731.776357089 289.899665891 760 328 760 c 0
 336.27046357 760 344.352517179 758.525643046 351.783839145 755.45921093 c 0
 373.41144663 746.534878157 384.499794717 726.356989249 384.499794717 704.741435249 c 0
 384.499794717 696.087656738 382.722556432 687.203449544 379.132845963 678.718679344 c 2
 113.132845963 38.7186793444 l 2
 98.5387920873 4.22364291119 62.1003341094 -24 24 -24 c 0
 15.7295364298 -24 7.64748282079 -22.5256430459 0.216160854505 -19.4592109303 c 0
 -21.4114466297 -10.5348781572 -32.4997947168 9.64301075086 -32.4997947168 31.2585647513 c 0
 -32.4997947168 39.9123432622 -30.7225564321 48.7965504558 -27.1328459629 57.2813206556 c 2
 238.867154037 697.281320656 l 2
283.132845963 678.718679344 m 2
 17.1328459629 38.7186793444 l 2
 12.2936469825 27.2805726633 16.5394936902 25.7310894136 18.52520783 24.911711968 c 0
 19.6364544426 24.4531714396 21.38674264 24 24 24 c 0
 37.8996658906 24 61.4612079127 39.7763570888 68.8671540371 57.2813206556 c 2
 334.867154037 697.281320656 l 2
 339.706353018 708.719427337 335.46050631 710.268910586 333.47479217 711.088288032 c 0
 332.363545557 711.54682856 330.61325736 712 328 712 c 0
 314.100334109 712 290.538792087 696.223642911 283.132845963 678.718679344 c 2
EndSplineSet
Substitution2: "(ss03) Serifed One subtable" one.ss03
Substitution2: "Tabular Figures subtable" one.tnum
EndChar

StartChar: two
Encoding: 50 50 18
Width: 672
Flags: HW
LayerCount: 2
Back
SplineSet
197.587890625 536 m 0
 241.837890625 642.828125 350.10546875 696 457.862304688 696 c 0
 569.862304688 696 622.0390625 624 582.274414062 528 c 0
 556.689453125 466.232421875 516.866210938 435.219726562 405.798828125 382 c 0
 176.235351562 272 79.6669921875 232 3.451171875 48 c 1
 411.451171875 48 l 1025
EndSplineSet
Fore
SplineSet
268.195488196 526.866742805 m 0
 253.309339001 491.681299253 215.860581925 464 178 464 c 0
 169.731448049 464 161.63881744 465.474430824 154.200741961 468.594250743 c 0
 132.71488558 477.606259682 122.377885805 497.510164925 122.377885805 518.604059868 c 0
 122.377885805 527.541794768 124.233705961 536.693170658 127.883588517 545.32016579 c 0
 164.488297877 632.525502795 231.9758975 692.32076448 300.345216652 726.505424056 c 0
 358.89774745 755.24939372 419.468564371 768 478 768 c 0
 525.100272574 768 567.798613736 758.518005988 600.897214443 737.240334105 c 0
 646.482273459 708.449770515 671.03305895 661.207550398 671.03305895 606.090727907 c 0
 671.03305895 578.512992206 664.886751832 548.963844036 652.153648262 518.768198427 c 0
 637.111906195 482.238253408 613.89516941 445.734512955 579.197934254 414.290143595 c 0
 537.170319755 375.495422519 486.408492315 349.374245827 423.394613612 319.367636921 c 0
 357.770136534 287.549708641 283.317161027 251.276742417 239.815980445 227.109419871 c 0
 208.237924407 208.92811488 182.918235721 191.24043795 163.800784097 174.934169553 c 0
 145.265980608 158.304288219 130.05804262 141.150787955 115.920062237 120 c 1
 431 120 l 2
 439.268551951 120 447.36118256 118.525569176 454.799258039 115.405749257 c 0
 476.279851129 106.395947948 486.621598985 86.5103065636 486.621598985 65.4101983175 c 0
 486.621598985 56.4624891378 484.761875829 47.2963863001 481.103214026 38.6486402199 c 0
 466.564668994 4.28480650858 430.09080223 -24 392 -24 c 2
 -16 -24 l 2
 -24.2704635702 -24 -32.3525171792 -22.5256430459 -39.7838391455 -19.4592109303 c 0
 -61.409758926 -10.5355745648 -72.4995481196 9.63638793639 -72.4995481196 31.2541159979 c 0
 -72.4995481196 39.911109784 -70.721115549 48.7999561795 -67.1286943808 57.291133486 c 0
 -31.125854139 143.697950066 15.084427284 212.313736196 78.1341826883 268.007686803 c 0
 112.768752874 298.44412727 150.190253154 323.329203453 190.215686479 345.907653021 c 0
 246.396319786 377.573100885 318.738880849 411.696088303 387.600465973 444.629889884 c 0
 446.480354326 473.088502588 477.586416257 493.127007896 490.012545862 503.901665487 c 0
 499.998585429 513.17620502 503.745722425 518.332870506 511.825242968 537.185085105 c 0
 517.248342401 550.742833689 519.787664285 562.233279079 519.787664285 572.034644148 c 0
 519.787664285 589.652932816 511.582787431 601.813584889 497.173654626 610.713343386 c 0
 485.271544137 618.414708996 465.148499204 624 438 624 c 0
 400.392060296 624 364.998495876 615.666432208 338.526739097 602.430553819 c 0
 319.72081068 593.47534981 306.237225551 583.110614986 293.851716778 568.955747817 c 0
 283.543472802 557.788483509 275.375785941 544.817487168 268.195488196 526.866742805 c 0
223.804511804 545.133257195 m 0
 232.726891877 567.439207379 243.159881056 584.584866601 258.150879645 601.049342602 c 0
 273.901545517 618.832062743 294.20981411 634.491614375 317.473260903 645.569446181 c 0
 351.001504124 662.333567792 393.607939704 672 438 672 c 0
 470.851500796 672 500.728455863 665.585291004 522.826345374 651.286656614 c 0
 552.945736745 632.68350312 566.917020102 603.553693117 566.917020102 570.905765394 c 0
 566.917020102 554.15285509 563.238225109 536.473585087 556.174757032 518.814914895 c 0
 546.258244328 495.676385251 536.789392315 481.66596843 522.012890096 468.120841396 c 0
 502.340061791 450.907116629 469.507189118 430.905476743 408.444047853 401.391625132 c 0
 339.203527369 368.276593596 267.630914074 334.442249109 213.784313521 304.092346979 c 0
 175.793108014 282.66141054 141.261050169 259.582063284 109.842750585 231.972042437 c 0
 52.9420562069 181.709762403 11.1201950492 120.288468118 -22.8713056192 38.708866514 c 0
 -27.7034536142 27.2874257985 -23.4605239057 25.7310966744 -21.47479217 24.911711968 c 0
 -20.3635455574 24.4531714396 -18.61325736 24 -16 24 c 2
 392 24 l 2
 405.90919777 24 429.435331006 39.7151934914 436.896785974 57.3513597801 c 0
 442.005771936 69.4271447812 437.39205402 70.6556828732 436.233204511 71.141749705 c 0
 435.267265249 71.5469024299 433.615168979 72 431 72 c 2
 74 72 l 2
 72.4632049986 72 67.4876415633 72.6858922804 64.5849065808 73.9238586726 c 0
 55.4951517548 77.8004822897 50.0659714682 86.8821465722 50.0659714682 96.2164340482 c 0
 50.0659714682 99.913248253 50.9175548305 103.64968717 52.7305893449 107.118101024 c 0
 76.89642414 153.348393676 101.941778347 184.050858174 132.196697702 211.064179027 c 0
 155.133806983 230.72455841 181.744980385 249.062042425 216.184019555 268.890580129 c 0
 262.682838973 294.723257583 336.229863466 330.450291359 402.605386388 362.632363079 c 0
 465.591507685 392.625754173 510.829680245 416.504577481 546.802065746 449.709856405 c 0
 576.10483059 476.265487045 594.888093805 505.761746592 607.846351738 537.231801573 c 0
 618.694835898 562.958206866 623.641024966 586.337960315 623.641024966 607.12226397 c 0
 623.641024966 647.298189016 605.159767131 677.776309112 575.102785557 696.759665895 c 0
 552.201386264 711.481994012 518.899727426 720 478 720 c 0
 426.531435629 720 373.10225255 708.75060628 321.654783348 683.494575944 c 0
 262.034061992 653.684215266 203.498301313 601.442571746 172.12952084 526.711065326 c 0
 166.975706427 514.529322168 171.608078849 513.344261396 172.766795489 512.858250295 c 0
 173.732734751 512.45309757 175.384831021 512 178 512 c 0
 192.139418075 512 216.690660999 528.318700747 223.804511804 545.133257195 c 0
EndSplineSet
EndChar

StartChar: three
Encoding: 51 51 19
Width: 672
Flags: HW
LayerCount: 2
Back
SplineSet
266.3671875 422 m 0
 519.061523438 512.845703125 616.548828125 688 616.548828125 688 c 1
 248.548828125 688 l 1025
46.705078125 153.767578125 m 0
 54.2568359375 86.4765625 110.600585938 40 198.137695312 40 c 0
 319.640625 40 457.227539062 129.54296875 502.98046875 240 c 0
 548.733398438 350.45703125 507.48046875 444 375.48046875 444 c 0
 343.244140625 444 298.646484375 433.32421875 266.3671875 422 c 1024
EndSplineSet
Fore
SplineSet
636 760 m 2
 644.746667532 760 653.247069766 758.516695512 661.067241323 755.254906677 c 0
 682.857947781 746.166016172 692.68699173 726.419230984 692.68699173 705.757689085 c 0
 692.68699173 696.619288983 690.764226953 687.301943503 687.103214026 678.64864022 c 0
 686.914783612 678.203259243 686.626709605 677.587787751 686.466252584 677.266873708 c 0
 684.225769357 672.785907254 682.466252584 670.266873708 682.466252584 670.266873708 c 2
 682.203265351 669.740899242 681.806190582 669.02941213 681.5782172 668.649391716 c 0
 678.040868477 662.718439627 627.24893029 575.51429088 515.658904585 487.597038865 c 1
 548.205392981 468.765877096 570.688641516 443.05315303 584.244175369 410.011539264 c 0
 592.993745368 388.137614265 597.165654093 364.459980376 597.165654093 339.761990982 c 0
 597.165654093 304.71200754 588.763565958 267.607061381 573.119074342 230.686061168 c 0
 509.970056197 79.7706110239 332.276532852 -32 178 -32 c 0
 65.4816097395 -32 -18.3515480512 30.3324030328 -28.8184648402 128.023626397 c 0
 -29.1764669149 130.52964092 -29.3376620362 132.972546809 -29.3376620362 135.355885516 c 0
 -29.3376620362 145.528259929 -26.4011956439 154.615508245 -23.2971422021 162.89298409 c 0
 -8.22057151972 198.528514794 29.1066943292 226 67 226 c 0
 97.4915633134 226 118.393347479 204.642845313 121.810281905 179.015837121 c 0
 126.159749754 142.770271712 155.836404221 112 218 112 c 0
 306.582304816 112 404.090338141 180.391114341 432.824979618 249.180104544 c 0
 441.256535539 269.7320221 444.898385649 287.527885419 444.898385649 302.65589295 c 0
 444.898385649 313.484744614 443.032335063 322.946611447 439.721240887 331.073842606 c 0
 431.001644083 353.208203723 409.874643001 372 356 372 c 0
 339.318433726 372 297.105358107 363.370039667 273.850653533 355.320334237 c 0
 273.454821136 355.183315331 272.891719752 355.008686023 272.59330707 354.923425257 c 0
 266.413772795 353.157844035 257.732647311 350 246 350 c 0
 237.731448049 350 229.63881744 351.474430824 222.200741961 354.594250743 c 0
 200.702144075 363.611603968 190.376627261 383.559688519 190.376627261 404.638515305 c 0
 190.376627261 413.5521255 192.223029014 422.667934238 195.851741934 431.244892048 c 0
 205.125028455 453.765730743 225.440594042 472.720443881 242.929763329 482.218770393 c 0
 254.190350465 488.628098292 255.960975652 487.986681883 258.143353035 488.679826901 c 0
 358.169512012 525.146120512 424.584826498 572.311715209 472.04273343 614.926978576 c 0
 472.772128684 615.570562623 473.253013406 616 473.253013406 616 c 1
 229 616 l 2
 220.731448049 616 212.63881744 617.474430824 205.200741961 620.594250743 c 0
 183.720148871 629.604052052 173.378401015 649.489693436 173.378401015 670.589801682 c 0
 173.378401015 679.537510862 175.238124171 688.7036137 178.896785974 697.35135978 c 0
 193.435331006 731.715193491 229.90919777 760 268 760 c 2
 636 760 l 2
636 712 m 2
 268 712 l 2
 254.09080223 712 230.564668994 696.284806509 223.103214026 678.64864022 c 0
 217.994228064 666.572855219 222.60794598 665.344317127 223.766795489 664.858250295 c 0
 224.732734751 664.45309757 226.384831021 664 229 664 c 2
 530 664 l 2
 534.146823857 664 540.552616867 662.236973711 544.844930293 658.85810289 c 0
 550.813204801 654.159930461 553.891867537 647.056773857 553.891867537 639.92921079 c 0
 553.891867537 634.111261467 551.840611626 628.277050569 547.635282671 623.721277534 c 0
 536.065061899 611.186871698 522.167694788 595.141046323 503.95726657 579.073021424 c 0
 453.138736658 533.440055789 379.673303744 481.704208731 273.888125763 443.331153973 c 0
 270.848338783 442.317891646 270.429074216 442.257837225 268.719694742 441.647344555 c 0
 268.190448556 441.321034183 267.742894451 441.060990152 267.22930529 440.789090008 c 0
 254.343806211 433.967355201 244.703314956 423.817388971 240.148258066 412.755107952 c 0
 234.962770462 400.498500888 239.608012175 399.344289362 240.766795489 398.858250295 c 0
 241.732734751 398.45309757 243.384831021 398 246 398 c 0
 248.45231916 398 250.627775482 398.541792559 258.778225145 400.89662921 c 0
 286.214987746 410.268998374 328.981718755 420 356 420 c 0
 422.125356999 420 466.998355917 392.791796277 484.278759113 348.926157394 c 0
 490.127534633 334.570072026 492.915309617 319.11883702 492.915309617 302.892237617 c 0
 492.915309617 280.10226893 487.416228268 255.782839678 477.175020382 230.819895456 c 0
 439.909661859 141.608885659 327.417695184 64 218 64 c 0
 138.163595779 64 81.8402502463 109.229728288 74.1897180954 172.984162879 c 0
 73.6066525211 177.357154687 74.5084366866 178 67 178 c 0
 53.0260611795 178 28.9067286553 162.353811587 21.2828959712 145.066315478 c 0
 19.1954304928 139.327480884 18.7020333019 134.791394371 18.8184648402 133.976373603 c 0
 26.3515480512 63.6675969672 82.5183902605 16 178 16 c 0
 311.723467148 16 474.029943803 118.229388976 528.880925658 249.313938832 c 0
 542.589582975 281.6663701 549.064155377 312.453379404 549.064155377 339.86773095 c 0
 549.064155377 359.111554507 545.873808765 376.693500401 539.755824631 391.988460736 c 0
 526.752636272 423.683732362 501.27863947 446.784799577 461.012121221 459.03982687 c 0
 456.968561518 460.270475475 452.543105364 463.052160882 449.548141618 466.653048438 c 0
 445.873297003 471.071366443 444.103364128 476.491098167 444.103364128 481.886790906 c 0
 444.103364128 489.443768667 447.57519582 496.953592489 454.14803457 501.59905747 c 0
 580.421847961 590.845211296 635.913896052 685.712998944 639.902898659 692.474460187 c 0
 640.789921697 694.089297 641.957578967 696.065359483 643.27429005 698.278554707 c 0
 647.802810811 710.015266588 644.028166104 710.441833654 642.193482071 711.108086285 c 0
 640.992298351 711.544287723 638.988923147 712 636 712 c 2
EndSplineSet
EndChar

StartChar: four
Encoding: 52 52 20
Width: 672
Flags: HW
LayerCount: 2
Back
SplineSet
551.407226562 270 m 1
 71.4072265625 270 l 1
 97.087890625 332 l 1
 549.719726562 686 l 1
 611.719726562 686 l 1
 346.623046875 46 l 1025
EndSplineSet
Fore
SplineSet
327 -26 m 0
 318.731448049 -26 310.63881744 -24.5255691764 303.200741961 -21.4057492574 c 0
 281.706957169 -12.3904148322 271.377104552 7.54098670957 271.377104552 28.6255099463 c 0
 271.377104552 37.5482296916 273.227059105 46.6774599081 276.863754999 55.2732865645 c 2
 336.062903185 198 l 1
 52 198 l 2
 43.7295364298 198 35.6474828208 199.474356954 28.2161608545 202.54078907 c 0
 6.59458621957 211.462632471 -4.49891442351 231.619333364 -4.49891442351 253.242655389 c 0
 -4.49891442351 261.907929657 -2.71740383783 270.808729315 0.882005147562 279.31642328 c 2
 26.8567153532 341.256116848 l 2
 34.0266669811 358.464000755 45.9106453219 371.027263417 59.0003610767 381.737030852 c 2
 510.711772085 735.51101204 l 2
 529.717869121 751.101810039 549.54797796 758 570 758 c 2
 632 758 l 2
 640.268551951 758 648.36118256 756.525569176 655.799258039 753.405749257 c 0
 677.291465753 744.39107632 687.622739553 724.465142702 687.622739553 703.378754123 c 0
 687.622739553 694.453048571 685.771619556 685.319416927 682.132304278 676.717398997 c 2
 542.969907412 342 l 1
 571 342 l 2
 579.268551951 342 587.36118256 340.525569176 594.799258039 337.405749257 c 0
 616.279851129 328.395947948 626.621598985 308.510306564 626.621598985 287.410198318 c 0
 626.621598985 278.462489138 624.761875829 269.2963863 621.103214026 260.64864022 c 0
 606.564668994 226.284806509 570.09080223 198 532 198 c 2
 484.028005906 198 l 1
 417.136245001 36.7267134355 l 2
 402.361072025 1.8035773101 364.841510771 -26 327 -26 c 0
327 22 m 0
 341.158489229 22 365.638927975 38.1964226899 372.863754999 55.2732865645 c 2
 445.831276382 231.194981955 l 2
 449.198960058 239.314328899 458.098658804 246 468 246 c 2
 532 246 l 2
 545.90919777 246 569.435331006 261.715193491 576.896785974 279.35135978 c 0
 582.005771936 291.427144781 577.39205402 292.655682873 576.233204511 293.141749705 c 0
 575.267265249 293.54690243 573.615168979 294 571 294 c 2
 507 294 l 2
 504.804710636 294 501.934863628 294.407209101 499.553423437 295.184468065 c 0
 489.457396372 298.479628517 483.046873607 308.133616979 483.046873607 318.214814897 c 0
 483.046873607 321.229090257 483.619979681 324.281558499 484.839033819 327.21366257 c 2
 637.867695722 695.282601003 l 2
 643.026087821 707.475164146 638.39201127 708.655700804 637.233204511 709.141749705 c 0
 636.267265249 709.54690243 634.615168979 710 632 710 c 2
 570 710 l 2
 562.306641611 710 550.442665447 706.243388241 541.155815363 698.385284324 c 2
 88.9611686403 344.232839767 l 2
 80.169162958 336.931713819 73.9720823129 329.532997551 71.1538461538 322.769230769 c 2
 45.1326651639 260.71855977 l 2
 40.2935853334 249.280734716 44.5396116862 247.731040724 46.52520783 246.911711968 c 0
 47.6364544426 246.45317144 49.38674264 246 52 246 c 2
 372 246 l 2
 374.148107451 246 377.054096511 245.594172499 379.427344906 244.821799834 c 0
 389.532837438 241.53297165 395.953307378 231.873777411 395.953307378 221.785331753 c 0
 395.953307378 218.777567406 395.382609954 215.731648115 394.168723618 212.805018045 c 2
 321.136245001 36.7267134355 l 2
 315.971160078 24.5183308896 320.607994521 23.3442967666 321.766795489 22.858250295 c 0
 322.732734751 22.4530975701 324.384831021 22 327 22 c 0
394.972264571 342 m 1
 482.777792618 553.686195523 l 1
 212.554578397 342 l 1
 394.972264571 342 l 1
433.168580286 308.804672486 m 2
 429.800924669 300.685750803 420.901300476 294 411 294 c 2
 143 294 l 2
 136.510893271 294 129.86038168 296.827752452 125.326344457 301.762946704 c 0
 121.145819088 306.31335151 119.107962989 312.12859699 119.107962989 317.927184012 c 0
 119.107962989 325.074355379 122.203938706 332.196218688 128.199621055 336.893088236 c 2
 525.199621055 647.893088236 l 2
 531.36315676 652.721449959 539.869637961 654.281582586 547.427700645 651.821684055 c 0
 557.533018155 648.532738629 563.953304032 638.873640616 563.953304032 628.785329018 c 0
 563.953304032 625.777444259 563.382562105 622.731403848 562.168580286 619.804672486 c 2
 433.168580286 308.804672486 l 2
EndSplineSet
EndChar

StartChar: five
Encoding: 53 53 21
Width: 672
Flags: HW
LayerCount: 2
Back
SplineSet
40.064453125 155.704101562 m 0
 49.3232421875 86.712890625 102.459960938 40 186.137695312 40 c 0
 308.745117188 40 449.678710938 140.288085938 500.921875 264 c 0
 552.165039062 387.711914062 494.313476562 488 371.706054688 488 c 0
 299.494140625 488 220.451171875 456 149.254882812 400 c 1
 300.548828125 688 l 1
 620.548828125 688 l 1025
EndSplineSet
Fore
SplineSet
129 328 m 0
 120.908127051 328 112.898104268 329.40812658 105.409244948 332.465341434 c 0
 84.629076288 340.94853461 73.3075178068 360.405829461 73.3075178068 382.325721681 c 0
 73.3075178068 391.064341052 75.106865253 400.194343667 78.8235960219 409.176443025 c 0
 79.0316372225 409.67920926 79.3529561765 410.371543813 79.533747416 410.733126292 c 0
 81.0089967777 413.683625015 82.5241786108 415.807562684 82.7387650316 416.133734044 c 2
 233.819717717 704.288133867 l 2
 250.663245232 735.383876972 284.463121031 760 320 760 c 2
 640 760 l 2
 648.27046357 760 656.352517179 758.525643046 663.783839145 755.45921093 c 0
 685.399421677 746.539840088 696.498043355 726.404193849 696.498043355 704.773165479 c 0
 696.498043355 696.096466321 694.712280466 687.179160897 691.103214026 678.64864022 c 0
 676.389915714 643.871753302 638.830877671 616 601 616 c 2
 338.489571226 616 l 1
 302.97674408 548.525628423 l 1
 333.642370763 556.249071258 362.511307822 560 392 560 c 0
 425.733629559 560 456.482172082 554.246125685 483.414914332 543.19067358 c 0
 556.169226386 513.326213259 595.233504872 447.582731475 595.233504872 368.086170195 c 0
 595.233504872 332.435593872 587.37723794 294.019118169 571.180005112 254.832264554 c 0
 505.533104777 96.009118582 326.677607466 -32 166 -32 c 0
 54.1440911251 -32 -23.1637080195 33.4126578912 -35.7786192141 129.744707014 c 0
 -36.1643209487 132.444619156 -36.3374915005 135.038294758 -36.3374915005 137.541380583 c 0
 -36.3374915005 147.826179909 -33.4139167397 156.581585323 -30.2971422021 164.89298409 c 0
 -15.2205715197 200.528514794 22.1066943292 228 60 228 c 0
 87.5100108217 228 112.04755697 210.236274133 115.79524374 182.128623352 c 0
 121.179356992 140.594035411 151.018197772 112 206 112 c 0
 290.402437139 112 394.423572657 183.997122397 430.779656551 273.069527938 c 0
 439.685038083 294.887712691 443.583849415 314.805517296 443.595134732 332.233176201 c 0
 443.595134732 382.638271115 412.805853497 416 352 416 c 0
 301.063827778 416 243.558416851 393.579199393 187.97931083 350.246337072 c 0
 173.881886922 338.712081147 152.575462067 328 129 328 c 0
129 376 m 0
 137.424537933 376 150.118113078 381.287918853 158.02068917 387.753662928 c 0
 220.441583149 436.420800607 286.936172222 464 352 464 c 0
 435.662853113 464 491.595123362 409.038259854 491.595123362 332.215632581 c 0
 491.579192381 307.609456522 486.125879329 281.649034968 475.220343449 254.930472062 c 0
 431.576427343 148.002877603 313.597562861 64 206 64 c 0
 130.98014651 64 76.8253460571 109.369683924 68.1991398401 175.914703313 c 0
 67.9573226624 177.728332146 68.4882009382 180 60 180 c 0
 46.0260611795 180 21.9067286553 164.353811587 14.2828959712 147.066315478 c 0
 12.2388612555 141.446880207 11.7469048413 136.477293595 11.7786192141 136.255292986 c 0
 21.1637080195 64.5873421088 73.8559088749 16 166 16 c 0
 303.322392534 16 468.466895223 131.990881418 526.819994888 273.167735446 c 0
 541.273078751 308.134873827 547.932014117 340.414239946 547.932014117 369.189475927 c 0
 547.932014117 431.743900223 516.463004529 477.738394307 465.187570279 498.786125066 c 0
 444.736686727 507.180879729 420.299023502 512 392 512 c 0
 350.556732419 512 306.591095431 502.755729738 263.162243706 484.817725764 c 0
 257.316192034 482.403052248 250.437072115 482.408419088 244.522816133 484.9504425 c 0
 235.465976716 488.843188756 230.066580007 497.905542526 230.066580007 507.216030402 c 0
 230.066580007 510.93494846 230.928036955 514.693455542 232.761962663 518.177914388 c 2
 302.761962663 651.177914388 l 2
 306.546215948 658.367995629 314.948388125 664 324 664 c 2
 601 664 l 2
 615.169122329 664 639.610084286 680.128246698 646.896785974 697.35135978 c 0
 651.685658512 708.670513051 647.460631901 710.268858763 645.47479217 711.088288032 c 0
 644.363545557 711.54682856 642.61325736 712 640 712 c 2
 320 712 l 2
 307.536878969 712 285.336754768 698.616123028 276.180282283 681.711866133 c 2
 125.362917068 394.060202677 l 2
 124.507073437 392.348515414 123.675203205 391.015497676 122.617449201 389.40771159 c 0
 118.166271392 376.903310666 121.837054471 377.453464784 124.13472576 376.689693225 c 0
 125.259976118 376.315647458 126.887338861 376 129 376 c 0
EndSplineSet
EndChar

StartChar: six
Encoding: 54 54 22
Width: 672
Flags: HW
LayerCount: 2
Back
SplineSet
624.0390625 624 m 4
 624.0390625 624 605.862304688 696 493.862304688 696 c 4
 413.862304688 696 224.256835938 624.52734375 118 368 c 4
 7.728515625 101.782226562 136.133789062 40 222.137695312 40 c 4
 352.965820312 40 464.155273438 131.782226562 501.524414062 222 c 4
 541.2890625 318 484.912109375 404 364.912109375 404 c 4
 245.299804688 404 137.18359375 340.1796875 80.7763671875 204 c 1028
EndSplineSet
Fore
SplineSet
649.819306196 633.165434044 m 0
 651.968783476 638.802742381 652.203997596 642.403160017 651.83246005 644.651939895 c 0
 649.89098801 650.744915488 631.542095444 720 514 720 c 0
 461.751856169 720 373.281323076 695.258063962 283.089331587 622.336879353 c 0
 211.238782658 563.898432892 141.653361687 478.150321186 92.1698107257 358.807639455 c 0
 59.9510354577 281.677844117 47.1542787678 220.668051565 47.1542787678 173.09454255 c 0
 47.1542787678 125.023069191 60.2203315048 90.6706336741 79.5169447915 67.268357986 c 0
 110.378746235 29.7337346089 158.433250149 16 202 16 c 0
 265.078365065 16 327.71030628 35.4812353448 382.414093811 69.4353103641 c 0
 450.448585379 111.0119441 503.11755915 172.615446826 527.913712133 231.391513156 c 0
 537.923138952 254.746842401 542.247466698 277.182585529 542.247466698 297.758479337 c 0
 542.247466698 310.269979958 540.648571544 322.093812059 537.756721915 333.018577325 c 0
 523.948934021 388.249728902 472.597873939 428 385 428 c 0
 327.771223123 428 269.88110031 414.841778018 215.166477958 383.31131768 c 0
 205.582338581 377.560834054 195.76556893 371.640164773 186.763096265 365.338433908 c 0
 180.738184043 361.120995352 172.356298735 359.789093369 165.047657718 362.355789874 c 0
 155.20314057 365.813051996 149.051689695 375.32743474 149.051689695 385.217801845 c 0
 149.051689695 388.404314587 149.690223737 391.629855327 151.049508432 394.704427851 c 0
 194.547278886 493.092241974 250.044279643 557.334269402 300.865776998 598.626736003 c 0
 369.055073731 654.030539598 437.004808753 672 474 672 c 0
 518.286948313 672 548.883109982 659.281486726 567.379269216 643.427635954 c 0
 586.804792771 627.644398066 593.945596103 612.69166454 596.483359763 602.076717619 c 1
 596.483359763 602.076717619 596.068033808 600 604 600 c 0
 618.007038731 600 642.003721925 615.443129753 649.819306196 633.165434044 c 0
694.195488196 614.866742805 m 0
 679.309339001 579.681299253 641.860581925 552 604 552 c 0
 579.70434188 552 556.346786398 566.178875844 549.82608575 590.699743164 c 0
 548.374929581 593.764946698 545.073096789 599.704816667 536.620730784 606.572364046 c 0
 527.116890018 614.718513274 509.713051687 624 474 624 c 0
 450.995191247 624 390.944926269 609.969460401 331.134223002 561.373263997 c 0
 298.772128272 535.079062029 263.00917013 496.848893505 231.24492917 444.961937065 c 1
 282.37469195 466.890645799 333.920005031 476 385 476 c 0
 487.402126061 476 564.051065979 425.750271098 584.243278085 344.981422675 c 0
 588.133811253 330.283852928 590.194297938 314.497051531 590.194297938 298.05042495 c 0
 590.194297938 270.734159537 584.510236072 241.59769932 572.086287867 212.608486844 c 0
 542.88244085 143.384553174 483.551414621 74.9880558998 407.585906189 28.5646896359 c 0
 346.28969372 -9.48123534484 274.921634935 -32 202 -32 c 0
 149.562777186 -32 85.6312794127 -15.7459646832 42.4724127708 36.7445488001 c 0
 14.5739301835 70.5788787465 -0.906858058814 115.661341011 -0.906858058814 172.529269398 c 0
 -0.906858058814 228.974120838 14.3444440177 297.02973144 47.8422844646 377.221531298 c 0
 100.326950842 503.802197267 174.802631039 596.135381184 252.883518629 659.641169757 c 0
 350.746812072 738.764683605 448.235976457 768 514 768 c 0
 662.041111817 768 694.672459896 668.183778532 697.776564814 658.565217166 c 0
 697.998159395 657.891836694 698.174687839 657.255783659 698.283420003 656.820855001 c 0
 699.444518145 652.176462436 699.975179384 647.487533506 699.975179384 642.812492321 c 0
 699.975179384 633.274024827 697.76613881 623.79336934 694.195488196 614.866742805 c 0
151.50615344 195.622426929 m 1
 154.376607048 168.888028527 162.821288313 151.971697082 171.558477365 141.218233634 c 0
 189.035457546 120.100215915 218.405591658 112 242 112 c 0
 285.349866634 112 322.664248676 124.506496017 352.240746539 143.327903748 c 0
 390.571196809 167.056277724 419.183210412 200.839704989 431.816281119 231.159074687 c 0
 436.115917231 241.669296293 438.039387255 251.45602007 438.039387255 260.934881192 c 0
 438.039387255 267.108622327 437.223425256 273.151763959 435.716579997 279.179144999 c 0
 428.943727206 306.270556159 402.380163069 332 345 332 c 0
 302.819273138 332 268.16911196 321.990941613 241.024870493 306.229769148 c 0
 207.603400907 286.880497283 177.249778833 256.494025211 151.50615344 195.622426929 c 1
107.694149556 215.257775765 m 0
 135.848564444 281.829760353 174.765579401 323.333122895 216.975129507 347.770230852 c 0
 251.83088804 368.009058387 295.180726862 380 345 380 c 0
 417.619836931 380 469.056272794 343.729443841 482.283420003 290.820855001 c 0
 484.687993882 281.202559488 485.948063961 271.296784236 485.948063961 261.213793044 c 0
 485.948063961 245.384070802 482.842342432 229.117560661 476.183718881 212.840925313 c 0
 458.816789588 171.160295011 423.428803191 130.943722276 377.759253461 102.672096252 c 0
 341.335751324 79.4935039833 294.650133366 64 242 64 c 0
 209.594408342 64 164.964542454 73.8997840848 134.441522635 110.781766366 c 0
 117.78638897 131.280392415 105.306776539 161.079526058 103.041415044 199.590671473 c 0
 102.748413437 204.571698787 104.335372975 210.70758533 107.694149556 215.257775765 c 0
EndSplineSet
EndChar

StartChar: seven
Encoding: 55 55 23
Width: 672
Flags: HW
LayerCount: 2
Back
SplineSet
236.548828125 688 m 1
 684.548828125 688 l 1
 660.524414062 630 l 1
 660.524414062 630 326.391601562 480 160.706054688 80 c 2
 147.451171875 48 l 1025
EndSplineSet
Fore
SplineSet
704 760 m 2
 712.236415217 760 720.248626773 758.59252118 727.60214635 755.570408999 c 0
 750.183914607 746.289868412 759.511151246 725.872310082 759.511151246 705.448443852 c 0
 759.511151246 696.285319955 757.633719322 687.120926372 754.233513936 678.960433447 c 2
 731.252023304 621.007109244 l 2
 721.235370512 596.680952463 700.111476823 576.719468018 675.598842631 565.995700213 c 0
 674.767585093 565.607573662 652.943530951 555.23626102 609.92134265 527.775289765 c 0
 574.897992845 505.399260722 530.002467722 473.192561643 482.253703366 429.341655602 c 0
 396.027425625 349.974286317 298.704189221 235.238815352 231.096972773 70.6299405225 c 1
 217.046311306 38.5141428835 l 2
 202.614360863 4.40226001751 166.072497999 -24 128 -24 c 0
 119.72953643 -24 111.647482821 -22.5256430459 104.216160855 -19.4592109303 c 0
 82.6235337526 -10.5493123276 71.5052632268 9.50558435395 71.5052632268 31.1660503624 c 0
 71.5052632268 39.8865801224 73.307398479 48.867352973 76.9536886936 57.4858571165 c 2
 90.9126064897 89.3919549361 l 1
 203.187195174 361.214643331 389.538698488 528.635369952 513.906809876 616 c 1
 217 616 l 2
 208.731448049 616 200.63881744 617.474430824 193.200741961 620.594250743 c 0
 171.720148871 629.604052052 161.378401015 649.489693436 161.378401015 670.589801682 c 0
 161.378401015 679.537510862 163.238124171 688.7036137 166.896785974 697.35135978 c 0
 181.435331006 731.715193491 217.90919777 760 256 760 c 2
 704 760 l 2
704 712 m 2
 256 712 l 2
 242.09080223 712 218.564668994 696.284806509 211.103214026 678.64864022 c 0
 205.994228064 666.572855219 210.60794598 665.344317127 211.766795489 664.858250295 c 0
 212.732734751 664.45309757 214.384831021 664 217 664 c 2
 595 664 l 2
 602.185710453 664 610.063923226 660.272510827 614.602933023 653.846480307 c 0
 617.521804012 649.714135392 618.907789838 644.924319187 618.907789838 640.167275592 c 0
 618.907789838 631.95280757 614.774999127 623.836062291 607.265809429 619.371138688 c 0
 498.766935859 554.858294943 265.514582465 386.379134113 135.08739351 70.6080450639 c 1
 121.046311306 38.5141428835 l 2
 116.354081503 27.4234178937 120.539126924 25.7312407547 122.52520783 24.911711968 c 0
 123.636454443 24.4531714396 125.38674264 24 128 24 c 0
 141.927502001 24 165.385639137 39.5977399825 172.953688694 57.4858571165 c 2
 186.903027227 89.3700594775 l 1
 257.295810779 260.761184648 359.972574375 382.025713683 449.746296634 464.658344398 c 0
 499.997532278 510.807438357 547.102007155 544.600739278 584.07865735 568.224710235 c 0
 632.158423448 598.913922639 654.459598951 609.113433749 656.353043168 609.978790548 c 0
 669.92825741 615.694670229 682.656272344 629.055894474 686.747976696 638.992890756 c 2
 709.766486064 697.039566553 l 2
 714.834007961 709.201619106 710.028793081 710.897082086 709.356140341 711.173525497 c 0
 708.484201783 711.531870383 706.833352225 712 704 712 c 2
EndSplineSet
EndChar

StartChar: eight
Encoding: 56 56 24
Width: 672
Flags: HW
LayerCount: 2
Back
SplineSet
424.970703125 380 m 0
 424.970703125 380 574.693359375 451.756835938 612.901367188 544 c 0
 647.942382812 628.595703125 582.336914062 696 471.862304688 696 c 0
 353.387695312 696 239.833007812 628.333007812 204.901367188 544 c 0
 168.451171875 456 227.642578125 386 353.456054688 386 c 0
 496.525390625 386 526.653320312 297.151367188 493.0390625 216 c 0
 455.416992188 125.171875 342.258789062 40 200.137695312 40 c 0
 68.1376953125 40 19.90234375 136 58.009765625 228 c 0
 109.373046875 352 257.254882812 400 257.254882812 400 c 1024
EndSplineSet
Fore
SplineSet
275.002713927 534.407673084 m 0
 271.122584209 524.881323663 269.399469412 516.694500883 269.94280972 510.717757495 c 0
 270.999987243 490.631384555 293.249050968 458 373 458 c 0
 393.221028905 458 409.937623835 456.553989319 427.66416673 453.973342987 c 1
 441.068258872 461.456938688 461.710073937 473.936578071 482.839601856 489.377386934 c 0
 513.908998685 511.973311901 536.695923436 538.198200349 542.896341359 553.354777495 c 0
 548.109639497 565.270887525 548.1260921 573.562792065 544.666765575 582.211108377 c 0
 537.740353289 600.104340116 507.340158727 624 452 624 c 0
 379.842332923 624 318.705934596 591.169392684 291.888611981 560.999904742 c 0
 285.024328911 553.372923553 279.625768168 544.418631669 275.002713927 534.407673084 c 0
230.993103366 553.583448079 m 0
 237.089588135 566.99571457 244.846813347 580.483901177 256.111388019 593.000095258 c 0
 293.294065404 634.830607316 366.157667077 672 452 672 c 0
 518.659841273 672 572.259646711 643.895659884 589.333234425 599.788891623 c 0
 593.09101426 590.394442036 594.811431255 580.543819415 594.811431255 570.746429282 c 0
 594.811431255 558.276333367 592.024331534 545.892474832 587.103658641 534.645222505 c 0
 575.299931214 505.791666573 546.114800827 476.043919492 511.138277868 450.606448249 c 0
 484.045768253 430.808075838 459.132640171 416.270741424 443.294117647 407.823529412 c 0
 438.610458973 405.325578119 432.66291072 404.558464759 428.054424305 405.326545828 c 0
 411.051518376 408.160363483 393.544022321 410 373 410 c 0
 282.307892748 410 225.56972539 451.992641638 222.104488154 506.540513495 c 0
 221.922160436 509.126859249 221.835297774 511.590308149 221.835297774 513.95067138 c 0
 221.835297774 529.81290771 225.758171123 541.019610695 230.993103366 553.583448079 c 0
467.137297902 206.725028178 m 0
 447.419980937 158.011656852 402.073457232 113.863940513 337.072535545 86.7802231439 c 0
 304.271603481 73.6598503181 264.62088642 64 220 64 c 0
 192.287293245 64 168.118035434 68.5619357148 147.630366062 77.1027030967 c 0
 96.724548945 98.3239915933 73.5676877546 142.068343398 73.5676877546 186.412390438 c 0
 73.5676877546 203.733315253 77.1007492193 221.145736067 83.8932078846 237.343137499 c 0
 110.241115564 299.203442486 164.740742392 338.17365121 207.781369511 360.218850467 c 0
 219.422074739 366.568326045 229.310585638 370.488108549 233.266873708 372.466252584 c 0
 238.90430435 375.284967905 246.342376912 375.389675736 251.058060372 373.938696209 c 0
 274.641464374 366.682264209 303.423090852 362 334 362 c 0
 393.14964637 362 431.903539095 345.689123461 454.974366726 319.904080814 c 0
 471.338884627 301.201774642 477.998129236 279.052913016 477.998129236 256.968869593 c 0
 477.998129236 239.612713744 473.884976228 222.296593545 467.137297902 206.725028178 c 0
422.862702098 225.274971822 m 0
 427.58079281 236.162873467 429.876444845 246.81546227 429.876444845 256.575228651 c 0
 429.876444845 268.971604952 426.172907586 279.927605687 419.025633274 288.095919186 c 0
 408.096460905 300.310876539 384.85035363 314 334 314 c 0
 302.124993961 314 273.390306398 318.031767737 245.925715835 325.45693535 c 0
 241.796058432 323.603930532 236.728696838 321.332094815 230.218630489 317.781149533 c 0
 191.259257608 297.82634879 147.758884436 264.796557514 128.106792115 218.656862501 c 0
 123.496064676 207.662050915 121.106834808 196.365668607 121.106834808 185.427885706 c 0
 121.106834808 158.773501385 135.295340149 134.248669209 166.099714043 121.40714063 c 0
 179.775758883 115.705959322 197.525656395 112 220 112 c 0
 257.37911358 112 291.728396519 120.340149682 318.927464455 131.219776856 c 0
 373.926542768 154.136059487 408.580019063 189.988343148 422.862702098 225.274971822 c 0
179.500751495 380.512657272 m 0
 123.171353183 346.142176946 62.4761754152 292.277509943 32.1649323459 218.795708563 c 0
 21.7867070253 193.969365639 17.025066656 170.396149447 17.025066656 148.423785099 c 0
 17.025066656 75.4322980848 69.6896612253 16 180 16 c 0
 247.492193896 16 312.714945846 34.8337295206 369.353564399 65.9849697249 c 0
 440.029740726 105.563628468 494.243626653 165.09258599 518.816281119 225.159074687 c 0
 528.764486444 249.034767465 533.656691587 271.929084947 533.656691587 292.98317946 c 0
 533.656691587 320.261644096 525.444267493 344.450971829 509.375665966 363.683208537 c 2
 501.029437252 372.029437252 l 2
 496.318789851 376.740084652 494.346567853 382.602597777 494.346567853 388.353039897 c 0
 494.346567853 396.503163547 498.308269089 404.42816455 504.050283351 408.529603309 c 0
 511.077981586 413.549387762 517.810784668 418.358088501 525.635820771 424.226865578 c 0
 567.497173173 455.379499924 616.666883274 500.000519857 638.878828726 553.309188943 c 0
 646.796658098 571.939375699 650.057923876 589.250952925 650.057923876 605.008803922 c 0
 650.057923876 618.740362608 647.581460619 631.292089235 643.551818418 642.508404432 c 0
 624.967581283 689.25568637 572.231116158 720 492 720 c 0
 393.663565093 720 287.727839899 676.184852746 222.030826975 602.160049452 c 0
 203.755282694 581.143173528 188.896644516 557.796748652 179.165705134 534.796346475 c 0
 170.396332726 513.271523294 166.86864232 492.148465693 166.86864232 474.353435945 c 0
 166.86864232 449.183283636 174.714525763 430.98888208 186.321340096 415.236776913 c 0
 189.422914026 411.027498008 190.738926316 406.324345537 190.738926316 401.721230856 c 0
 190.738926316 392.87976462 185.883750732 384.407368671 179.500751495 380.512657272 c 0
134.378981347 408.549127185 m 1
 125.897752199 425.969146376 120.708688292 444.865336753 119.040022266 466.557995099 c 0
 118.919328316 469.333955948 118.857855577 472.125226959 118.857855577 474.93204795 c 0
 118.857855577 499.751453812 123.664432469 525.786718549 134.834294866 553.203653525 c 0
 147.103355484 582.203251348 164.244717306 608.856826472 185.969173025 633.839950548 c 0
 262.272160101 719.815147254 380.336434907 768 492 768 c 0
 583.488639946 768 660.361140983 731.542701787 688.449316357 659.490425828 c 0
 694.579227257 642.772487009 698.013669832 624.443100336 698.013669832 605.077196204 c 0
 698.013669832 582.703070768 693.429371832 558.945400605 683.121171274 534.690811058 c 0
 655.325665592 467.98159742 598.542792081 418.650241661 554.328258464 385.746402689 c 0
 553.528258464 385.146402689 554.274381458 385.70502917 553.473500923 385.106205015 c 0
 572.776348355 357.831185647 581.497713171 326.109874225 581.497713171 293.116859137 c 0
 581.497713171 264.625102715 574.993737802 235.184970724 563.183718881 206.840925313 c 0
 533.756373347 134.90741401 471.970259274 68.436371532 392.646435601 24.0150302751 c 0
 329.285054154 -10.8337295206 256.507806104 -32 180 -32 c 0
 49.7365574671 -32 -30.9749252636 45.8803527609 -30.9749252636 148.432111812 c 0
 -30.9749252636 177.381590822 -24.6322866111 207.380424371 -12.1649323459 237.204291437 c 0
 19.6854758695 314.417402262 77.1704596009 369.662905763 134.378981347 408.549127185 c 1
EndSplineSet
EndChar

StartChar: nine
Encoding: 57 57 25
Width: 672
Flags: HW
LayerCount: 2
Back
SplineSet
47.9609375 112 m 0
 47.9609375 112 66.1376953125 40 178.137695312 40 c 0
 258.137695312 40 447.743164062 111.47265625 554 368 c 0
 664.271484375 634.217773438 535.866210938 696 449.862304688 696 c 0
 319.034179688 696 207.844726562 604.217773438 170.475585938 514 c 0
 130.7109375 418 187.087890625 332 307.087890625 332 c 0
 426.700195312 332 534.81640625 395.8203125 591.223632812 532 c 1024
EndSplineSet
Fore
SplineSet
22.1806938035 102.834565956 m 0
 20.0312165238 97.1972576189 19.7960024045 93.5968399833 20.1675399496 91.3480601049 c 0
 22.1090119902 85.255084512 40.4579045557 16 158 16 c 0
 210.248143831 16 298.718676924 40.7419360383 388.910668413 113.663120647 c 0
 460.761217342 172.101567108 530.346638313 257.849678814 579.830189274 377.192360545 c 0
 612.048964542 454.322155883 624.845721232 515.331948435 624.845721232 562.90545745 c 0
 624.845721232 610.976930809 611.779668495 645.329366326 592.483055208 668.731642014 c 0
 561.621253765 706.266265391 513.566749851 720 470 720 c 0
 406.921634935 720 344.28969372 700.518764655 289.585906189 666.564689636 c 0
 221.551414621 624.9880559 168.88244085 563.384553174 144.086287867 504.608486844 c 0
 134.076861048 481.253157599 129.752533302 458.817414471 129.752533302 438.241520663 c 0
 129.752533302 425.730020042 131.351428456 413.906187941 134.243278085 402.981422675 c 0
 148.051065979 347.750271098 199.402126061 308 287 308 c 0
 344.228776877 308 402.11889969 321.158221982 456.833522042 352.68868232 c 0
 466.417661419 358.439165946 476.23443107 364.359835227 485.236903735 370.661566092 c 0
 491.261815957 374.879004648 499.643701265 376.210906631 506.952342282 373.644210126 c 0
 516.79685943 370.186948004 522.948310305 360.67256526 522.948310305 350.782198155 c 0
 522.948310305 347.595685413 522.309776263 344.370144673 520.950491568 341.295572149 c 0
 477.452721114 242.907758026 421.955720357 178.665730598 371.134223002 137.373263997 c 0
 302.944926269 81.9694604015 234.995191247 64 198 64 c 0
 153.713051687 64 123.116890018 76.7185132737 104.620730784 92.5723640461 c 0
 85.1952072295 108.355601934 78.0544038971 123.30833546 75.5166402373 133.923282381 c 1
 75.5166402373 133.923282381 75.9319661916 136 68 136 c 0
 53.9929612686 136 29.9962780751 120.556870247 22.1806938035 102.834565956 c 0
-22.1954881961 121.133257195 m 0
 -7.30933900102 156.318700747 30.1394180747 184 68 184 c 0
 92.2956581202 184 115.653213602 169.821124156 122.17391425 145.300256836 c 0
 123.625070419 142.235053302 126.926903211 136.295183333 135.379269216 129.427635954 c 0
 144.883109982 121.281486726 162.286948313 112 198 112 c 0
 221.004808753 112 281.055073731 126.030539598 340.865776998 174.626736003 c 0
 373.227871728 200.920937971 408.99082987 239.151106495 440.75507083 291.038062935 c 1
 389.62530805 269.109354201 338.079994969 260 287 260 c 0
 184.597873939 260 107.948934021 310.249728902 87.7567219149 391.018577325 c 0
 83.8661887469 405.716147072 81.8057020617 421.502948469 81.8057020617 437.94957505 c 0
 81.8057020617 465.265840463 87.4897639284 494.40230068 99.9137121326 523.391513156 c 0
 129.11755915 592.615446826 188.448585379 661.0119441 264.414093811 707.435310364 c 0
 325.71030628 745.481235345 397.078365065 768 470 768 c 0
 522.437222814 768 586.368720587 751.745964683 629.527587229 699.2554512 c 0
 657.426069817 665.421121253 672.906858059 620.338658989 672.906858059 563.470730602 c 0
 672.906858059 507.025879162 657.655555982 438.97026856 624.157715535 358.778468702 c 0
 571.673049158 232.197802733 497.197368961 139.864618816 419.116481371 76.3588302429 c 0
 321.253187928 -2.76468360501 223.764023543 -32 158 -32 c 0
 9.95888818341 -32 -22.6724598961 67.8162214675 -25.776564814 77.4347828335 c 0
 -25.9981593954 78.1081633059 -26.174687839 78.7442163413 -26.2834200035 79.1791449991 c 0
 -27.4445181447 83.823537564 -27.9751793841 88.5124664937 -27.9751793841 93.1875076789 c 0
 -27.9751793841 102.725975173 -25.7661388101 112.20663066 -22.1954881961 121.133257195 c 0
520.49384656 540.377573071 m 1
 517.623392952 567.111971473 509.178711687 584.028302918 500.441522635 594.781766367 c 0
 482.964542454 615.899784085 453.594408342 624 430 624 c 0
 386.650133366 624 349.335751324 611.493503983 319.759253461 592.672096252 c 0
 281.428803191 568.943722276 252.816789588 535.160295011 240.183718881 504.840925313 c 0
 235.884082769 494.330703707 233.960612745 484.54397993 233.960612745 475.065118808 c 0
 233.960612745 468.891377673 234.776574744 462.848236041 236.283420003 456.820855001 c 0
 243.056272794 429.729443841 269.619836931 404 327 404 c 0
 369.180726862 404 403.83088804 414.009058387 430.975129507 429.770230852 c 0
 464.396599093 449.119502717 494.750221167 479.505974789 520.49384656 540.377573071 c 1
564.305850444 520.742224235 m 0
 536.151435556 454.170239647 497.234420599 412.666877105 455.024870493 388.229769148 c 0
 420.16911196 367.990941613 376.819273138 356 327 356 c 0
 254.380163069 356 202.943727206 392.270556159 189.716579997 445.179144999 c 0
 187.312006118 454.797440512 186.051936039 464.703215764 186.051936039 474.786206956 c 0
 186.051936039 490.615929198 189.157657568 506.882439339 195.816281119 523.159074687 c 0
 213.183210412 564.839704989 248.571196809 605.056277724 294.240746539 633.327903748 c 0
 330.664248676 656.506496017 377.349866634 672 430 672 c 0
 462.405591658 672 507.035457546 662.100215915 537.558477365 625.218233633 c 0
 554.21361103 604.719607585 566.693223461 574.920473942 568.958584956 536.409328527 c 0
 569.251586563 531.428301213 567.664627025 525.29241467 564.305850444 520.742224235 c 0
EndSplineSet
EndChar

StartChar: colon
Encoding: 58 58 26
Width: 288
Flags: HW
LayerCount: 2
Back
SplineSet
203.16796875 456 m 0
 193.709960938 443.068359375 175.817382812 432 162.509765625 432 c 0
 154.509765625 432 149.823242188 440 153.13671875 448 c 0
 154.251953125 450.692382812 155.8203125 453.383789062 157.733398438 456 c 1024
157.733398438 456 m 0
 167.19140625 468.931640625 185.083984375 480 198.391601562 480 c 0
 206.391601562 480 211.078125 472 207.764648438 464 c 0
 206.649414062 461.307617188 205.081054688 458.616210938 203.16796875 456 c 1024
44.1103515625 72 m 0
 34.65234375 59.068359375 16.759765625 48 3.451171875 48 c 0
 -4.548828125 48 -9.234375 56 -5.9208984375 64 c 0
 -4.8056640625 66.6923828125 -3.2373046875 69.3837890625 -1.32421875 72 c 1024
-1.32421875 72 m 0
 8.1328125 84.931640625 26.0263671875 96 39.333984375 96 c 0
 47.333984375 96 52.0205078125 88 48.7060546875 80 c 0
 47.591796875 77.3076171875 46.0234375 74.6162109375 44.1103515625 72 c 1024
EndSplineSet
Fore
SplineSet
101.986188609 40.9512317826 m 0
 85.8133023915 19.0023147728 67.0856007302 4.29232389558 45.2361003549 -7.20741314405 c 0
 28.2040407502 -16.2911782666 7.36082787314 -24 -16 -24 c 0
 -41.8303547316 -24 -60.1671799544 -11.2752144432 -70.0026028865 1.328711146 c 0
 -78.4351921753 12.3113048246 -83.0942719959 25.5594208948 -83.0942719959 40.4147173054 c 0
 -83.0942719959 50.6727947904 -80.872653626 61.6972341978 -76.13782393 73.2712623435 c 0
 -72.2042354357 82.4496354969 -67.7192284074 90.1877726945 -62.9692070641 97.3128047094 c 0
 -62.8827516093 97.4424878916 -60.3241218684 101.124719848 -58.9861886092 103.048768217 c 0
 -42.8133023915 124.997685227 -24.0856007302 139.707676104 -2.2361003549 151.207413144 c 0
 14.7959592498 160.291178267 35.6391721269 168 59 168 c 0
 90.0333767927 168 111.599019314 150.762353646 120.219776856 130.072535545 c 0
 123.354807473 122.234959003 125.519244133 113.051343961 125.519244133 102.600126786 c 0
 125.519244133 93.0737902697 123.720940697 82.4942775102 119.220217631 70.9209896252 c 0
 115.098450506 61.3035329993 110.791056857 53.9199699795 105.969207064 46.6871952906 c 0
 105.882751609 46.5575121084 103.324121868 42.8752801517 101.986188609 40.9512317826 c 0
-21.5890227075 72.8882323797 m 0
 -25.3042328403 67.2299769475 -29.8985011387 59.3106458294 -31.86217607 54.7287376565 c 0
 -38.1148624053 39.4443932813 -34.5847067379 33.899628847 -32.0249450952 30.6999267936 c 0
 -29.5174637882 27.3566183843 -26.3930154779 24 -16 24 c 0
 -3.36082787314 24 9.79595924979 28.2911782666 22.7638996451 35.2074131441 c 0
 38.6787306 43.5836399624 52.7166250398 55.2269661999 64.5890227075 71.1117676203 c 0
 68.3738592932 76.8760639603 72.295011893 83.4501787191 74.7886530453 89.0996520187 c 0
 79.1268902188 100.805338952 78.0148630261 106.123648148 75.7918672542 111.89906324 c 0
 74.3121266573 115.25643693 72.0293788599 120 59 120 c 0
 46.3608278731 120 33.2040407502 115.708821733 20.2361003549 108.792586856 c 0
 4.32126939998 100.416360038 -9.7166250398 88.7730338001 -21.5890227075 72.8882323797 c 0
260.986188609 424.951231783 m 0
 244.813302391 403.002314773 226.08560073 388.292323896 204.236100355 376.792586856 c 0
 187.20404075 367.708821733 166.360827873 360 143 360 c 0
 111.966623207 360 90.4009806859 377.237646354 81.7802231439 397.927464455 c 0
 78.6451925271 405.765040997 76.480755867 414.948656039 76.480755867 425.399873214 c 0
 76.480755867 434.92620973 78.2790593027 445.50572249 82.7797823691 457.079010375 c 0
 86.9015494945 466.696467001 91.2089431433 474.080030021 96.0307929359 481.312804709 c 0
 96.1172483907 481.442487892 98.6758781316 485.124719848 100.013811391 487.048768217 c 0
 116.186697609 508.997685227 134.91439927 523.707676104 156.763899645 535.207413144 c 0
 173.79595925 544.291178267 194.639172127 552 218 552 c 0
 249.033376793 552 270.599019314 534.762353646 279.219776856 514.072535545 c 0
 282.354807473 506.234959003 284.519244133 497.051343961 284.519244133 486.600126786 c 0
 284.519244133 477.07379027 282.720940697 466.49427751 278.220217631 454.920989625 c 0
 274.098450506 445.303532999 269.791056857 437.919969979 264.969207064 430.687195291 c 0
 264.882751609 430.557512108 262.324121868 426.875280152 260.986188609 424.951231783 c 0
137.410977292 456.88823238 m 0
 133.626140707 451.12393604 129.704988107 444.549821281 127.211346955 438.900347981 c 0
 122.873109781 427.194661048 123.985136974 421.876351852 126.208132746 416.10093676 c 0
 127.687873343 412.74356307 129.97062114 408 143 408 c 0
 155.639172127 408 168.79595925 412.291178267 181.763899645 419.207413144 c 0
 197.6787306 427.583639962 211.71662504 439.2269662 223.589022708 455.11176762 c 0
 227.373859293 460.87606396 231.295011893 467.450178719 233.788653045 473.099652019 c 0
 238.126890219 484.805338952 237.014863026 490.123648148 234.791867254 495.89906324 c 0
 233.312126657 499.25643693 231.02937886 504 218 504 c 0
 205.360827873 504 192.20404075 499.708821733 179.236100355 492.792586856 c 0
 163.3212694 484.416360038 149.28337496 472.7730338 137.410977292 456.88823238 c 0
EndSplineSet
EndChar

StartChar: semicolon
Encoding: 59 59 27
Width: 296
Flags: HW
LayerCount: 2
Back
SplineSet
39.333984375 96 m 0
 47.333984375 96 52.0205078125 88.0009765625 48.7060546875 79.9990234375 c 0
 42.0791015625 64 19.451171875 48 3.451171875 48 c 0
 -4.5478515625 48 -9.234375 56 -5.9208984375 64 c 0
 0.7060546875 80 23.333984375 96 39.333984375 96 c 0
 47.333984375 96 60.0205078125 88 50.0791015625 64 c 0
 33.5107421875 24 -33.626953125 -56 -33.626953125 -56 c 1024
203.16796875 456 m 0
 193.709960938 443.068359375 175.817382812 432 162.509765625 432 c 0
 154.509765625 432 149.823242188 440 153.13671875 448 c 0
 154.251953125 450.692382812 155.8203125 453.383789062 157.733398438 456 c 1024
157.733398438 456 m 0
 167.19140625 468.931640625 185.083984375 480 198.391601562 480 c 0
 206.391601562 480 211.078125 472 207.764648438 464 c 0
 206.649414062 461.307617188 205.081054688 458.616210938 203.16796875 456 c 1024
EndSplineSet
Fore
SplineSet
260.986188609 424.951231783 m 0
 244.813302391 403.002314773 226.08560073 388.292323896 204.236100355 376.792586856 c 0
 187.20404075 367.708821733 166.360827873 360 143 360 c 0
 111.966623207 360 90.4009806859 377.237646354 81.7802231439 397.927464455 c 0
 78.6451925271 405.765040997 76.480755867 414.948656039 76.480755867 425.399873214 c 0
 76.480755867 434.92620973 78.2790593027 445.50572249 82.7797823691 457.079010375 c 0
 86.9015494945 466.696467001 91.2089431433 474.080030021 96.0307929359 481.312804709 c 0
 96.1172483907 481.442487892 98.6758781316 485.124719848 100.013811391 487.048768217 c 0
 116.186697609 508.997685227 134.91439927 523.707676104 156.763899645 535.207413144 c 0
 173.79595925 544.291178267 194.639172127 552 218 552 c 0
 249.033376793 552 270.599019314 534.762353646 279.219776856 514.072535545 c 0
 282.354807473 506.234959003 284.519244133 497.051343961 284.519244133 486.600126786 c 0
 284.519244133 477.07379027 282.720940697 466.49427751 278.220217631 454.920989625 c 0
 274.098450506 445.303532999 269.791056857 437.919969979 264.969207064 430.687195291 c 0
 264.882751609 430.557512108 262.324121868 426.875280152 260.986188609 424.951231783 c 0
137.410977292 456.88823238 m 0
 133.626140707 451.12393604 129.704988107 444.549821281 127.211346955 438.900347981 c 0
 122.873109781 427.194661048 123.985136974 421.876351852 126.208132746 416.10093676 c 0
 127.687873343 412.74356307 129.97062114 408 143 408 c 0
 155.639172127 408 168.79595925 412.291178267 181.763899645 419.207413144 c 0
 197.6787306 427.583639962 211.71662504 439.2269662 223.589022708 455.11176762 c 0
 227.373859293 460.87606396 231.295011893 467.450178719 233.788653045 473.099652019 c 0
 238.126890219 484.805338952 237.014863026 490.123648148 234.791867254 495.89906324 c 0
 233.312126657 499.25643693 231.02937886 504 218 504 c 0
 205.360827873 504 192.20404075 499.708821733 179.236100355 492.792586856 c 0
 163.3212694 484.416360038 149.28337496 472.7730338 137.410977292 456.88823238 c 0
120.304904649 55.1364883561 m 0
 114.718945527 40.6129946392 105.945078359 25.7212629304 98.2849982897 14.1609695683 c 0
 87.9363288875 -2.94498714379 77.5885053463 -16.867253797 67.4035619432 -31.1261745614 c 0
 43.9759509189 -62.702519855 23.7606673914 -87.7580308938 21.2443246022 -90.6036275111 c 0
 1.92808380808 -113.426773003 -25.2470593637 -128 -54 -128 c 0
 -62.2685519512 -128 -70.3611825602 -126.525569176 -77.7992580395 -123.405749257 c 0
 -99.2711995515 -114.399576758 -109.620758068 -94.543974802 -109.620758068 -73.4336674707 c 0
 -109.620758068 -64.4695518268 -107.754603493 -55.2791971436 -104.081466795 -46.5972376746 c 0
 -99.9310293284 -36.9128835859 -94.4435771615 -28.8430967223 -88.4430017797 -21.6424062642 c 2
 -88.4430017797 -21.6424062642 -80.1760827834 -11.684514009 -69.9442959173 1.0685465024 c 1
 -74.2311123146 7.1653520452 -75.0032752224 8.74812400527 -77.1747570322 13.8149148949 c 0
 -80.3486289421 21.7495946696 -82.5073204453 31.0206994722 -82.5073204453 41.4863321903 c 0
 -82.5073204453 50.9987292389 -80.7239583071 61.4979629218 -76.2985886787 72.8774848233 c 0
 -62.5056977041 106.73276267 -36.2357734068 129.794819972 -12.8365539837 144.280051043 c 0
 6.09175759233 156.527782063 31.2889554539 168 59 168 c 0
 71.1315622981 168 80.665904061 165.58242945 89.2434288545 162.151419532 c 0
 115.636126737 150.676333496 129.267037108 126.485205994 129.267037108 97.6475583446 c 0
 129.267037108 84.2136291597 126.308947613 69.7713430814 120.304904649 55.1364883561 c 0
75.6950953513 72.8635116439 m 0
 80.2284268136 83.9135070832 81.9662878289 92.2737060126 81.9662878289 98.6362081124 c 0
 81.9662878289 110.448188442 75.9765944088 115.374927979 70.7644174222 117.84488929 c 0
 68.3686292796 118.701297812 62.8642558474 120 59 120 c 0
 44.7110445461 120 27.9082424077 113.472217937 12.8365539837 103.719948957 c 0
 -5.76422659317 92.2051800285 -23.4943022959 75.26723733 -31.7014113213 55.1225151767 c 0
 -36.3563124158 43.1527695051 -34.9430007404 37.6896513042 -32.838258248 32.2214620659 c 0
 -31.7479773207 29.8301775458 -28.9232571677 26.6739573238 -27.2526768147 25.9314771669 c 0
 -26.9940351261 25.8165253053 -24.8157511825 24.7176080232 -23.7370446562 24.0023502506 c 0
 -16.8121086139 19.4106339604 -13.0996622301 11.6694442785 -13.0996622301 3.86461771322 c 0
 -13.0996622301 -1.28913777532 -14.7184178795 -6.47064115672 -18.0998799758 -10.7913982798 c 0
 -36.3348561072 -34.0916455588 -51.4695588715 -52.2525874377 -51.5569982203 -52.3575937358 c 0
 -55.5564228385 -57.1569032777 -58.0689706716 -61.0871164141 -59.9185332051 -65.4027623254 c 0
 -64.9905842288 -77.3912465634 -60.3920859796 -78.6556694683 -59.233204511 -79.141749705 c 0
 -58.2672652495 -79.5469024299 -56.615168979 -80 -54 -80 c 0
 -42.9272659449 -80 -25.3041531506 -71.6161021762 -15.5263256548 -59.7430259313 c 0
 -15.43465597 -59.6317127426 -15.0744706167 -59.2066196461 -14.8315324115 -58.9364735376 c 0
 -12.2899627973 -55.9017242514 7.88564776582 -30.7883688743 28.5964380568 -2.87382543863 c 0
 38.4269409704 10.8888786403 49.2796003365 25.7802823863 57.4201697829 39.3478981303 c 0
 57.558265574 39.5780577821 57.829639402 40.0110744085 58.0307929359 40.3128047094 c 0
 65.6192676217 51.6955167381 71.4005309505 61.6976442017 75.6950953513 72.8635116439 c 0
EndSplineSet
EndChar

StartChar: less
Encoding: 60 60 28
Width: 640
Flags: HW
LayerCount: 2
Back
SplineSet
446.530273438 152 m 1
 104 368 l 1025
625.469726562 584 m 1
 104 368 l 1025
EndSplineSet
Fore
SplineSet
517.111247834 142.667629221 m 0
 502.38290034 107.855171508 464.833463858 80 427 80 c 0
 414.927190777 80 404.255294543 82.6582541788 394.416485847 88.5615393967 c 2
 55.7297085102 302.468977715 l 2
 53.6904971523 303.237943063 51.4749450008 304.505626462 50.6871952906 305.030792936 c 0
 35.0677171036 315.443778394 28.0774273189 332.100591778 28.0774273189 349.491343995 c 0
 28.0774273189 358.768904389 30.0668452388 368.255341826 33.7968535892 377.114111659 c 0
 44.8930555486 404.854616557 70.6051020975 425.379339691 95.4106742205 434.420106776 c 2
 613.183685177 649.325893177 l 2
 622.94686818 652.987086803 632.62185235 656 645 656 c 0
 653.27046357 656 661.352517179 654.525643046 668.783839145 651.45921093 c 0
 690.402677052 642.538496802 701.498516181 622.391410835 701.498516181 600.76456801 c 0
 701.498516181 592.094076577 699.715064569 583.185741505 696.111247834 574.667629221 c 0
 685.093649281 548.500832658 662.4966819 529.063198954 638.245772815 518.852289866 c 2
 263.090274624 363.584583676 l 1
 499.048527597 215.145391805 l 2
 514.8507763 204.610559337 522.709511325 187.697209463 522.709511325 169.535897457 c 0
 522.709511325 160.678255788 520.840144974 151.52375993 517.111247834 142.667629221 c 0
472.888752166 161.332370779 m 0
 477.450483121 172.166481796 473.684977446 174.327571006 472.847031099 174.920311269 c 2
 198.22031948 347.685478942 l 2
 195.689646449 349.27750234 191.582226411 353.242208532 189.612678866 357.110441024 c 0
 187.87817228 360.517048163 187.063645107 364.169526523 187.063645107 367.782289952 c 0
 187.063645107 377.207281873 192.607201921 386.361979582 201.821995059 390.175757604 c 2
 619.754227185 563.147710134 l 2
 633.497640748 568.934410582 646.914316382 581.518085792 651.880750997 593.313368001 c 0
 656.696912618 604.697022742 652.460528854 606.268901284 650.47479217 607.088288032 c 0
 649.363545557 607.54682856 647.61325736 608 645 608 c 0
 641.029051303 608 638.454499797 607.483311227 630.827124655 604.678593529 c 2
 113.200375381 389.833514197 l 2
 112.904234133 389.710598428 112.33675902 389.490321537 111.928410193 389.347399447 c 0
 97.8863455468 384.432676821 83.1589587186 371.275419111 78.2031464108 358.885888341 c 0
 74.8470562733 350.915174265 75.8575846746 347.289414549 76.3091607041 346.173531664 c 0
 76.5054247944 346.063772665 77.3536682367 345.583626445 77.8158317933 345.291733673 c 2
 419.47652831 129.506030609 l 2
 419.873873631 129.283739521 423.011592141 128 427 128 c 0
 441.169122329 128 465.602050477 144.109257696 472.888752166 161.332370779 c 0
EndSplineSet
EndChar

StartChar: equal
Encoding: 61 61 29
Width: 640
Flags: HW
AnchorPoint: "middle" 320 368 basechar 0
LayerCount: 2
Back
SplineSet
54.2939453125 248 m 1
 486.293945312 248 l 1025
153.706054688 488 m 1
 585.706054688 488 l 1025
EndSplineSet
Fore
SplineSet
134 416 m 2
 125.731448049 416 117.63881744 417.474430824 110.200741961 420.594250743 c 0
 88.7201488712 429.604052052 78.3784010153 449.489693436 78.3784010153 470.589801682 c 0
 78.3784010153 479.537510862 80.2381241712 488.7036137 83.8967859744 497.35135978 c 0
 98.6100842857 532.128246698 136.169122329 560 174 560 c 2
 606 560 l 2
 614.268551951 560 622.36118256 558.525569176 629.799258039 555.405749257 c 0
 651.279851129 546.395947948 661.621598985 526.510306564 661.621598985 505.410198318 c 0
 661.621598985 496.462489138 659.761875829 487.2963863 656.103214026 478.64864022 c 0
 641.389915714 443.871753302 603.830877671 416 566 416 c 2
 134 416 l 2
134 464 m 2
 566 464 l 2
 580.169122329 464 604.610084286 480.128246698 611.896785974 497.35135978 c 0
 617.005771936 509.427144781 612.39205402 510.655682873 611.233204511 511.141749705 c 0
 610.267265249 511.54690243 608.615168979 512 606 512 c 2
 174 512 l 2
 159.830877671 512 135.389915714 495.871753302 128.103214026 478.64864022 c 0
 122.994228064 466.572855219 127.60794598 465.344317127 128.766795489 464.858250295 c 0
 129.732734751 464.45309757 131.384831021 464 134 464 c 2
34 176 m 2
 25.7314480488 176 17.6388174398 177.474430824 10.2007419605 180.594250743 c 0
 -11.2798511288 189.604052052 -21.6215989847 209.489693436 -21.6215989847 230.589801682 c 0
 -21.6215989847 239.537510862 -19.7618758288 248.7036137 -16.1032140256 257.35135978 c 0
 -1.38991571428 292.128246698 36.1691223292 320 74 320 c 2
 506 320 l 2
 514.268551951 320 522.36118256 318.525569176 529.799258039 315.405749257 c 0
 551.279851129 306.395947948 561.621598985 286.510306564 561.621598985 265.410198318 c 0
 561.621598985 256.462489138 559.761875829 247.2963863 556.103214026 238.64864022 c 0
 541.389915714 203.871753302 503.830877671 176 466 176 c 2
 34 176 l 2
34 224 m 2
 466 224 l 2
 480.169122329 224 504.610084286 240.128246698 511.896785974 257.35135978 c 0
 517.005771936 269.427144781 512.39205402 270.655682873 511.233204511 271.141749705 c 0
 510.267265249 271.54690243 508.615168979 272 506 272 c 2
 74 272 l 2
 59.8308776708 272 35.3899157143 255.871753302 28.1032140256 238.64864022 c 0
 22.9942280636 226.572855219 27.6079459795 225.344317127 28.766795489 224.858250295 c 0
 29.7327347505 224.45309757 31.384831021 224 34 224 c 2
EndSplineSet
EndChar

StartChar: greater
Encoding: 62 62 30
Width: 640
Flags: HW
LayerCount: 2
Back
SplineSet
14.5302734375 152 m 1
 536 368 l 1025
193.469726562 584 m 1
 536 368 l 1025
EndSplineSet
Fore
SplineSet
-5 80 m 0
 -13.2704635702 80 -21.3525171792 81.4743569541 -28.7838391455 84.5407890697 c 0
 -50.4026770524 93.4615031982 -61.4985161808 113.608589165 -61.4985161808 135.23543199 c 0
 -61.4985161808 143.905923423 -59.7150645693 152.814258495 -56.111247834 161.332370779 c 0
 -45.093649281 187.499167342 -22.4966819002 206.936801046 1.75422718512 217.147710134 c 2
 376.909725376 372.415416324 l 1
 140.951472403 520.854608195 l 2
 125.148925727 531.389639311 117.285017997 548.289679733 117.285017997 566.450701454 c 0
 117.285017997 575.308686993 119.155819832 584.466656486 122.888752166 593.332370779 c 0
 137.61709966 628.144828492 175.166536142 656 213 656 c 0
 225.072809223 656 235.744705457 653.341745821 245.583514153 647.438460603 c 2
 584.27029149 433.531022285 l 2
 586.309502848 432.762056937 588.525054999 431.494373538 589.312804709 430.969207064 c 0
 604.932282896 420.556221606 611.922572681 403.899408222 611.922572681 386.508656005 c 0
 611.922572681 377.231095611 609.933154761 367.744658174 606.203146411 358.885888341 c 0
 595.106944451 331.145383443 569.394897902 310.620660309 544.589325779 301.579893224 c 2
 26.816314823 86.6741068227 l 2
 17.0531318205 83.0129131967 7.37814765007 80 -5 80 c 0
-5 128 m 0
 -1.02905130289 128 1.54550020281 128.516688773 9.17287534506 131.321406471 c 2
 526.799624619 346.166485803 l 2
 527.095765867 346.289401572 527.66324098 346.509678463 528.071589807 346.652600553 c 0
 542.113654453 351.567323179 556.841041281 364.724580889 561.796853589 377.114111659 c 0
 565.152943727 385.084825735 564.142415325 388.710585451 563.690839296 389.826468336 c 0
 563.494575206 389.936227335 562.646331763 390.416373555 562.184168207 390.708266327 c 2
 220.52347169 606.493969391 l 2
 220.126126369 606.716260479 216.988407859 608 213 608 c 0
 198.830877671 608 174.389915714 591.871753302 167.103214026 574.64864022 c 0
 162.570683504 563.883880232 166.317123388 561.670942922 167.152968901 561.079688731 c 2
 441.77968052 388.314521058 l 2
 444.310353551 386.72249766 448.417773589 382.757791468 450.387321134 378.889558976 c 0
 452.12182772 375.482951837 452.936354893 371.830473477 452.936354893 368.217710048 c 0
 452.936354893 358.792718127 447.392798079 349.638020418 438.178004941 345.824242396 c 2
 20.2457728149 172.852289866 l 2
 6.50235925225 167.065589418 -6.91431638223 154.481914208 -11.8807509967 142.686631999 c 0
 -16.6969126177 131.302977258 -12.4605288535 129.731098716 -10.47479217 128.911711968 c 0
 -9.3635455574 128.45317144 -7.61325736004 128 -5 128 c 0
EndSplineSet
EndChar

StartChar: question
Encoding: 63 63 31
Width: 640
Flags: HW
LayerCount: 2
Back
SplineSet
204.110351562 72 m 0
 194.65234375 59.068359375 176.759765625 48 163.451171875 48 c 0
 155.451171875 48 150.765625 56 154.079101562 64 c 0
 155.194335938 66.6923828125 156.762695312 69.3837890625 158.67578125 72 c 1024
158.67578125 72 m 0
 168.1328125 84.931640625 186.026367188 96 199.333984375 96 c 0
 207.333984375 96 212.020507812 88 208.706054688 80 c 0
 207.591796875 77.3076171875 206.0234375 74.6162109375 204.110351562 72 c 1024
181.587890625 536 m 0
 225.837890625 642.828125 332.10546875 696 439.862304688 696 c 0
 551.862304688 696 611.979492188 648 575.529296875 560 c 0
 546.629882812 490.232421875 498.69921875 459.178710938 423.196289062 424 c 0
 329.646484375 380.413085938 294.05859375 344 250.98046875 240 c 1024
EndSplineSet
Fore
SplineSet
261.986188609 40.9512317826 m 0
 245.813302391 19.0023147728 227.08560073 4.29232389558 205.236100355 -7.20741314405 c 0
 188.20404075 -16.2911782666 167.360827873 -24 144 -24 c 0
 118.169645268 -24 99.8328200456 -11.2752144432 89.9973971135 1.328711146 c 0
 81.5648078247 12.3113048246 76.9057280041 25.5594208948 76.9057280041 40.4147173054 c 0
 76.9057280041 50.6727947904 79.127346374 61.6972341978 83.86217607 73.2712623435 c 0
 87.7957645643 82.4496354969 92.2807715926 90.1877726945 97.0307929359 97.3128047094 c 0
 97.1172483907 97.4424878916 99.6758781316 101.124719848 101.013811391 103.048768217 c 0
 117.186697609 124.997685227 135.91439927 139.707676104 157.763899645 151.207413144 c 0
 174.79595925 160.291178267 195.639172127 168 219 168 c 0
 244.830354732 168 263.167179954 155.275214443 273.002602887 142.671288854 c 0
 281.435192175 131.688695175 286.094271996 118.440579105 286.094271996 103.585282695 c 0
 286.094271996 93.3272052096 283.872653626 82.3027658022 279.13782393 70.7287376565 c 0
 275.204235436 61.5503645031 270.719228407 53.8122273055 265.969207064 46.6871952906 c 0
 265.882751609 46.5575121084 263.324121868 42.8752801517 261.986188609 40.9512317826 c 0
138.410977292 72.8882323797 m 0
 134.69576716 67.2299769475 130.101498861 59.3106458294 128.13782393 54.7287376565 c 0
 121.885137595 39.4443932813 125.415293262 33.899628847 127.975054905 30.6999267936 c 0
 130.482536212 27.3566183843 133.606984522 24 144 24 c 0
 156.639172127 24 169.79595925 28.2911782666 182.763899645 35.2074131441 c 0
 198.6787306 43.5836399624 212.71662504 55.2269661999 224.589022708 71.1117676203 c 0
 228.30423284 76.7700230525 232.898501139 84.6893541706 234.86217607 89.2712623435 c 0
 241.114862405 104.555606719 237.584706738 110.100371153 235.024945095 113.300073206 c 0
 232.517463788 116.643381616 229.393015478 120 219 120 c 0
 206.360827873 120 193.20404075 115.708821733 180.236100355 108.792586856 c 0
 164.3212694 100.416360038 150.28337496 88.7730338001 138.410977292 72.8882323797 c 0
252.195488196 526.866742805 m 0
 237.309339001 491.681299253 199.860581925 464 162 464 c 0
 153.731448049 464 145.63881744 465.474430824 138.200741961 468.594250743 c 0
 116.71488558 477.606259682 106.377885805 497.510164925 106.377885805 518.604059868 c 0
 106.377885805 527.541794768 108.233705961 536.693170658 111.883588517 545.32016579 c 0
 148.412355617 632.344581529 214.936859759 692.30124561 283.266873708 726.466252584 c 0
 340.784851185 755.225241322 401.52063335 768 460 768 c 0
 548.288651239 768 619.144465107 742.376701246 648.466252584 683.733126292 c 0
 657.478507116 665.708617228 661.897324691 645.708331229 661.897324691 624.441854894 c 0
 661.897324691 601.106441982 656.576903944 576.246488801 646.16676495 550.799482372 c 0
 628.949014723 509.907325582 604.052811355 471.868451174 570.173527021 441.267807259 c 0
 529.531685216 403.834531912 484.56420259 380.438900871 439.96551634 360.166770758 c 0
 393.05955419 338.668204772 377.696206583 326.380018272 364.211487393 310.366914234 c 0
 352.717396381 297.230810221 338.838276755 273.996511229 321.158957856 230.780398364 c 0
 306.341238445 195.756697939 268.848822334 168 231 168 c 0
 222.731448049 168 214.63881744 169.474430824 207.200741961 172.594250743 c 0
 185.709978152 181.608318049 175.377402964 201.52924482 175.377402964 222.617340717 c 0
 175.377402964 231.54578035 177.229590562 240.683443351 180.871305619 249.291133486 c 0
 206.164640624 309.995137497 233.015626774 362.18265212 280.586996702 406.510519553 c 0
 317.916994742 441.707374848 359.753574589 466.236380713 405.776573722 487.713780308 c 0
 445.115475594 506.399758698 468.368350413 520.039715632 479.703156778 530.618868239 c 0
 490.190065221 540.231867645 496.870752944 547.689807066 505.892772704 569.342654489 c 0
 513.067878938 586.084569035 511.023935309 592.286497921 508.533747416 597.266873708 c 0
 503.084893791 608.164580957 473.589299816 624 420 624 c 0
 382.409026515 624 348.15556914 615.74496884 321.526739097 602.430553819 c 0
 303.222941439 593.714459696 290.261638922 583.138515981 278.192804971 569.345562895 c 0
 268.653080646 558.071343238 258.998611161 543.874550218 252.195488196 526.866742805 c 0
207.804511804 545.133257195 m 0
 217.033277269 568.205170859 229.346919354 585.928656762 241.807195029 600.654437105 c 0
 257.738361078 618.861484019 276.777058561 634.285540304 300.473260903 645.569446181 c 0
 333.84443086 662.25503116 375.590973485 672 420 672 c 0
 476.410700184 672 530.915106209 659.835419043 551.466252584 618.733126292 c 0
 556.056957984 609.551715492 558.421335591 599.256775161 558.421335591 588.221603124 c 0
 558.421335591 576.397017564 555.706581619 563.722505596 550.107227296 550.657345511 c 0
 539.129247056 524.310192934 525.809934779 507.768132355 512.296843222 495.381131761 c 0
 493.631649587 477.960284368 466.884524406 463.600241302 426.223426278 444.286219692 c 0
 382.246425411 423.763619287 346.083005258 402.292625152 313.413003298 371.489480447 c 0
 272.984373226 333.81734788 249.835359376 290.004862503 225.128694381 230.708866514 c 0
 219.976433238 218.530794721 224.607983425 217.344301421 225.766795489 216.858250295 c 0
 226.732734751 216.45309757 228.384831021 216 231 216 c 0
 245.151177666 216 269.658761555 232.243302061 276.841042144 249.219601636 c 0
 295.143708431 293.95945256 310.330832561 321.459286914 327.79143999 341.637829872 c 0
 346.416361878 363.55622035 370.915931983 381.320559724 420.000286948 403.817555749 c 0
 463.475527491 423.579028723 502.454228706 444.152494068 537.826472979 476.732192741 c 0
 565.947188645 502.131548826 587.050985277 534.092674418 601.83323505 569.200517628 c 0
 610.241547758 589.754170914 613.903907374 608.165983665 613.903907374 624.228949428 c 0
 613.903907374 638.928042716 610.837070958 651.660226624 605.533747416 662.266873708 c 0
 588.855534893 695.623298754 541.711348761 720 460 720 c 0
 408.47936665 720 355.215148815 708.774758678 304.733126292 683.533747416 c 0
 245.073099733 653.703734137 187.574243573 601.623493012 156.12952084 526.711065326 c 0
 150.975706427 514.529322168 155.608078849 513.344261396 156.766795489 512.858250295 c 0
 157.732734751 512.45309757 159.384831021 512 162 512 c 0
 176.139418075 512 200.690660999 528.318700747 207.804511804 545.133257195 c 0
EndSplineSet
EndChar

StartChar: at
Encoding: 64 64 32
Width: 880
Flags: HW
LayerCount: 2
Back
SplineSet
588.255859375 444.380859375 m 0
 590.681640625 504.428710938 559.758789062 545.881835938 504.033203125 545.881835938 c 0
 426.84375 545.881835938 331.28125 466.2421875 290.587890625 368 c 0
 249.89453125 269.7578125 279.482421875 190.118164062 356.671875 190.118164062 c 0
 412.380859375 190.118164062 477.659179688 231.599609375 524.975585938 291.619140625 c 1024
455.005859375 70.470703125 m 0
 404.895507812 50.9169921875 353.530273438 40 304.137695312 40 c 0
 122.98828125 40 36.9658203125 186.850585938 112 368 c 0
 187.034179688 549.149414062 394.712890625 696 575.862304688 696 c 0
 757.01171875 696 843.034179688 549.149414062 768 368 c 0
 750.192382812 325.0078125 730.3828125 282.721679688 694.291992188 246.32421875 c 0
 665.649414062 217.439453125 618.412109375 200 586.412109375 200 c 0
 537.909179688 200 500.8828125 231.52734375 517.647460938 272 c 2
 628.461914062 539.529296875 l 1025
EndSplineSet
Fore
SplineSet
511.8896974 437.520818855 m 1
 510.384834209 467.316926857 497.48068767 474 484 474 c 0
 475.806066726 474 463.320824963 470.723222381 447.781809947 462.090436261 c 0
 418.514006184 445.365976968 380.957480593 405.576906652 361.103214026 358.64864022 c 0
 351.976988469 337.077561632 348.696878395 318.760234762 348.696878395 304.257756914 c 0
 348.696878395 286.635254037 353.54015393 274.645600219 358.622722064 269.295528499 c 0
 362.853873431 264.594249202 368.54038582 262 377 262 c 0
 394.460265062 262 428.376201559 277.776252117 461.27247372 315.664539623 c 1
 511.8896974 437.520818855 l 1
560 433 m 0
 560 430.241554253 559.36409448 426.682754191 558.16392119 423.793448121 c 2
 504.16392119 293.793448121 l 2
 503.409837747 291.978062056 501.931181678 289.419822845 500.402184152 287.593520245 c 0
 461.890254346 241.593159644 417.233947807 214 377 214 c 0
 357.45961418 214 337.146126569 221.405750798 323.377277936 236.704471501 c 0
 307.91272135 252.982952118 300.327805315 276.194190587 300.327805315 302.924210311 c 0
 300.327805315 325.861289585 305.912873123 351.38938395 316.896785974 377.35135978 c 0
 341.042519407 434.423093348 383.485993816 480.634023032 424.218190053 503.909563739 c 0
 444.679175037 515.276777619 464.193933274 522 484 522 c 0
 528.256323497 522 560 485.267976882 560 433 c 0
475 95 m 0
 472.277055382 95 467.349810147 94.0386965572 462.140781467 91.8062556944 c 0
 415.951147945 73.5452377903 369.600769594 64 324 64 c 0
 195.844007377 64 112.82127107 145.715168247 112.82127107 260.605249129 c 0
 112.82127107 297.46911022 121.067318468 336.594851488 137.816628123 377.159585807 c 0
 205.480789531 541.033726719 389.442526399 672 556 672 c 0
 617.545100937 672 669.628393765 653.636017066 706.84941369 620.034381263 c 0
 746.240167739 584.473996988 767.178731692 533.257272293 767.178731692 475.397459839 c 0
 767.140947041 438.561889769 758.902693458 399.332521146 742.215317925 358.917783527 c 0
 724.78225542 315.847864398 706.872106409 281.092764659 680.151080223 253.209954726 c 0
 672.178287468 245.237161971 664.644638986 241.489503763 652.397797943 235.366083241 c 0
 635.093488118 227.379478707 619.206329934 224 606 224 c 0
 591.239873176 224 578.03424659 228.150060975 567.266873708 233.533747416 c 0
 566.624813218 233.854777661 565.48015559 234.502152736 564.687195291 235.030792936 c 0
 554.119961541 242.075615435 548.558025653 251.396346215 547.030792936 253.687195291 c 0
 546.101242204 255.081521388 544.889128483 257.437950708 544.231600847 259.410533616 c 0
 542.607628488 264.282450692 542.171030873 268.03927124 542.035535223 270.613688602 c 0
 541.90047146 274.133125958 542.425047021 277.769327534 543.797445326 281.112988859 c 2
 653.846474416 549.232441552 l 2
 659.040908237 561.510194218 654.391980084 562.655713885 653.233204511 563.141749705 c 0
 652.267265249 563.54690243 650.615168979 564 648 564 c 0
 639.90916087 564 627.590363022 559.181873022 616.618992963 549.777841543 c 0
 612.379246114 546.143772816 606.680613382 544.168035055 600.897802863 544.168035055 c 0
 595.474919946 544.168035055 589.978011752 545.905483118 585.540742101 549.642131245 c 0
 570.888469286 561.9808873 552.021087591 570 524 570 c 0
 492.648240924 570 457.280420254 558.671095968 422.907698799 539.162254061 c 0
 354.941666641 500.058509531 296.046922228 432.725357451 265.145543622 358.749329879 c 0
 250.845581859 324.516088083 244.351109564 293.492843911 244.351109564 266.836462325 c 0
 244.351109564 235.141257079 253.532926126 209.619876187 269.692691674 192.21705175 c 0
 283.868346789 176.549222413 305.629208551 166 337 166 c 0
 376.049560381 166 419.895388068 183.476368859 461.479916209 211.829456227 c 0
 465.227652899 214.384731244 469.962532466 215.730991883 474.80554894 215.730991883 c 0
 482.223339917 215.730991883 489.894813821 212.572742367 494.661566092 205.763096265 c 0
 499.58586791 198.728379383 505.861517588 193.071658543 513.431554594 188.529636339 c 0
 526.79515704 180.3629904 543.963905911 176 567 176 c 0
 589.915061983 176 616.517229955 181.992753217 643.925399195 194.783232196 c 0
 666.077557425 204.936304718 689.568582225 219.509707722 709.029437252 238.970562748 c 0
 754.504461246 284.445586743 775.941720661 333.465704677 793.786873051 377.087188297 c 0
 814.085993855 426.182736287 823.523320288 471.875705209 823.523320288 512.862899203 c 0
 823.523320288 602.374020066 778.513571024 669.441734836 703.330833564 700.492410115 c 0
 673.153151662 712.955874909 637.260276541 720 596 720 c 0
 399.56213318 720 168.50967235 557.955180288 86.1790011761 358.829836052 c 0
 65.9053526816 309.795895507 56.4782905043 264.140885263 56.4782905043 223.175823258 c 0
 56.4782905043 133.675830802 101.476489906 66.5623700269 176.669166436 35.507589885 c 0
 206.846848338 23.0441250914 242.739723459 16 284 16 c 0
 337.273670597 16 393.725097559 28.3037000327 448.222080407 49.337623237 c 0
 462.081989355 54.8815868162 475.758985898 68.1491758929 480.880750997 80.3133680014 c 0
 486.017025801 92.4536539035 481.391995545 93.6557073999 480.233204511 94.141749705 c 0
 479.267265249 94.5469024299 477.615168979 95 475 95 c 0
632.542547476 610.398488018 m 1
 611.094107982 619.019418933 585.438179831 624 556 624 c 0
 412.557473601 624 242.519210469 504.966273281 182.183371877 358.840414193 c 0
 167.4817713 323.234975294 160.821246158 290.22641235 160.821246158 260.580995108 c 0
 160.821246158 172.528591654 218.322582497 112 324 112 c 0
 362.399230406 112 404.048852055 120.45476221 443.859218533 136.193744306 c 0
 452.650189853 139.961303443 463.722944618 143 475 143 c 0
 483.268551951 143 491.36118256 141.525569176 498.799258039 138.405749257 c 0
 520.283053926 129.39460457 530.621912172 109.497848347 530.621912172 88.4015202229 c 0
 530.621912172 79.459881164 528.764564921 70.3027423351 525.111247834 61.6676292214 c 0
 514.248935694 35.8696378889 491.912377034 15.1161597394 465.777919593 4.66237676303 c 0
 406.274902441 -18.3037000327 344.726329403 -32 284 -32 c 0
 237.295518831 -32 195.060427177 -24.0206625751 158.346223641 -8.85759654906 c 0
 61.8353401336 31.0016611197 9.18945363609 117.845329375 9.18945363609 224.33340915 c 0
 9.18945363609 272.14389292 19.8017343129 323.914268386 41.8209988239 377.170163948 c 0
 131.49032765 594.044819712 376.43786682 768 596 768 c 0
 642.704481169 768 684.939572823 760.020662575 721.653776359 744.857596549 c 0
 818.1702646 704.99602411 870.809893437 618.128224703 870.809893437 511.646468392 c 0
 870.809893437 463.847778152 860.202848722 412.096816162 838.19614161 358.871291984 c 0
 820.078521013 314.583774971 795.479143216 257.538017719 742.970562748 205.029437252 c 0
 718.431417775 180.490292278 689.922442575 163.063695282 664.074600805 151.216767804 c 0
 631.482770045 136.007246783 598.084938017 128 567 128 c 0
 538.036094089 128 511.20484296 133.6370096 488.568445406 147.470363661 c 0
 482.485414218 151.120182374 476.21298647 155.836080781 470.757835237 160.708402455 c 1
 427.393658096 134.471825924 383.450664925 118 337 118 c 0
 294.370791449 118 258.131653211 133.450777587 234.307308326 159.78294825 c 0
 208.227555493 187.868835916 196.273515895 224.860720601 196.273515895 266.042368047 c 0
 196.273515895 301.04987103 204.911840636 339.085014253 220.854456378 377.250670121 c 0
 255.953077772 461.274642549 321.058333359 535.941490469 399.092301201 580.837745939 c 0
 438.719579746 603.328904032 481.351759076 618 524 618 c 0
 554.22640348 618 580.775078798 609.980165037 600.958912946 597.589068222 c 1
 610.532899598 603.451018379 621.203712114 608.013456917 632.542547476 610.398488018 c 1
703.04117083 547.370072414 m 1
 702.019072093 541.818109425 700.208380983 535.624489392 698.153525584 530.767558448 c 2
 593.009691142 274.598943626 l 1
 597.989648497 272.765197373 602.046762373 272 606 272 c 0
 608.869594048 272 622.796978488 274.709809653 631.620881015 278.641602081 c 0
 640.079061078 282.941662534 644.532621039 285.896537323 646.203408088 287.160315259 c 0
 666.502234864 308.782300776 681.299965092 336.355268631 697.784682075 377.082216473 c 0
 712.499908022 412.720654314 719.110056741 445.778337534 719.110056741 475.218016228 c 0
 719.110056741 502.703758682 713.348231994 527.035818988 703.04117083 547.370072414 c 1
EndSplineSet
EndChar

StartChar: A
Encoding: 65 65 33
Width: 688
Flags: HW
HStem: -0 21G<82.7602 106.528 581.472 605.24> 144 96<212.766 475.234> 716 20G<315.947 382.204>
LayerCount: 2
Back
SplineSet
75.0986328125 192 m 5
 467.098632812 192 l 1029
-36.548828125 48 m 1
 448.548828125 688 l 1
 504.548828125 688 l 1
 459.451171875 48 l 1025
EndSplineSet
Fore
SplineSet
208.251571226 264 m 1
 399.63646075 264 l 1
 419.359331045 543.042090833 l 1
 208.251571226 264 l 1
160 216 m 2
 156.598639928 216 150.945802442 217.301262872 147.066239746 219.783228604 c 0
 139.946741427 224.337956091 136.097352385 232.20535028 136.097352385 240.14671785 c 0
 136.097352385 245.167787667 137.636193319 250.21842926 140.860292098 254.480040795 c 2
 429.860292098 636.480040795 l 2
 434.078705014 642.055936068 441.377072669 645.999984929 448.996184824 645.999984929 c 0
 462.70610734 645.999984929 473.908516947 634.006721492 472.940274672 620.307886345 c 2
 445.940274672 238.307886345 l 2
 445.178119565 227.524802983 435.25091194 216 422 216 c 2
 160 216 l 2
-56 -24 m 0
 -64.2704635702 -24 -72.3525171792 -22.5256430459 -79.7838391455 -19.4592109303 c 0
 -101.43702948 -10.5243217482 -112.503564234 9.74330812058 -112.503564234 31.325817625 c 0
 -112.503564234 39.9309234257 -110.744344049 48.7450524525 -107.195488196 57.1332571955 c 0
 -103.917410058 65.3284525415 -98.3988406301 73.1701946369 -93.9377058059 78.7466131672 c 2
 391.015529047 718.684902458 l 2
 409.945404724 742.662744982 438.149167063 760 468 760 c 2
 524 760 l 2
 555.820645091 760 581.71108629 735.879497338 579.955718418 702.527507779 c 2
 535.027327696 63.5459508382 l 2
 534.382765171 49.9269684502 531.965135056 45.7908599542 529.195488196 38.8667428045 c 0
 514.484088029 4.09434241051 478.120484604 -24 440 -24 c 0
 406.996139528 -24 382.331997049 0.93908609322 384.039375612 33.3792787896 c 2
 389.453170687 120 l 1
 98.9147734161 120 l 1
 21.2205120445 17.6263850163 l 2
 3.45210100343 -6.48788711091 -25.6066996354 -24 -56 -24 c 0
-56 24 m 0
 -44.3933003646 24 -27.4521010034 32.4878871109 -17.2205120445 46.3736149837 c 2
 67.882244032 158.509011226 l 2
 71.6370028188 163.456458098 79.2664197192 168 87 168 c 2
 415 168 l 2
 428.076564252 168 439.82444213 156.441805075 438.953261884 142.502921132 c 2
 431.960624388 30.6207212104 l 2
 431.668002951 25.0609139068 431.003860472 24 440 24 c 0
 453.757057173 24 476.833429329 39.0305450451 484.813416514 57.1517435667 c 0
 485.870459463 59.8668931021 486.917584659 63.5266818608 487.000495345 64.1737664109 c 0
 487.005739641 64.6695024084 487.023859296 65.1820419365 487.0591071 65.6833440321 c 2
 532.044281582 705.472492221 l 2
 532.28891371 710.120502662 532.179354909 712 524 712 c 2
 468 712 l 2
 457.850832937 712 440.054595276 703.337255018 428.984470953 689.315097542 c 2
 -56.0622941941 49.2533868328 l 2
 -59.6011593699 44.8298053631 -62.0825899424 40.6715474585 -62.8045118039 38.8667428045 c 0
 -67.750101424 27.177167339 -63.4602408085 25.7309798582 -61.47479217 24.911711968 c 0
 -60.3635455574 24.4531714396 -58.61325736 24 -56 24 c 0
EndSplineSet
EndChar

StartChar: B
Encoding: 66 66 34
Width: 696
Flags: HW
AnchorPoint: "above" 520 784 basechar 0
LayerCount: 2
Back
SplineSet
168.284179688 388 m 1
 408.284179688 388 l 2
 504.284179688 388 597.279296875 458 630.416015625 538 c 0
 663.553710938 618 628.548828125 688 532.548828125 688 c 2
 276.548828125 688 l 1
 11.451171875 48 l 1
 283.451171875 48 l 2
 387.451171875 48 480.73046875 138 513.868164062 218 c 0
 547.004882812 298 528.284179688 388 424.284179688 388 c 1024
EndSplineSet
Fore
SplineSet
305 664 m 2
 513 664 l 2
 549.87788043 664 579.006712959 652.160354226 596.789214411 629.932227411 c 0
 608.986026191 614.482932489 614.225102422 596.19013491 614.225102422 577.139397851 c 0
 614.225102422 561.24566877 610.578547461 544.824390966 604.283440581 529.086623768 c 0
 589.960619186 493.279570279 561.553831875 461.996747594 526.444970641 440.47841329 c 0
 498.291717864 423.586461623 465.138310681 412 428 412 c 2
 220 412 l 2
 206.822576046 412 196.001668106 423.067208887 196.001668106 436.044917584 c 0
 196.001668106 439.082853888 197.773560464 444.929782024 197.846153846 445.230769231 c 2
 282.846153846 649.230769231 l 2
 286.652723102 658.366535444 296.251704328 664 305 664 c 2
321 616 m 1
 256 460 l 1
 428 460 l 2
 454.861689319 460 479.708282136 468.413538377 501.555029359 481.52158671 c 0
 528.446168125 498.003252406 550.039380814 522.720429721 559.716559419 546.913376232 c 0
 564.301922846 558.3767848 566.198929569 568.352275182 566.198929569 576.736073141 c 0
 566.198929569 586.927497416 563.39571058 594.7668676 559.210785589 600.067772589 c 0
 552.993287041 607.839645774 540.12211957 616 513 616 c 2
 321 616 l 1
56.8247033796 105.179118683 m 2
 157.82470338 349.179118683 l 2
 161.612314323 358.329386704 171.191411104 364 180 364 c 2
 388 364 l 1
 400 364 l 1
 404 364 l 2
 437.232109919 364 463.001227288 352.789938004 479.449382874 333.351208674 c 0
 491.368048638 318.783950519 499.647946588 300.690180781 500.962934694 278.335382981 c 0
 501.091310135 275.896249597 501.154720893 273.44929229 501.154720893 270.997509649 c 0
 501.154720893 249.950506319 496.481895548 228.547917543 488.119249003 208.686631999 c 0
 478.996338523 187.019719609 464.634904757 163.951814633 445.941164829 143.058811184 c 0
 429.055793657 123.922057188 410.071985049 109.472848939 390.362832611 97.4283668935 c 0
 365.383322511 82.6677472891 336.393976574 72 303 72 c 2
 79 72 l 2
 65.8225760459 72 55.0016681057 83.0672088866 55.0016681057 96.0449175837 c 0
 55.0016681057 99.5485165299 55.6396869079 102.316306613 56.8247033796 105.179118683 c 2
114.909276075 120 m 1
 303 120 l 2
 325.606023426 120 346.616677489 127.332252711 365.637167389 138.571633106 c 0
 381.928014951 148.527151061 396.944206343 160.077942812 410.058835171 174.941188816 c 0
 425.365095243 192.048185367 437.003661477 210.980280391 443.880750997 227.313368001 c 0
 449.903246337 241.616794435 453.147784118 257.618380241 453.147784118 271.360382968 c 0
 453.147784118 285.615506602 449.948125998 293.39797058 442.571435001 302.625305829 c 0
 436.857831081 309.187241253 426.866611945 316 404 316 c 2
 400 316 l 1
 388 316 l 1
 196.040423616 316 l 1
 114.909276075 120 l 1
539.813850296 227.152869498 m 0
 552.123101228 256.933315302 557.265211259 283.446327087 557.265211259 306.24277619 c 0
 557.265211259 336.665979084 548.10686995 360.46980796 534.603508452 376.586723297 c 0
 530.872936009 381.039342019 529.210907173 386.342185739 529.210907173 391.574128336 c 0
 529.210907173 399.790243654 533.309602778 407.83151115 539.932695796 412.130711881 c 0
 593.070915681 446.623942333 634.929441975 496.303938865 655.784154241 547.080629601 c 0
 665.78902109 571.67592727 670.436756299 594.305249634 670.436756299 614.28675496 c 0
 670.436756299 638.44541271 663.64267759 658.733480474 651.308304377 673.945874105 c 0
 633.053268988 696.76466834 600.166032085 712 552 712 c 2
 296 712 l 2
 281.064191194 712 258.748458989 698.087238344 251.252165047 679.005762855 c 2
 -14.8671540371 38.7186793444 l 2
 -16.3905129385 35.1180128501 -16.7756665862 32.5498789263 -16.7818059665 30.6579780894 c 0
 -16.7955303419 26.428698257 -16.3198818311 24 -8 24 c 2
 264 24 l 2
 307.721885681 24 352.796102822 38.4382767715 393.721160925 62.6212656503 c 0
 426.172655938 82.0921626578 455.527136059 107.585575195 479.156660191 134.050642221 c 0
 506.675966915 164.416773779 527.013725548 196.066852254 539.813850296 227.152869498 c 0
584.186149704 208.847130502 m 0
 568.984453725 171.92872598 545.324033085 135.583226221 514.843339809 101.949357779 c 0
 488.472863941 72.4144248055 455.827344062 43.9078373422 418.278839075 21.3787343497 c 0
 371.203897178 -6.43827677149 318.278114319 -24 264 -24 c 2
 -8 -24 l 2
 -39.523829179 -24 -64.7818585848 -0.608135168307 -64.7818585848 30.6255961586 c 0
 -64.7818585848 39.6258844138 -62.75213293 48.7266423698 -59.1328459629 57.2813206556 c 2
 206.747834953 696.994237145 l 2
 221.251541011 733.912761656 258.935808806 760 296 760 c 2
 552 760 l 2
 609.833967915 760 658.946731012 741.23533166 688.691695623 704.054125895 c 0
 709.134986746 678.840733511 718.406515645 647.938840348 718.406515645 614.729747631 c 0
 718.406515645 587.087310339 711.982745376 557.84633196 700.231089623 528.956844899 c 0
 677.831330115 474.418300009 638.332287738 424.956294856 586.121605357 385.84130818 c 1
 598.440843008 363.27662751 605.110698705 336.293932395 605.110698705 306.287618282 c 0
 605.110698705 276.354877559 598.473510951 243.413327067 584.186149704 208.847130502 c 0
EndSplineSet
EndChar

StartChar: C
Encoding: 67 67 35
Width: 684
Flags: HW
AnchorPoint: "bottom" 232 40 basechar 0
AnchorPoint: "above" 540 784 basechar 0
LayerCount: 2
Back
SplineSet
494.412109375 200 m 0
 484.470703125 176 368.137695312 40 232.137695312 40 c 0
 96.1376953125 40 44.9658203125 186.850585938 120 368 c 0
 195.034179688 549.149414062 366.895507812 696 503.862304688 696 c 0
 639.862304688 696 634.15625 576 634.15625 576 c 1024
EndSplineSet
Fore
SplineSet
426.176991091 214.305486444 m 0
 442.523637375 246.200479296 477.960684152 272 514 272 c 0
 522.268551951 272 530.36118256 270.525569176 537.799258039 267.405749257 c 0
 559.231116158 258.416389302 569.61695983 238.700257715 569.61695983 217.542925687 c 0
 569.61695983 208.502616663 567.720749402 199.199178383 563.979830468 190.357006356 c 0
 558.024420925 177.255105362 553.179293476 170.003760128 548.351959296 162.28002544 c 0
 547.936707654 161.615622812 547.304419889 160.728239568 546.944453217 160.265425276 c 0
 540.470169497 151.941346207 532.928817057 141.143133769 521.725206228 128.819161857 c 0
 498.830626901 103.843257137 467.613201439 73.6522548644 427.97658098 45.4893929593 c 0
 371.52652563 4.71990854025 295.131925511 -32 212 -32 c 0
 148.91007051 -32 97.6786626736 -8.17699331943 63.0038914712 31.1210807099 c 0
 26.4829347944 72.511498277 9.07790931184 128.415786733 9.07790931184 192.079614636 c 0
 9.07790931184 249.161715558 23.0702079579 312.481887974 49.8215650305 377.171533258 c 0
 106.879444845 515.147860809 213.838756748 638.759662337 334.862732007 709.704751282 c 0
 395.465472481 745.230495698 461.160221334 768 524 768 c 0
 583.502423866 768 628.513267147 750.207992594 657.377771902 722.546175538 c 0
 683.112972791 699.150538366 696.217642663 670.463643196 703.05144489 647.684302438 c 0
 709.247048301 625.557147397 710.086672888 608.545221445 710.086672888 598.679452483 c 0
 710.086672888 595.557811285 710.002612918 593.151615723 709.977561511 591.525201288 c 0
 709.482723251 580.443823279 706.732752459 574.303593533 704.768399153 568.410533616 c 0
 704.578917321 567.842088119 704.276926942 567.059234385 704.103214026 566.64864022 c 0
 689.389915714 531.871753302 651.830877671 504 614 504 c 0
 580.833770376 504 557.020292252 528.949016677 557.993979204 559.527741161 c 0
 557.955861799 561.685458543 557.122850554 575.753100007 552.673707639 587.193753217 c 0
 545.802107903 604.372752558 532.96565565 624 484 624 c 0
 455.694604314 624 422.724419571 613.872190604 386.191640479 592.327218319 c 0
 313.307373348 549.344188986 233.042029733 461.700871358 190.153846154 358.769230769 c 0
 170.005038066 310.412091357 161.703413125 267.067930332 161.703413125 230.971294488 c 0
 161.703413125 189.574895156 172.621707204 157.710438285 189.110532532 138.748289158 c 0
 204.298485919 121.282142763 224.946848309 112 252 112 c 0
 300.930190622 112 347.277538152 139.827553266 384.373837974 171.216730038 c 0
 403.267400711 187.645915027 419.642033039 206.111414895 426.176991091 214.305486444 c 0
469.562032173 193.708682302 m 0
 468.768760951 191.872877165 468.913466179 192.161300899 468.466252584 191.266873708 c 2
 467.466252584 189.266873708 l 2
 466.060443252 186.455255043 463.990650691 183.834232625 461.562378033 181.728200872 c 0
 452.371334203 170.578305904 436.174233065 152.651157822 415.626162026 134.783269962 c 0
 374.722461848 100.172446734 319.069809378 64 252 64 c 0
 213.053151691 64 177.701514081 78.717857237 152.889467468 107.251710842 c 0
 126.827475707 137.223001367 113.280176206 179.795451534 113.280176206 229.911125274 c 0
 113.280176206 274.275942847 123.896715849 324.552118038 145.846153846 377.230769231 c 0
 192.957970267 490.299128642 278.692626652 584.655811014 361.808359521 633.672781681 c 0
 403.275580429 658.127809396 444.305395686 672 484 672 c 0
 551.03434435 672 584.197892097 637.627247442 597.326292361 604.806246783 c 0
 606.290189186 581.756226375 606 561.339170723 606 559 c 0
 606 558.686483411 605.986518409 558.091178299 605.963048477 557.668719529 c 0
 605.738660114 553.629728996 604.613039964 552 614 552 c 0
 627.794628409 552 651.541769363 567.105362882 659.563069155 584.584734673 c 0
 660.45614184 587.271705096 661.981224246 593.009879337 661.99947616 593.160801082 c 0
 662.03434254 596.58011086 662.859819923 613.204037516 656.94855511 634.315697562 c 0
 651.782357337 651.536356804 642.887027209 670.849461634 624.622228098 687.453824462 c 0
 605.486732853 705.792007406 574.497576134 720 524 720 c 0
 472.839778666 720 414.534527519 700.769504302 359.137267993 668.295248718 c 0
 248.161243252 603.240337663 147.120555155 486.852139191 94.1784349695 358.828466742 c 0
 69.0431024075 298.046662547 57.3962828104 241.665608761 57.3962828104 193.011656309 c 0
 57.3962828104 138.275577777 72.1369946233 93.3192483829 98.9961085288 62.8789192901 c 0
 124.321337326 34.1769933194 161.08992949 16 212 16 c 0
 280.868074489 16 348.47347437 47.2800914598 400.02341902 84.5106070407 c 0
 436.416192326 110.368630179 465.123789376 138.107015166 486.308300635 161.217391084 c 0
 494.865818845 170.630661116 500.317551395 178.389764416 508.296645448 188.756279101 c 0
 513.095318565 196.396933676 515.378030972 199.611423079 520.003444087 209.60284184 c 0
 524.790079359 221.476007621 520.549842304 222.628898141 519.064384757 223.210144048 c 0
 518.082612421 223.594302555 516.469055191 224 514 224 c 0
 501.0287043 224 478.310087164 210.202389875 469.562032173 193.708682302 c 0
EndSplineSet
EndChar

StartChar: D
Encoding: 68 68 36
Width: 696
Flags: HW
AnchorPoint: "above" 520 784 basechar 0
LayerCount: 2
Back
SplineSet
11.451171875 48 m 1
 276.548828125 688 l 1
 484.548828125 688 l 2
 548.548828125 688 682.0390625 624 576 368 c 0
 469.953125 111.98046875 283.451171875 48 219.451171875 48 c 2
 11.451171875 48 l 1
EndSplineSet
Fore
SplineSet
206.888575446 697.332860887 m 2
 222.497404491 733.753461992 258.531350556 760 296 760 c 2
 504 760 l 2
 537.341978127 760 573.956275376 750.824403013 607.131542943 729.088882883 c 0
 633.932101792 711.610257547 659.430569347 683.61771603 674.281127683 645.92014487 c 0
 685.162001456 619.171330177 691.214693125 588.090471282 691.214693125 552.348974085 c 0
 691.214693125 498.704555825 677.579787099 434.561111884 646.169810726 358.807639455 c 0
 593.691801012 232.243027792 520.045690625 141.726264946 444.180000861 80.4101595201 c 0
 402.607692589 46.1130051959 359.490019579 20.7875081578 321.283100859 4.86795869117 c 0
 274.195031459 -15.013670611 233.290101308 -24 200 -24 c 2
 -8 -24 l 2
 -16.2704635702 -24 -24.3525171792 -22.5256430459 -31.7838391455 -19.4592109303 c 0
 -53.4114466297 -10.5348781572 -64.4997947168 9.64301075085 -64.4997947168 31.2585647513 c 0
 -64.4997947168 39.9123432622 -62.7225564321 48.7965504558 -59.1328459629 57.2813206556 c 2
 206.888575446 697.332860887 l 2
251.111424554 678.667139113 m 2
 -14.8671540371 38.7186793444 l 2
 -19.7063530175 27.2805726633 -15.4605063098 25.7310894136 -13.47479217 24.911711968 c 0
 -12.3635455574 24.4531714396 -10.61325736 24 -8 24 c 2
 200 24 l 2
 224.709898692 24 259.804968541 31.013670611 302.716899141 49.1320413088 c 0
 336.509980421 63.2124918422 375.392307411 85.8869948041 413.819999139 117.58984048 c 0
 483.954309375 174.273735054 552.308198988 257.756972208 601.830189274 377.192360545 c 0
 631.619326823 449.036751102 643.185312002 506.573690806 643.185312002 552.146987935 c 0
 643.185312002 582.550658032 638.037605774 607.629635383 629.718872317 628.07985513 c 0
 618.572967581 656.373305615 600.045308656 676.40447477 580.889573267 688.897345676 c 0
 556.021765343 705.190047419 528.667468687 712 504 712 c 2
 296 712 l 2
 281.468649444 712 259.502595509 698.246538008 251.111424554 678.667139113 c 2
321.018113728 616 m 1
 114.959290199 120 l 1
 239 120 l 2
 244.041278805 120 267.218385462 123.261066998 293.306306816 134.955652432 c 0
 314.919110027 144.352523394 339.582700468 158.025740708 364.946480468 178.692524412 c 0
 411.0909624 215.419765134 464.258567587 275.680865355 505.790243947 377.095423908 c 0
 530.982700996 438.611888794 539.470876325 483.781745651 539.470876325 516.695689157 c 0
 539.470876325 538.352299268 535.796061509 554.702914837 530.786873051 566.912811703 c 0
 523.666837254 584.317343651 513.310354109 595.28202039 501.566903228 603.110987644 c 0
 487.195610835 612.943977177 469.834274242 616 465 616 c 2
 321.018113728 616 l 1
282.836522932 649.207620988 m 2
 286.203174395 657.311419199 295.100153564 664 305 664 c 2
 465 664 l 2
 480.165725758 664 504.804389165 659.056022823 528.433096772 642.889012356 c 0
 546.689645891 630.71797961 564.333162746 611.682656349 575.213126949 585.087188297 c 0
 582.90710354 566.333120356 587.522581446 543.841378495 587.522581446 516.775926039 c 0
 587.522581446 475.67522742 576.879080551 424.027345215 550.209756053 358.904576092 c 0
 505.741432413 250.319134645 446.9090376 182.580234866 395.053519532 141.307475588 c 0
 366.417299532 117.974259292 337.080889973 101.647476606 312.693693184 91.0443475675 c 0
 280.781614538 76.738933002 253.958721195 72 239 72 c 2
 79 72 l 2
 76.8199692425 72 73.9384384597 72.4067607704 71.5596433921 73.182438922 c 0
 61.4605541885 76.4755527142 55.0468150531 86.1312256688 55.0468150531 96.2147677273 c 0
 55.0468150531 99.2269369796 55.6191414881 102.277286893 56.836522932 105.207620988 c 2
 282.836522932 649.207620988 l 2
EndSplineSet
EndChar

StartChar: E
Encoding: 69 69 37
Width: 696
Flags: HW
AnchorPoint: "above" 520 784 basechar 0
AnchorPoint: "bottom" 215 48 basechar 0
LayerCount: 2
Back
SplineSet
154.284179688 388 m 1
 440.284179688 388 l 1025
692.548828125 688 m 1
 276.548828125 688 l 1
 11.451171875 48 l 1
 443.451171875 48 l 1025
EndSplineSet
Fore
SplineSet
206.888575446 697.332860887 m 2
 222.497404491 733.753461992 258.531350556 760 296 760 c 2
 712 760 l 2
 720.27046357 760 728.352517179 758.525643046 735.783839145 755.45921093 c 0
 757.399421677 746.539840088 768.498043355 726.404193849 768.498043355 704.773165479 c 0
 768.498043355 696.096466321 766.712280466 687.179160897 763.103214026 678.64864022 c 0
 748.389915714 643.871753302 710.830877671 616 673 616 c 2
 321 616 l 1
 256 460 l 1
 460 460 l 2
 468.268551951 460 476.36118256 458.525569176 483.799258039 455.405749257 c 0
 505.279851129 446.395947948 515.621598985 426.510306564 515.621598985 405.410198318 c 0
 515.621598985 396.462489138 513.761875829 387.2963863 510.103214026 378.64864022 c 0
 495.389915714 343.871753302 457.830877671 316 420 316 c 2
 196.040423616 316 l 1
 114.909276075 120 l 1
 463 120 l 2
 471.268551951 120 479.36118256 118.525569176 486.799258039 115.405749257 c 0
 508.279851129 106.395947948 518.621598985 86.5103065636 518.621598985 65.4101983175 c 0
 518.621598985 56.4624891378 516.761875829 47.2963863001 513.103214026 38.6486402199 c 0
 498.564668994 4.28480650858 462.09080223 -24 424 -24 c 2
 -8 -24 l 2
 -16.2704635702 -24 -24.3525171792 -22.5256430459 -31.7838391455 -19.4592109303 c 0
 -53.4114466297 -10.5348781572 -64.4997947168 9.64301075085 -64.4997947168 31.2585647513 c 0
 -64.4997947168 39.9123432622 -62.7225564321 48.7965504558 -59.1328459629 57.2813206556 c 2
 206.888575446 697.332860887 l 2
251.111424554 678.667139113 m 2
 -14.8671540371 38.7186793444 l 2
 -19.7063530175 27.2805726633 -15.4605063098 25.7310894136 -13.47479217 24.911711968 c 0
 -12.3635455574 24.4531714396 -10.61325736 24 -8 24 c 2
 424 24 l 2
 437.90919777 24 461.435331006 39.7151934914 468.896785974 57.3513597801 c 0
 474.005771936 69.4271447812 469.39205402 70.6556828732 468.233204511 71.141749705 c 0
 467.267265249 71.5469024299 465.615168979 72 463 72 c 2
 79 72 l 2
 76.8919637031 72 73.9552469853 72.4046649782 71.5889851659 73.1728920113 c 0
 61.4754609524 76.4563336986 55.0465390794 86.1199423629 55.0465390794 96.2145418578 c 0
 55.0465390794 99.2167796767 55.6151957593 102.257139877 56.8247033796 105.179118683 c 2
 157.82470338 349.179118683 l 2
 161.193665167 357.317996665 170.096798421 364 180 364 c 2
 420 364 l 2
 434.169122329 364 458.610084286 380.128246698 465.896785974 397.35135978 c 0
 471.005771936 409.427144781 466.39205402 410.655682873 465.233204511 411.141749705 c 0
 464.267265249 411.54690243 462.615168979 412 460 412 c 2
 220 412 l 2
 217.7615098 412 214.924718769 412.408486378 212.53581089 413.190224005 c 0
 202.448458739 416.491172865 196.047039506 426.140387202 196.047039506 436.21494711 c 0
 196.047039506 439.235187715 196.62235648 442.293655551 197.846153846 445.230769231 c 2
 282.846153846 649.230769231 l 2
 286.210882951 657.306119082 295.102919935 664 305 664 c 2
 673 664 l 2
 687.169122329 664 711.610084286 680.128246698 718.896785974 697.35135978 c 0
 723.685658512 708.670513051 719.460631901 710.268858763 717.47479217 711.088288032 c 0
 716.363545557 711.54682856 714.61325736 712 712 712 c 2
 296 712 l 2
 281.468649444 712 259.502595509 698.246538008 251.111424554 678.667139113 c 2
EndSplineSet
EndChar

StartChar: F
Encoding: 70 70 38
Width: 664
Flags: HW
AnchorPoint: "above" 504 784 basechar 0
LayerCount: 2
Back
SplineSet
11.451171875 48 m 1
 276.548828125 688 l 1
 676.548828125 688 l 1025
154.284179688 388 m 1
 448.284179688 388 l 1025
EndSplineSet
Fore
SplineSet
206.888575446 697.332860887 m 2
 222.497404491 733.753461992 258.531350556 760 296 760 c 2
 696 760 l 2
 704.27046357 760 712.352517179 758.525643046 719.783839145 755.45921093 c 0
 741.399421677 746.539840088 752.498043355 726.404193849 752.498043355 704.773165479 c 0
 752.498043355 696.096466321 750.712280466 687.179160897 747.103214026 678.64864022 c 0
 732.389915714 643.871753302 694.830877671 616 657 616 c 2
 321 616 l 1
 256 460 l 1
 468 460 l 2
 476.268551951 460 484.36118256 458.525569176 491.799258039 455.405749257 c 0
 513.279851129 446.395947948 523.621598985 426.510306564 523.621598985 405.410198318 c 0
 523.621598985 396.462489138 521.761875829 387.2963863 518.103214026 378.64864022 c 0
 503.389915714 343.871753302 465.830877671 316 428 316 c 2
 196.033768943 316 l 1
 81.1377977589 38.7303835895 l 2
 66.5344677949 4.21342185632 30.1019269826 -24 -8 -24 c 0
 -16.2704635702 -24 -24.3525171792 -22.5256430459 -31.7838391455 -19.4592109303 c 0
 -53.4114466297 -10.5348781572 -64.4997947168 9.64301075085 -64.4997947168 31.2585647513 c 0
 -64.4997947168 39.9123432622 -62.7225564321 48.7965504558 -59.1328459629 57.2813206556 c 2
 206.888575446 697.332860887 l 2
251.111424554 678.667139113 m 2
 -14.8671540371 38.7186793444 l 2
 -19.7063530175 27.2805726633 -15.4605063098 25.7310894136 -13.47479217 24.911711968 c 0
 -12.3635455574 24.4531714396 -10.61325736 24 -8 24 c 0
 5.89807301736 24 29.4655322051 39.7865781437 36.8622022411 57.2696164105 c 2
 157.828224062 349.187619481 l 2
 161.196503348 357.316028999 170.097793189 364 180 364 c 2
 428 364 l 2
 442.169122329 364 466.610084286 380.128246698 473.896785974 397.35135978 c 0
 479.005771936 409.427144781 474.39205402 410.655682873 473.233204511 411.141749705 c 0
 472.267265249 411.54690243 470.615168979 412 468 412 c 2
 220 412 l 2
 217.7615098 412 214.924718769 412.408486378 212.53581089 413.190224005 c 0
 202.448458739 416.491172865 196.047039506 426.140387202 196.047039506 436.21494711 c 0
 196.047039506 439.235187715 196.62235648 442.293655551 197.846153846 445.230769231 c 2
 282.846153846 649.230769231 l 2
 286.210882951 657.306119082 295.102919935 664 305 664 c 2
 657 664 l 2
 671.169122329 664 695.610084286 680.128246698 702.896785974 697.35135978 c 0
 707.685658512 708.670513051 703.460631901 710.268858763 701.47479217 711.088288032 c 0
 700.363545557 711.54682856 698.61325736 712 696 712 c 2
 296 712 l 2
 281.468649444 712 259.502595509 698.246538008 251.111424554 678.667139113 c 2
EndSplineSet
EndChar

StartChar: G
Encoding: 71 71 39
Width: 672
Flags: HW
AnchorPoint: "above" 540 784 basechar 0
LayerCount: 2
Back
SplineSet
634.15625 576 m 0
 634.15625 576 639.862304688 696 503.862304688 696 c 0
 366.895507812 696 195.034179688 549.149414062 120 368 c 0
 44.9658203125 186.850585938 96.1376953125 40 232.137695312 40 c 0
 360.137695312 40 462.530273438 152 462.530273438 152 c 1
 542.05859375 344 l 1
 374.05859375 344 l 1025
EndSplineSet
Fore
SplineSet
562 416 m 2
 570.241803244 416 578.232982879 414.663153954 585.606459014 411.722760582 c 0
 608.59574207 402.555098779 617.610090724 382.260726925 617.610090724 362.047167347 c 0
 617.610090724 352.567875915 615.627648657 343.106356777 612.174366473 334.818479535 c 2
 533.128244778 142.706386301 l 2
 528.558429737 132.04348454 521.705912451 123.043003015 515.530691576 115.739247586 c 0
 508.143864935 106.589817548 454.858436808 49.0579738943 367.423058893 6.38118229296 c 0
 322.954823513 -14.7941678883 268.963012531 -32 212 -32 c 0
 148.91007051 -32 97.6786626736 -8.17699331943 63.0038914712 31.1210807099 c 0
 26.4829347944 72.511498277 9.07790931184 128.415786733 9.07790931184 192.079614636 c 0
 9.07790931184 249.161715558 23.0702079579 312.481887974 49.8215650305 377.171533258 c 0
 106.879444845 515.147860809 213.838756748 638.759662337 334.862732007 709.704751282 c 0
 395.465472481 745.230495698 461.160221334 768 524 768 c 0
 583.502423866 768 628.513267147 750.207992594 657.377771902 722.546175538 c 0
 683.112972791 699.150538366 696.217642663 670.463643196 703.05144489 647.684302438 c 0
 709.247048301 625.557147397 710.086672888 608.545221445 710.086672888 598.679452483 c 0
 710.086672888 595.557811285 710.002612918 593.151615723 709.977561511 591.525201288 c 0
 709.482723251 580.443823279 706.732752459 574.303593533 704.768399153 568.410533616 c 0
 704.578917321 567.842088119 704.276926942 567.059234385 704.103214026 566.64864022 c 0
 689.389915714 531.871753302 651.830877671 504 614 504 c 0
 580.833770376 504 557.020292252 528.949016677 557.993979204 559.527741161 c 0
 557.955861799 561.685458543 557.122850554 575.753100007 552.673707639 587.193753217 c 0
 545.802107903 604.372752558 532.96565565 624 484 624 c 0
 455.694604314 624 422.724419571 613.872190604 386.191640479 592.327218319 c 0
 313.307373348 549.344188986 233.042029733 461.700871358 190.153846154 358.769230769 c 0
 170.005038066 310.412091357 161.703413125 267.067930332 161.703413125 230.971294488 c 0
 161.703413125 189.574895156 172.621707204 157.710438285 189.110532532 138.748289158 c 0
 204.298485919 121.282142763 224.946848309 112 252 112 c 0
 298.568659954 112 341.937887819 133.920373296 373.91578833 157.433535437 c 0
 384.646201043 165.098115946 393.111860014 173.011065791 399.885796697 179.179246428 c 2
 438.147786719 272 l 1
 354 272 l 2
 345.731448049 272 337.63881744 273.474430824 330.200741961 276.594250743 c 0
 308.720148871 285.604052052 298.378401015 305.489693436 298.378401015 326.589801682 c 0
 298.378401015 335.537510862 300.238124171 344.7036137 303.896785974 353.35135978 c 0
 318.610084286 388.128246698 356.169122329 416 394 416 c 2
 562 416 l 2
562 368 m 2
 394 368 l 2
 379.830877671 368 355.389915714 351.871753302 348.103214026 334.64864022 c 0
 342.994228064 322.572855219 347.60794598 321.344317127 348.766795489 320.858250295 c 0
 349.732734751 320.45309757 351.384831021 320 354 320 c 2
 474 320 l 2
 476.025660909 320 479.025638709 319.597693953 481.377453737 318.837976626 c 0
 491.507468044 315.565632796 497.953776077 305.892968832 497.953776077 295.785723263 c 0
 497.953776077 292.794837275 497.389300528 289.76589684 496.188764861 286.853486241 c 2
 442.188764861 155.853486241 l 2
 440.911117417 152.754008183 438.651230581 149.467952751 435.944732132 147.062176352 c 0
 427.810222355 139.831500994 417.365012919 129.481322598 402.08421167 118.566464563 c 0
 366.062112181 92.0796267036 313.431340046 64 252 64 c 0
 213.053151691 64 177.701514081 78.717857237 152.889467468 107.251710842 c 0
 126.827475707 137.223001367 113.280176206 179.795451534 113.280176206 229.911125274 c 0
 113.280176206 274.275942847 123.896715849 324.552118038 145.846153846 377.230769231 c 0
 192.957970267 490.299128642 278.692626652 584.655811014 361.808359521 633.672781681 c 0
 403.275580429 658.127809396 444.305395686 672 484 672 c 0
 551.03434435 672 584.197892097 637.627247442 597.326292361 604.806246783 c 0
 606.290189186 581.756226375 606 561.339170723 606 559 c 0
 606 558.686483411 605.986518409 558.091178299 605.963048477 557.668719529 c 0
 605.738660114 553.629728996 604.613039964 552 614 552 c 0
 627.794628409 552 651.541769363 567.105362882 659.563069155 584.584734673 c 0
 660.45614184 587.271705096 661.981224246 593.009879337 661.99947616 593.160801082 c 0
 662.03434254 596.58011086 662.859819923 613.204037516 656.94855511 634.315697562 c 0
 651.782357337 651.536356804 642.887027209 670.849461634 624.622228098 687.453824462 c 0
 605.486732853 705.792007406 574.497576134 720 524 720 c 0
 472.839778666 720 414.534527519 700.769504302 359.137267993 668.295248718 c 0
 248.161243252 603.240337663 147.120555155 486.852139191 94.1784349695 358.828466742 c 0
 69.0431024075 298.046662547 57.3962828104 241.665608761 57.3962828104 193.011656309 c 0
 57.3962828104 138.275577777 72.1369946233 93.3192483829 98.9961085288 62.8789192901 c 0
 124.321337326 34.1769933194 161.08992949 16 212 16 c 0
 259.036987469 16 307.045176487 30.7941678883 346.576941107 49.618817707 c 0
 422.222351824 86.540982462 472.90888709 139.731599742 478.098263209 145.789442881 c 0
 478.29391036 146.038266201 478.549308524 146.352371108 478.777841543 146.618992963 c 0
 483.880044245 152.571562781 487.535229401 158.175053448 488.871755222 161.293613699 c 2
 567.825633527 353.181520465 l 2
 573.100556117 365.84133468 568.206835922 366.985520239 567.826615702 367.137144384 c 0
 566.906401452 367.504107243 565.091530089 368 562 368 c 2
EndSplineSet
EndChar

StartChar: H
Encoding: 72 72 40
Width: 712
Flags: HW
AnchorPoint: "above" 528 784 basechar 0
LayerCount: 2
Back
SplineSet
154.284179688 388 m 1
 574.284179688 388 l 1025
700.548828125 688 m 1
 435.451171875 48 l 1025
11.451171875 48 m 1
 276.548828125 688 l 1025
EndSplineSet
Fore
SplineSet
630.871305619 697.291133486 m 2
 645.457582429 731.767787764 681.901001354 760 720 760 c 0
 728.27046357 760 736.352517179 758.525643046 743.783839145 755.45921093 c 0
 765.41144663 746.534878157 776.499794717 726.356989249 776.499794717 704.741435249 c 0
 776.499794717 696.087656738 774.722556432 687.203449544 771.132845963 678.718679344 c 2
 505.132845963 38.7186793444 l 2
 490.538792087 4.22364291119 454.100334109 -24 416 -24 c 0
 407.72953643 -24 399.647482821 -22.5256430459 392.216160855 -19.4592109303 c 0
 370.586539103 -10.5340469978 359.499910632 9.65091404522 359.499910632 31.2638723597 c 0
 359.499910632 39.9138141552 361.275724457 48.7924871021 364.862202241 57.2696164105 c 2
 472.075820098 316 l 1
 196.033768943 316 l 1
 81.1377977589 38.7303835895 l 2
 66.5344677949 4.21342185632 30.1019269826 -24 -8 -24 c 0
 -16.2704635702 -24 -24.3525171792 -22.5256430459 -31.7838391455 -19.4592109303 c 0
 -53.4114466297 -10.5348781572 -64.4997947168 9.64301075085 -64.4997947168 31.2585647513 c 0
 -64.4997947168 39.9123432622 -62.7225564321 48.7965504558 -59.1328459629 57.2813206556 c 2
 206.867154037 697.281320656 l 2
 221.461207913 731.776357089 257.899665891 760 296 760 c 0
 304.27046357 760 312.352517179 758.525643046 319.783839145 755.45921093 c 0
 341.409758926 746.535574565 352.49954812 726.363612064 352.49954812 704.745884002 c 0
 352.49954812 696.088890216 350.721115549 687.20004382 347.128694381 678.708866514 c 2
 256 460 l 1
 532 460 l 1
 630.871305619 697.291133486 l 2
675.128694381 678.708866514 m 2
 570.153846154 426.769230769 l 2
 566.789117049 418.693880918 557.897080065 412 548 412 c 2
 220 412 l 2
 217.7615098 412 214.924718769 412.408486378 212.53581089 413.190224005 c 0
 202.448458739 416.491172865 196.047039506 426.140387202 196.047039506 436.21494711 c 0
 196.047039506 439.235187715 196.62235648 442.293655551 197.846153846 445.230769231 c 2
 302.871305619 697.291133486 l 2
 307.703453614 708.712574202 303.460523906 710.268903326 301.47479217 711.088288032 c 0
 300.363545557 711.54682856 298.61325736 712 296 712 c 0
 282.100334109 712 258.538792087 696.223642911 251.132845963 678.718679344 c 2
 -14.8671540371 38.7186793444 l 2
 -19.7063530175 27.2805726633 -15.4605063098 25.7310894136 -13.47479217 24.911711968 c 0
 -12.3635455574 24.4531714396 -10.61325736 24 -8 24 c 0
 5.89807301736 24 29.4655322051 39.7865781437 36.8622022411 57.2696164105 c 2
 157.828224062 349.187619481 l 2
 161.196503348 357.316028999 170.097793189 364 180 364 c 2
 508 364 l 2
 510.129510168 364 513.049756424 363.594713267 515.419765651 362.824265107 c 0
 525.528986566 359.537935854 531.953378657 349.876692076 531.953378657 339.785390201 c 0
 531.953378657 336.780191118 531.383628914 333.736852163 530.171775938 330.812380519 c 2
 409.137797759 38.7303835895 l 2
 404.290188722 27.2723985921 408.539514678 25.7310807534 410.52520783 24.911711968 c 0
 411.636454443 24.4531714396 413.38674264 24 416 24 c 0
 429.899665891 24 453.461207913 39.7763570888 460.867154037 57.2813206556 c 2
 726.867154037 697.281320656 l 2
 731.706353018 708.719427337 727.46050631 710.268910586 725.47479217 711.088288032 c 0
 724.363545557 711.54682856 722.61325736 712 720 712 c 0
 706.098998646 712 682.542417571 696.232212236 675.128694381 678.708866514 c 2
EndSplineSet
EndChar

StartChar: I
Encoding: 73 73 41
Width: 336
Flags: HW
HStem: 0 21G<154.754 181.246> 716 20G<154.754 181.246>
VStem: 120 96<7.56638 728.434>
AnchorPoint: "above" 340 784 basechar 0
LayerCount: 2
Back
SplineSet
300.548828125 688 m 1
 35.451171875 48 l 1025
EndSplineSet
Fore
SplineSet
230.867154037 697.281320656 m 2
 245.461207913 731.776357089 281.899665891 760 320 760 c 0
 328.27046357 760 336.352517179 758.525643046 343.783839145 755.45921093 c 0
 365.41144663 746.534878157 376.499794717 726.356989249 376.499794717 704.741435249 c 0
 376.499794717 696.087656738 374.722556432 687.203449544 371.132845963 678.718679344 c 2
 105.132845963 38.7186793444 l 2
 90.5387920873 4.22364291119 54.1003341094 -24 16 -24 c 0
 7.72953642981 -24 -0.35251717921 -22.5256430459 -7.78383914549 -19.4592109303 c 0
 -29.4114466297 -10.5348781572 -40.4997947168 9.64301075086 -40.4997947168 31.2585647513 c 0
 -40.4997947168 39.9123432622 -38.7225564321 48.7965504558 -35.1328459629 57.2813206556 c 2
 230.867154037 697.281320656 l 2
275.132845963 678.718679344 m 2
 9.13284596293 38.7186793444 l 2
 4.29364698246 27.2805726633 8.53949369021 25.7310894136 10.52520783 24.911711968 c 0
 11.6364544426 24.4531714396 13.38674264 24 16 24 c 0
 29.8996658906 24 53.4612079127 39.7763570888 60.8671540371 57.2813206556 c 2
 326.867154037 697.281320656 l 2
 331.706353018 708.719427337 327.46050631 710.268910586 325.47479217 711.088288032 c 0
 324.363545557 711.54682856 322.61325736 712 320 712 c 0
 306.100334109 712 282.538792087 696.223642911 275.132845963 678.718679344 c 2
EndSplineSet
EndChar

StartChar: J
Encoding: 74 74 42
Width: 544
Flags: HW
AnchorPoint: "above" 444 784 basechar 0
LayerCount: 2
Back
SplineSet
59.548828125 280 m 1
 33.0390625 216 l 1
 33.0390625 216 l 1
 -7.22265625 118.797851562 28.1904296875 40 112.137695312 40 c 0
 196.084960938 40 301.227539062 129.54296875 346.98046875 240 c 2
 532.548828125 688 l 1025
EndSplineSet
Fore
SplineSet
-10.1079826933 289.340088384 m 2
 4.43194835271 323.707198129 40.9091977697 352 79 352 c 0
 87.2704635702 352 95.3525171792 350.525643046 102.783839145 347.45921093 c 0
 124.403289422 338.538244116 135.498597769 318.389028909 135.498597769 296.762979722 c 0
 135.498597769 288.093645916 133.715576785 279.186984232 130.112739863 270.67118787 c 2
 103.120169228 206.688798217 l 2
 95.4049574992 188.319246482 92.4530846165 172.599213773 92.4530846165 159.664426773 c 0
 92.4530846165 141.06488153 98.556651953 128.224369758 105.377873903 121.546438684 c 0
 112.539906077 115.216759097 119.717768173 112 132 112 c 0
 143.01179138 112 157.862124851 115.505844006 174.65210187 125.579830217 c 0
 209.692482456 146.604058569 253.955212896 193.377950407 276.81345333 249.152057065 c 2
 462.865373845 697.277112929 l 2
 477.462762514 731.780031602 513.899093246 760 552 760 c 0
 560.27046357 760 568.352517179 758.525643046 575.783839145 755.45921093 c 0
 597.412170609 746.534579417 608.49990058 726.354148475 608.49990058 704.739527311 c 0
 608.49990058 696.087127903 606.723174397 687.204910189 603.134626155 678.722887071 c 2
 417.152108428 230.764994911 l 2
 379.124865833 139.922137602 309.22495324 57.2955822553 226.191640479 8.32721831879 c 0
 184.308989472 -16.3728066341 137.549151683 -32 92 -32 c 0
 49.0455777972 -32 11.5216467788 -18.2110921703 -14.4496765094 6.5235014375 c 0
 -45.2163370093 35.1436507398 -59.6976072925 75.3365997825 -59.6976072925 120.541797901 c 0
 -59.6976072925 153.61487198 -51.9462272074 189.370849348 -37.1499862317 225.240524441 c 2
 -10.1079826933 289.340088384 l 2
34.1079826933 270.659911616 m 2
 7.14998623167 206.759475559 l 2
 -5.85856102857 175.223603413 -11.7199158544 146.39653412 -11.7199158544 121.310028328 c 0
 -11.7199158544 86.6530403246 -0.533285275448 59.1350676647 18.4496765094 41.4764985625 c 0
 34.4783532212 26.2110921703 58.9544222028 16 92 16 c 0
 126.450848317 16 165.691010528 28.3728066341 201.808359521 49.6727816812 c 0
 274.786091742 92.7109314523 338.860882747 168.043817341 372.861416281 249.267314115 c 2
 558.865373845 697.277112929 l 2
 563.707596277 708.72236595 559.460498765 710.2689137 557.47479217 711.088288032 c 0
 556.363545557 711.54682856 554.61325736 712 552 712 c 0
 538.100906754 712 514.537237486 696.219968398 507.134626155 678.722887071 c 2
 321.18654667 230.847942935 l 2
 294.044787104 164.622049593 244.307517544 111.395941431 199.34789813 84.4201697829 c 0
 176.137875149 70.4941559943 152.98820862 64 132 64 c 0
 108.339129867 64 88.2221265766 72.2720985726 72.6397962355 86.4378534281 c 0
 53.7848647889 104.435742536 44.3381619429 129.827457559 44.3381619429 158.834315179 c 0
 44.3381619429 179.597099546 49.178214474 202.212115359 58.8724294654 225.293579625 c 2
 85.887260137 289.32881213 l 2
 90.6923307753 300.68625182 86.4605791653 302.268880524 84.47479217 303.088288032 c 0
 83.3635455574 303.54682856 81.61325736 304 79 304 c 0
 65.0908022303 304 41.5694376616 288.296077905 34.1079826933 270.659911616 c 2
EndSplineSet
EndChar

StartChar: K
Encoding: 75 75 43
Width: 672
Flags: HW
AnchorPoint: "above" 508 784 basechar 0
LayerCount: 2
Back
SplineSet
443.451171875 48 m 1
 329.337890625 434 l 1025
692.548828125 688 m 1
 110.377929688 282 l 1025
276.548828125 688 m 1
 11.451171875 48 l 1025
EndSplineSet
Fore
SplineSet
468.814242657 57.1536195987 m 0
 470.872259657 62.5780104872 471.201077863 67.7091830311 470.787119784 69.8664818045 c 2
 366.978345868 422.217416346 l 2
 364.415999557 430.914611034 367.517707529 442.568970235 376.253310242 448.673040454 c 2
 697.921048616 673.440870063 l 2
 706.60337589 680.074030366 715.088916445 689.466446429 719.04253851 697.700438777 c 0
 723.439320778 708.630637883 719.614593006 710.266394836 717.282462577 711.164984899 c 0
 716.167848255 711.594455456 714.467493657 712 712 712 c 0
 706.181084633 712 696.936838471 708.977507232 686.562637056 702.198509073 c 2
 216.734978222 374.318781206 l 2
 211.129955236 370.407190696 202.80930821 368.821714558 195.568892326 371.179425101 c 0
 185.46525119 374.469493187 179.046728019 384.127669484 179.046728019 394.214697127 c 0
 179.046728019 397.223735171 179.617896256 400.270935618 180.832792756 403.198637019 c 2
 302.864525936 697.275108781 l 2
 307.708188444 708.723765618 303.460495171 710.268915183 301.47479217 711.088288032 c 0
 300.363545557 711.54682856 298.61325736 712 296 712 c 0
 282.100334109 712 258.538792087 696.223642911 251.132845963 678.718679344 c 2
 -14.8671540371 38.7186793444 l 2
 -19.7063530175 27.2805726633 -15.4605063098 25.7310894136 -13.47479217 24.911711968 c 0
 -12.3635455574 24.4531714396 -10.61325736 24 -8 24 c 0
 5.8989851793 24 29.4630558907 39.7807250369 36.8650378966 57.276318869 c 2
 124.833800076 269.201064119 l 2
 126.217354607 272.534172763 129.513980335 277.068435959 133.282516774 279.693416513 c 2
 278.282516774 380.693416513 l 2
 278.376781437 380.759076726 281.722923357 382.762529263 283.399746083 383.406151668 c 0
 286.150292038 384.461906086 288.989108989 384.958962228 291.791206846 384.958962228 c 0
 302.109918463 384.958962228 311.930690895 378.218498148 315.011835381 367.81582221 c 2
 415.85554649 27.343490645 l 2
 416.311487077 26.203426913 416.535631987 24 424 24 c 0
 437.757324618 24 460.832705494 39.0289013385 468.814242657 57.1536195987 c 0
513.195488196 38.8667428045 m 0
 498.484088029 4.09434241051 462.120484604 -24 424 -24 c 0
 399.515985166 -24 377.870174446 -10.5051871814 370.103345793 12.795298778 c 2
 278.431683844 322.300612883 l 1
 166.47581815 244.317561607 l 1
 81.1349621034 38.723681131 l 2
 66.5369441093 4.21927496309 30.1010148207 -24 -8 -24 c 0
 -16.2704635702 -24 -24.3525171792 -22.5256430459 -31.7838391455 -19.4592109303 c 0
 -53.4114466297 -10.5348781572 -64.4997947168 9.64301075085 -64.4997947168 31.2585647513 c 0
 -64.4997947168 39.9123432622 -62.7225564321 48.7965504558 -59.1328459629 57.2813206556 c 2
 206.867154037 697.281320656 l 2
 221.461207913 731.776357089 257.899665891 760 296 760 c 0
 304.27046357 760 312.352517179 758.525643046 319.783839145 755.45921093 c 0
 341.412515505 746.534437101 352.499951028 726.352795213 352.499951028 704.73861849 c 0
 352.499951028 696.086876035 350.72346876 687.205605956 347.135474064 678.724891219 c 2
 256.671962408 460.722658213 l 1
 659.474575373 741.827460452 l 2
 674.250429818 751.678030082 691.654007955 760 712 760 c 0
 720.27046357 760 728.352517179 758.525643046 735.783839145 755.45921093 c 0
 757.33912517 746.564720606 768.489462434 726.641486361 768.489462434 704.93342248 c 0
 768.489462434 696.141383055 766.660414549 687.056568731 762.952797906 678.29311121 c 0
 754.251398548 659.440079267 741.361291614 646.020968711 726.077319898 634.557989924 c 2
 417.901870771 419.218002179 l 1
 517.162524332 82.3044376874 l 2
 518.471771561 77.0674487705 519.072929692 71.956038019 519.072929692 66.9377138666 c 0
 519.072929692 57.3148075233 516.862463779 48.0341817614 513.195488196 38.8667428045 c 0
EndSplineSet
EndChar

